<svg xmlns="http://www.w3.org/2000/svg" viewBox="0 0 330 326"><path fill="#cfcfcf" d="m233.78 289.51.53 23.66a.74.74 0 0 1-.51.72l-34.71 11.36a.74.74 0 0 1-.82-.25l-15.11-19.51a.74.74 0 0 0-.59-.29l-34.22.17a.74.74 0 0 0-.58.29l-14.98 19.52a.74.74 0 0 1-.82.25L97.22 314.2a.74.74 0 0 1-.51-.72l.53-23.59a.74.74 0 0 0-.3-.62l-30-21.7a.74.74 0 0 0-.67-.1l-22.43 7.75a.74.74 0 0 1-.84-.26l-21.72-29.72a.74.74 0 0 1-.01-.87l14.16-19.7a.74.74 0 0 0 .1-.67L24.5 190.51a.74.74 0 0 0-.48-.48l-22.91-7.5a.74.74 0 0 1-.51-.7l-.09-37.84a.74.74 0 0 1 .52-.7l22.93-7.21a.74.74 0 0 0 .48-.47l11.17-34.18a.74.74 0 0 0-.11-.67L21.27 81.44a.74.74 0 0 1 0-.88l21.72-29.71a.74.74 0 0 1 .85-.26l21.85 8.12a.74.74 0 0 0 .69-.09l31-22.41a.74.74 0 0 0 .3-.63l-.89-23.25a.74.74 0 0 1 .51-.73L131.95.39a.74.74 0 0 1 .84.29l13.19 19.49a.74.74 0 0 0 .61.33h37.86a.74.74 0 0 0 .61-.32L198.29.83a.74.74 0 0 1 .84-.29l34.59 11.31a.74.74 0 0 1 .51.73l-.9 23.36a.74.74 0 0 0 .3.62L264.35 59a.74.74 0 0 0 .69.09l21.97-8a.74.74 0 0 1 .86.26l21.58 29.86a.74.74 0 0 1-.03.9l-14.66 18.11a.74.74 0 0 0-.13.69l11.83 36.48a.74.74 0 0 0 .51.49l22.24 6.09a.74.74 0 0 1 .54.71v36.5a.74.74 0 0 1-.51.7l-22.85 7.62a.74.74 0 0 0-.47.48l-10.78 33.43a.74.74 0 0 0 .1.66l14.21 19.65a.74.74 0 0 1 0 .86l-21.59 29.88a.74.74 0 0 1-.84.26l-22.51-7.64a.74.74 0 0 0-.67.11l-29.76 21.7a.74.74 0 0 0-.3.62ZM89 255.29c1.74 2.65-1.28-.58-1.7 1.01a1 .99 28.6 0 0 .3 1l5.78 5.11q.17.16.26.38.75 1.85 2.43 2.98a.21.21 0 0 0 .32-.13c.44-1.73 3.13 2.57 3.23 2.79a1 .98 83.3 0 0 .7.56q1.26.28 2.03 1.26a.95.94-9.9 0 0 .5.35l2.03.61a.95.94 83.8 0 1 .58.47q1.57 2.85 4.81 3.66a.65.65 0 0 1 .49.64l-.01.3a1 1 0 0 0 .63.96l1.77.69a.96.96 0 0 1 .52.46q.33.63.9.47a.63.62-35.9 0 1 .52.08q1.3.85 3.16.88a1.01.99-16.7 0 1 .8.42c1.42 2.01 3.55 1.41 5.7 1.6a1.03.97-20.3 0 1 .57.24c2.01 1.76 5.13.86 6.02 2.95a1.03.99 82.5 0 0 .75.6c1.4.23 5.38.8 6.58 1.86a1.03 1.02 65.1 0 0 .67.25l7.15-.02a.27.26 90 0 1 .26.27v.26a.27.26-77.8 0 0 .15.24q1.28.58 2.5-.01a1.01 1 45.3 0 1 .88.01q1.26.64 2.6.15a1 .98 50.8 0 1 .88.1q2.06 1.32 4.79.57c1.31-.36 10.68-1.49 12.08-.31a1.08 1.07-22.8 0 0 .57.23l4.87.39a1.06 1.04 30.7 0 0 .61-.15q1.8-1.13 3.83-.37a.96.94 48.6 0 0 .57.04c1.69-.37 4.01-.13 5.97-.63a.83.8 52.6 0 1 .61.09q.45.27.7-.05a.41.41 0 0 1 .53-.1q1.36.82 2.58-.37a1 1 0 0 1 .57-.27l5.96-.77q.27-.03.96-.28.71-.26.38-.47-.25-.16-.12-.16l7.52-.42a.8.8 0 0 0 .68-.47c.68-1.49 3.49.08 4.14-2.67a1.01 1 11.7 0 1 1.15-.75q1.33.23 2.69-.34a.97.94-87.9 0 0 .5-.48q.84-1.68 2.69-1.47a1.02 1.01-70 0 0 .94-.44q.92-1.37 2.36-2.09c2.32-1.15 4.52-2.45 6.92-3.43a1.03.99-89.6 0 0 .54-.55c.51-1.25 2.61-1.33 2.66-1.95a.51.51 0 0 1 .38-.45q1.79-.51 3.18-1.81 1.05-.97 2.24-1.86a.98.96-14 0 0 .39-.64q.16-.92.96-.65a.8.8 0 0 0 .99-.43q.74-1.64 2.71-3.5 1.98-1.89 5.39-7.46a1.02 1 16.1 0 1 .88-.48q1.32.04 1.39-1.33a1.1 1.05 64.7 0 1 .17-.51q2.13-3.17 2.89-3.87 4.23-3.93 5.25-5.72.26-.44.38-.94.96-3.95-1.72-.89-9.18 10.45-20.23 18.91a.34.33 46.4 0 1-.42-.02q-.21-.19-.13-.42c68.94-52.39 63.07-158.33-12.98-200.46q-39.03-21.63-83.28-12.69c-56.24 11.37-97.49 63.68-94.9 121.14q2.41 53.22 43.45 88.3Z"/><path fill="#c6c6c7" fill-opacity=".953" d="M89 255.29c43.23 34.89 102.7 36.54 147.71 3.71q-.08.23.13.42a.34.33 46.4 0 0 .42.02q11.05-8.46 20.23-18.91 2.68-3.06 1.72.89-.12.5-.38.94-1.02 1.79-5.25 5.72-.76.7-2.89 3.87a1.1 1.05 64.7 0 0-.17.51q-.07 1.37-1.39 1.33a1.02 1 16.1 0 0-.88.48q-3.41 5.57-5.39 7.46-1.97 1.86-2.71 3.5a.8.8 0 0 1-.99.43q-.8-.27-.96.65a.98.96-14 0 1-.39.64q-1.19.89-2.24 1.86-1.39 1.3-3.18 1.81a.51.51 0 0 0-.38.45c-.05.62-2.15.7-2.66 1.95a1.03.99-89.6 0 1-.54.55c-2.4.98-4.6 2.28-6.92 3.43q-1.44.72-2.36 2.09a1.02 1.01-70 0 1-.94.44q-1.85-.21-2.69 1.47a.97.94-87.9 0 1-.5.48q-1.36.57-2.69.34a1.01 1 11.7 0 0-1.15.75c-.65 2.75-3.46 1.18-4.14 2.67a.8.8 0 0 1-.68.47l-7.52.42q-.13 0 .12.16.33.21-.38.47-.69.25-.96.28l-5.96.77a1 1 0 0 0-.57.27q-1.22 1.19-2.58.37a.41.41 0 0 0-.53.1q-.25.32-.7.05a.83.8 52.6 0 0-.61-.09c-1.96.5-4.28.26-5.97.63a.96.94 48.6 0 1-.57-.04q-2.03-.76-3.83.37a1.06 1.04 30.7 0 1-.61.15l-4.87-.39a1.08 1.07-22.8 0 1-.57-.23c-1.4-1.18-10.77-.05-12.08.31q-2.73.75-4.79-.57a1 .98 50.8 0 0-.88-.1q-1.34.49-2.6-.15a1.01 1 45.3 0 0-.88-.01q-1.22.59-2.5.01a.27.26-77.8 0 1-.15-.24v-.26a.27.26 90 0 0-.26-.27l-7.15.02a1.03 1.02 65.1 0 1-.67-.25c-1.2-1.06-5.18-1.63-6.58-1.86a1.03.99 82.5 0 1-.75-.6c-.89-2.09-4.01-1.19-6.02-2.95a1.03.97-20.3 0 0-.57-.24c-2.15-.19-4.28.41-5.7-1.6a1.01.99-16.7 0 0-.8-.42q-1.86-.03-3.16-.88a.63.62-35.9 0 0-.52-.08q-.57.16-.9-.47a.96.96 0 0 0-.52-.46l-1.77-.69a1 1 0 0 1-.63-.96l.01-.3a.65.65 0 0 0-.49-.64q-3.24-.81-4.81-3.66a.95.94 83.8 0 0-.58-.47l-2.03-.61a.95.94-9.9 0 1-.5-.35q-.77-.98-2.03-1.26a1 .98 83.3 0 1-.7-.56c-.1-.22-2.79-4.52-3.23-2.79a.21.21 0 0 1-.32.13q-1.68-1.13-2.43-2.98-.09-.22-.26-.38l-5.78-5.11a1 .99 28.6 0 1-.3-1c.42-1.59 3.44 1.64 1.7-1.01Z"/></svg>