<?xml version="1.0" standalone="no"?>
<!DOCTYPE svg PUBLIC "-//W3C//DTD SVG 20010904//EN"
 "http://www.w3.org/TR/2001/REC-SVG-20010904/DTD/svg10.dtd">
<svg version="1.0" xmlns="http://www.w3.org/2000/svg"
 width="795.000000pt" height="795.000000pt" viewBox="0 0 795.000000 795.000000"
 preserveAspectRatio="xMidYMid meet">
<g transform="translate(0.000000,795.000000) scale(0.100000,-0.100000)"
fill="#000000" stroke="none">
<path d="M3035 7855 c-176 -59 -447 -146 -465 -150 -8 -2 -16 -4 -17 -5 -2 -2
-6 -3 -10 -4 -5 -1 -21 -6 -38 -12 -16 -7 -62 -22 -101 -35 l-71 -23 3 -85 c1
-47 5 -179 9 -292 l6 -207 -196 -143 c-108 -79 -204 -148 -213 -154 -9 -5 -19
-12 -22 -15 -3 -3 -36 -28 -75 -55 -38 -27 -76 -55 -83 -62 -7 -7 -17 -13 -21
-13 -4 0 -16 -8 -27 -18 -10 -9 -42 -33 -69 -53 -58 -41 -41 -44 -250 36 -82
31 -154 58 -160 59 -5 2 -21 7 -35 13 -14 5 -54 20 -89 33 l-64 24 -21 -25
c-12 -14 -29 -36 -38 -50 -10 -13 -42 -56 -70 -96 -29 -40 -89 -122 -133 -183
-44 -61 -87 -119 -95 -129 -8 -10 -33 -44 -55 -76 -22 -31 -47 -65 -55 -74
-19 -21 -70 -99 -70 -107 0 -3 31 -47 68 -98 37 -50 79 -107 92 -126 13 -19
27 -37 30 -40 3 -3 40 -53 83 -112 l77 -106 -57 -174 c-31 -95 -57 -175 -58
-178 -1 -3 -32 -99 -70 -215 -38 -115 -70 -216 -71 -223 -8 -46 -51 -66 -294
-137 -129 -38 -274 -86 -284 -94 -8 -7 -11 -148 -11 -473 l0 -463 286 -95 286
-94 31 -91 c62 -188 196 -600 197 -607 0 -3 3 -10 8 -14 4 -4 7 -18 7 -30 0
-13 5 -26 10 -29 6 -4 8 -10 5 -15 -3 -5 -1 -11 5 -15 5 -3 10 -10 10 -14 0
-7 -122 -184 -157 -228 -10 -12 -34 -44 -53 -72 -19 -28 -59 -83 -87 -123 -29
-39 -53 -75 -53 -80 0 -8 35 -58 77 -113 5 -5 62 -84 128 -175 65 -91 121
-167 124 -170 4 -3 11 -13 16 -22 16 -27 158 -221 175 -239 14 -15 22 -14 110
16 52 18 102 35 110 38 8 3 90 31 182 62 185 63 171 63 258 -1 25 -19 50 -37
55 -42 6 -4 71 -51 145 -105 74 -53 190 -137 258 -187 68 -49 125 -90 128 -90
2 0 18 -12 34 -27 l30 -26 -3 -295 -2 -295 230 -74 c127 -41 320 -104 429
-139 109 -35 200 -63 201 -62 6 10 262 346 272 358 7 8 32 40 55 71 l43 55
422 1 422 1 73 -95 c40 -52 85 -109 100 -126 15 -18 30 -40 34 -49 3 -10 9
-18 12 -18 4 0 25 -25 47 -55 22 -30 43 -55 48 -55 4 0 7 -5 7 -11 0 -6 13
-26 29 -44 27 -31 29 -32 60 -19 17 7 34 13 36 13 5 0 652 210 738 239 44 16
48 19 44 44 -2 16 -1 28 2 28 3 0 5 24 3 52 -1 29 -3 151 -5 271 l-3 218 65
46 c36 26 68 51 69 55 2 4 10 8 17 8 7 0 15 4 17 8 2 5 36 33 77 62 41 29 79
57 85 62 6 5 98 72 204 149 l193 140 102 -32 c56 -18 107 -34 112 -38 6 -3 12
-6 15 -7 3 -1 20 -5 38 -9 18 -4 35 -12 38 -16 3 -5 15 -9 28 -9 12 0 26 -3
30 -7 3 -4 12 -8 20 -9 19 -3 138 -44 160 -56 14 -7 23 -5 37 11 10 11 19 23
19 26 0 5 35 55 63 90 4 5 47 64 94 130 48 66 90 122 95 123 4 2 8 8 8 12 0 5
41 64 91 132 118 160 144 200 141 216 -2 7 -23 41 -48 75 -24 34 -70 98 -101
142 -31 44 -65 89 -75 99 -10 11 -18 25 -18 32 0 7 -3 14 -7 16 -5 2 -28 29
-51 61 -36 49 -43 63 -36 85 4 15 8 29 9 32 0 3 25 79 54 170 30 91 74 226 98
300 107 332 94 303 147 315 6 1 18 5 26 8 15 7 450 153 460 155 36 7 35 -2 35
464 l0 452 -100 28 c-55 15 -136 38 -180 49 -44 12 -107 30 -140 40 -33 10
-71 20 -85 23 -50 9 -56 17 -93 134 -21 64 -70 216 -108 337 -39 121 -73 227
-76 235 -3 8 -7 20 -9 25 -1 6 -14 46 -28 89 -14 43 -26 83 -26 89 0 8 31 51
85 114 15 18 22 27 144 178 62 77 116 147 121 156 8 15 -25 69 -113 183 -12
16 -38 52 -57 80 -19 28 -38 53 -42 54 -5 2 -8 10 -8 18 0 8 -3 14 -7 14 -5 0
-19 17 -33 37 -25 36 -112 159 -128 178 -4 6 -36 50 -71 98 -47 66 -67 87 -80
82 -9 -4 -50 -18 -91 -32 -41 -13 -84 -29 -95 -34 -33 -15 -246 -90 -302 -107
-52 -15 -52 -15 -95 14 -24 16 -45 32 -48 35 -3 4 -57 44 -120 89 -63 46 -152
110 -197 144 -46 34 -117 86 -159 116 -42 30 -85 63 -97 73 -11 9 -23 17 -26
17 -3 0 -18 11 -33 25 -26 24 -27 26 -22 127 2 57 6 181 9 276 2 95 7 176 9
181 10 16 -16 26 -224 94 -113 37 -301 98 -418 137 -169 55 -216 67 -226 57
-6 -6 -31 -41 -54 -77 -23 -36 -47 -71 -53 -78 -5 -7 -42 -61 -82 -120 -39
-59 -74 -109 -77 -112 -3 -3 -16 -21 -28 -42 -12 -20 -28 -38 -35 -40 -15 -5
-927 -2 -931 3 -6 9 -272 407 -295 442 -13 20 -32 37 -40 36 -9 0 -74 -20
-146 -44z m1231 -997 c5 -3 36 -8 69 -12 33 -3 74 -9 90 -11 35 -6 171 -33
200 -40 21 -5 98 -24 102 -25 2 0 8 -2 15 -5 7 -2 47 -14 88 -25 187 -54 491
-191 668 -302 67 -42 232 -157 242 -167 3 -4 22 -19 44 -35 63 -47 103 -84
240 -222 132 -133 145 -147 207 -226 18 -23 38 -48 44 -54 6 -6 28 -37 50 -70
22 -32 43 -61 46 -64 3 -3 40 -61 81 -130 155 -259 268 -533 333 -812 38 -162
37 -161 40 -183 1 -11 5 -38 8 -60 31 -190 40 -457 23 -674 -4 -57 -9 -111
-11 -120 -1 -9 -6 -36 -10 -61 -3 -25 -9 -57 -11 -73 -54 -341 -218 -759 -418
-1067 -67 -101 -165 -238 -196 -271 -8 -8 -35 -39 -59 -68 -25 -29 -76 -85
-115 -124 -321 -324 -715 -569 -1140 -711 -118 -39 -314 -91 -386 -101 -24 -4
-47 -8 -50 -10 -3 -2 -34 -6 -70 -10 -36 -4 -74 -9 -84 -11 -47 -9 -202 -17
-321 -17 -206 0 -344 13 -525 48 -69 14 -138 27 -155 30 -32 7 -43 10 -180 51
-165 49 -552 218 -563 246 -2 4 -10 8 -17 8 -14 0 -294 184 -330 217 -12 10
-45 38 -75 62 -213 173 -422 407 -582 651 -33 51 -168 287 -168 295 0 2 -17
41 -39 87 -78 168 -174 464 -202 625 -29 169 -35 210 -46 338 -15 170 -4 503
21 650 2 17 8 48 11 70 4 22 8 45 9 50 3 12 16 72 21 100 2 11 4 20 5 20 1 0
3 7 5 15 1 8 8 35 15 60 7 25 14 52 15 60 8 37 81 244 112 320 3 8 5 18 5 23
-1 4 2 7 8 7 5 0 10 5 10 12 0 25 111 239 193 372 21 35 150 221 156 226 4 3
31 36 61 75 73 93 251 275 347 355 43 36 80 67 83 70 3 3 39 30 80 60 41 30
80 58 85 63 27 21 135 87 144 87 5 0 11 4 13 9 4 14 299 162 393 198 44 17 89
34 100 38 11 5 22 9 25 10 3 0 35 11 71 23 36 12 74 24 85 27 10 2 62 16 114
29 52 14 96 25 98 25 1 0 15 2 30 5 15 3 41 8 57 11 109 17 132 20 245 31 36
3 66 7 68 9 6 5 469 -2 478 -7z"/>
<path d="M2470 5285 c-4 -5 -13 -27 -20 -48 -11 -37 -11 -38 33 -87 59 -66
105 -167 131 -295 6 -26 69 -268 107 -414 17 -63 32 -121 34 -130 2 -9 11 -43
20 -76 9 -33 18 -67 20 -75 2 -8 29 -116 60 -240 31 -124 58 -232 60 -240 2
-8 22 -89 45 -180 23 -91 43 -172 45 -180 2 -8 19 -78 38 -155 59 -236 89
-395 82 -433 -5 -26 -25 -55 -76 -105 -72 -72 -76 -83 -56 -131 l13 -30 453 0
c249 -1 458 2 464 6 7 4 17 27 23 50 9 37 8 47 -9 70 -12 16 -21 45 -22 75 -1
48 33 258 78 473 l24 115 13 -60 c7 -33 14 -64 16 -70 1 -5 7 -35 13 -66 6
-30 14 -69 17 -85 3 -16 12 -63 20 -104 25 -126 29 -212 10 -247 -8 -17 -22
-37 -30 -45 -12 -12 -11 -21 3 -63 l16 -50 452 1 c301 0 456 3 463 10 6 6 13
24 16 39 3 16 7 32 10 36 3 5 -14 27 -37 50 -67 67 -83 129 -65 254 5 28 9 59
10 70 2 11 6 45 10 75 4 30 23 150 43 265 19 116 37 224 39 240 7 39 33 193
39 225 72 383 108 567 129 662 14 64 27 127 30 140 4 23 40 179 53 228 3 14 7
30 8 35 12 50 41 137 56 165 27 50 146 198 175 216 27 19 29 29 12 84 l-13 40
-475 -3 -475 -3 -13 -49 c-14 -47 -13 -50 8 -67 12 -10 28 -35 35 -55 13 -38
13 -44 -10 -183 -8 -47 -17 -107 -21 -135 -3 -27 -8 -59 -10 -70 -2 -11 -13
-81 -24 -155 -12 -74 -23 -146 -25 -160 -4 -27 -23 -148 -30 -190 -50 -333
-60 -390 -68 -370 -3 8 -24 85 -47 170 -23 85 -55 200 -70 255 -15 55 -74 267
-130 470 -140 508 -117 449 -177 453 -42 2 -52 0 -57 -15 -3 -10 -28 -108 -56
-218 -28 -110 -71 -276 -95 -370 -24 -93 -67 -262 -96 -375 -29 -113 -66 -261
-84 -330 l-32 -125 -11 40 c-17 60 -173 786 -187 868 -3 17 -10 48 -15 67 -5
19 -12 51 -15 70 -3 19 -12 69 -20 110 -32 169 -30 198 22 252 25 26 25 29 14
71 l-13 44 -435 -1 c-277 -1 -438 -5 -443 -11z"/>
</g>
</svg>
