<svg xmlns="http://www.w3.org/2000/svg" viewBox="0 0 576 512"><path fill="#6c757d" d="M288 0C146.6 0 32 114.6 32 256s114.6 256 256 256s256-114.6 256-256S429.4 0 288 0zM473.9 283.2L453.4 273.1c-4.293-1.84-7.957-4.891-10.54-8.779l-18-27c-5.371-8.061-5.371-18.56 0-26.62l19.59-29.38c2.32-3.475 5.506-6.283 9.24-8.15c6.854-3.422 14.24-5.463 21.77-6.699C488.5 193.6 496 223.9 496 256c0 12.63-1.314 24.94-3.482 36.96L473.9 283.2zM207.5 64.25l9.383 8.934c4.746 4.52 10.14 8.307 16 11.24C236.4 86.21 240.6 86.6 244.4 85.49C251.4 83.38 256.1 76.93 256 69.66c.0078-6.363 4.828-11.69 11.16-12.33c2.529-.2695 5.051-.4805 7.58-.6504c3.555-.2266 7.033 1.09 9.549 3.609l24.4 24.4c.002 .002-.002 0 0 0c6.246 6.25 6.248 16.38-.002 22.63l-15.02 15.03c-3.121 3.123-3.121 8.186 0 11.31l4.689 4.689c3.123 3.123 3.123 8.186 0 11.31l-8 8C288.9 159.2 286.8 160 284.7 160h-9C273.6 160 271.6 160.9 270.1 162.3L260.2 172C257.7 174.4 257.1 178.2 258.6 181.3l15.59 31.19C274.8 213.6 275.1 214.8 275.1 216.1c.002 4.42-3.578 8.002-7.996 8.006H261.4c-1.932-.0137-3.791-.7246-5.24-2L246.9 214c-4.275-3.711-10.19-4.885-15.56-3.09l-31.17 10.39c-2.906 1.012-5.314 3.1-6.725 5.836c-3.037 5.891-.7246 13.13 5.164 16.16l11.08 5.541C219.1 253.5 229.5 256 240 256c10.52 0 22.59 27.29 32 32h66.76c8.486-.0039 16.63 3.363 22.63 9.359L375.1 311c5.729 5.727 8.941 13.5 8.93 21.6c.0098 12.39-4.93 24.27-13.72 33c-3.9 3.881-7.99 7.949-11.31 11.28c-2.982 2.961-5.131 6.654-6.23 10.71c-1.51 5.66-2.77 11.38-4.77 16.87l-14.11 41.63c-1.957 8.096-8.549 14.18-16.72 15.62c-1.379 .1953-2.732 .4629-4.119 .6309c-.5215 .0664-1.039 .1465-1.562 .209c-.8262 .0996-1.656 .1484-2.488 .1484c-11.6 .002-21-9.4-21-20.1v-13.07c1.689-12.62-7.631-36.25-22.63-51.25C259.4 371.4 255.1 363.2 256 354.8v-32c.0313-11.64-6.277-22.37-16.46-28c-14.37-7.951-34.81-19.06-48.81-26.11C179.3 262.8 168.6 255.5 159.1 246.9L158.3 246.2C151.5 240 145.4 233 140.2 225.4C132.9 214.7 116.3 190 104.6 172.7C103 170.4 102.2 167.8 101.1 165.4C123.1 120.1 160.9 83.88 207.5 64.25z"/></svg>