<svg xmlns="http://www.w3.org/2000/svg" viewBox="0 0 576 512"><path fill="#d5d6d7" d="M554 33.15L384 95.1L212 35.25c-6.5-2.125-13.19-3.249-20.06-3.249c-6.625 0-13.56 .9995-19.94 3.124L20.12 87.1C8 92.75 0 104.6 0 117.6v346.4c0 10.89 10.85 19.02 22 14.84L192 415.1l172 60.75c13 4.25 27 4.375 40 .125l151.9-52.88C568 419.2 576 407.4 576 394.4V48.01C576 37.12 565.2 28.96 554 33.15zM224 90.37l128 45.25v286l-128-45.25V90.37zM48 417.1V129.1l128-44.62v286.3L48 417.1zM528 382.9l-128 44.63V141.2l128-47.25V382.9z"/></svg>