<svg xmlns="http://www.w3.org/2000/svg" viewBox="0 0 512 512"><path d="M389.8 56.49c-41.56-28.35-92.1-40.48-142.4-40.49C234.5 15.1 223.1 26.41 223.1 39.26l0 71.05c0 15.95 10.9 30.72 26.64 33.28c20.06 3.261 37.39-12.13 37.39-31.57V83.14c48.13 8.809 91.06 36.96 118.7 81.6c35.56 57.32 34.37 130.7-2.792 187c-63.63 96.38-195.3 106-272.5 28.81C69.43 318.5 63.47 221.3 113.6 152.4c9.276-12.73 8.662-30.08-2.477-41.22C96.12 96.21 73.86 98.17 61.41 115.4c-67.92 93.8-59.65 226 24.8 310.5c46.8 46.79 108.3 70.21 169.8 70.18c61.49 0 122.1-23.38 169.8-70.18C530.2 321.4 518.2 144.1 389.8 56.49zM239 272.1c4.688 4.688 10.83 7.031 16.97 7.031c6.141 0 12.28-2.344 16.97-7.031c9.375-9.375 9.375-24.56 0-33.94l-79.1-80c-9.375-9.375-24.56-9.375-33.94 0s-9.375 24.56 0 33.94L239 272.1z"/></svg>