<svg xmlns="http://www.w3.org/2000/svg" xml:space="preserve" id="Layer_1" x="0" y="0" style="enable-background:new 0 0 330 326" version="1.1" viewBox="0 0 330 326"><style>.st0{fill-opacity:.953}.st0,.st1{fill:#c6c6c7}</style><path d="m329.2 144-22.2-6.1c-.2-.1-.4-.2-.5-.5l-11.8-36.5c-.1-.2 0-.5.1-.7l14.7-18.1c.2-.3.2-.6 0-.9l-21.6-29.9c-.2-.3-.5-.4-.9-.3l-22 8c-.2.1-.5 0-.7-.1l-30.7-22.4c-.2-.1-.3-.4-.3-.6l.9-23.4c0-.3-.2-.6-.5-.7L199.1.5c-.3-.1-.7 0-.8.3l-13.2 19.3c-.1.2-.4.3-.6.3h-37.9c-.2 0-.5-.1-.6-.3L132.8.7c-.2-.3-.5-.4-.8-.3L97.3 11.6c-.3.1-.5.4-.5.7l.9 23.2c0 .2-.1.5-.3.6l-31 22.4c-.2.1-.5.2-.7.1l-21.8-8.1c-.3-.1-.7 0-.9.3L21.3 80.6c-.2.3-.2.6 0 .9l14.2 19.3c.1.2.2.4.1.7l-11.2 34.2c-.1.2-.2.4-.5.5L1 143.3c-.3.1-.5.4-.5.7l.1 37.8c0 .3.2.6.5.7L24 190c.2.1.4.2.5.5l11 33.5c.1.2 0 .5-.1.7l-14.2 19.7c-.2.3-.2.6 0 .9L43 275c.2.3.5.4.8.3l22.4-7.8c.2-.1.5 0 .7.1l30 21.7c.2.1.3.4.3.6l-.5 23.6c0 .3.2.6.5.7l34.8 11.2c.3.1.6 0 .8-.2l15-19.5c.1-.2.3-.3.6-.3l34.2-.2c.2 0 .5.1.6.3l15.1 19.5c.2.2.5.3.8.2l34.7-11.4c.3-.1.5-.4.5-.7l-.5-23.7c0-.2.1-.5.3-.6l29.8-21.7c.2-.1.4-.2.7-.1l22.5 7.6c.3.1.6 0 .8-.3l21.6-29.9c.2-.3.2-.6 0-.9l-14.2-19.6c-.1-.2-.2-.4-.1-.7l10.8-33.4c.1-.2.2-.4.5-.5l22.8-7.6c.3-.1.5-.4.5-.7v-36.5c0-.2-.3-.4-.6-.5zm-44.4 19v1.5c-.6 35.2-16.5 70.5-48.1 94.5-45 32.8-104.5 31.1-147.7-3.7-27.4-23.4-41.8-52.8-43.5-88.3-2.5-57.5 38.7-109.8 95-121.2 11.2-2.3 22.2-3.1 33-2.4.4 0 .8.1 1.2.1 9.5.7 18.8 2.6 28 5.6h.1l1.8.6c6.5 2.3 12.8 5.1 19.1 8.6.4.2.8.5 1.2.7 40 22.6 60.2 63 60.1 103.7v.3zM89 255.3zM89 255.3z" class="st0"/><path d="M236.7 259c-20 14.9-44.8 23.8-71.7 23.8-66.2 0-119.8-53.6-119.8-119.8S98.8 43.2 165 43.2c2.8 0 5.6.1 8.4.3-10.7-.7-21.7.1-33 2.4C84.2 57.2 43 109.5 45.5 167c1.6 35.5 16.1 64.9 43.5 88.3 43.2 34.9 102.7 36.5 147.7 3.7zM223.5 58.4c-6.3-3.5-12.6-6.3-19.1-8.6 6.7 2.3 13.1 5.2 19.1 8.6zM284.8 164.5c-.5 38.7-19.2 73-48.1 94.5 31.6-24 47.5-59.3 48.1-94.5z" class="st1"/></svg>