<svg xmlns="http://www.w3.org/2000/svg" viewBox="0 0 330 326"><path fill="#cfcfcf" d="M165.99 196.8q-2.16 9.52-3.54 19.19-.45 3.17 1.54 5.44a1.01.99 32.9 0 1 .21.95l-.8 2.65a.99.99 0 0 1-.95.71l-36.98.03a1.01 1.01 0 0 1-.96-.69l-.84-2.61a1.01 1-27 0 1 .37-1.12c4.43-3.17 6.68-5.78 5.31-11.58Q117.9 161.39 107.24 122q-1.41-5.2-5.62-9.24a1.01 1.01 0 0 1-.24-1.1l1.02-2.48a.99.99 0 0 1 .92-.62l34.84-.19a1.01 1-8.6 0 1 .96.7l.76 2.39a1.01 1.01 0 0 1-.36 1.12q-3.16 2.28-2.56 5.42 4.8 25.01 10.56 50.6.73 3.24 1.55.02l14.28-55.81a1 1 0 0 1 .94-.75l2.77-.08a1.01 1 81.5 0 1 .99.74q7.21 26.01 14.22 52.09 2.17 8.07 2.17-.05 0-.79.11-1.52 3.39-21.85 6.77-43.68.67-4.27-1.96-6.64a1 .99-62.6 0 1-.3-.96l.57-2.6a1 .99-84.1 0 1 .96-.79l37.98-.34a.99.98 80.3 0 1 .95.68l.88 2.67a.99.97-31.4 0 1-.26 1.04c-6.15 5.76-8.51 9.6-10.36 17.49q-8.19 34.91-15.02 80.14-1.08 7.17 3.9 11.1a1.02 1 27.3 0 1 .35 1.06l-.76 2.62a1 1 0 0 1-.96.72h-36.65a1 1 0 0 1-.95-.68l-.89-2.66a1.03 1.02-33 0 1 .22-1q2.61-2.82 1.81-7.22-2.08-11.51-3.27-17.38-.74-3.64-1.57-.01Z"/></svg>