<svg xmlns="http://www.w3.org/2000/svg" viewBox="0 0 645.03 710.22"><defs><style>.cls-1{fill:#d7d7d8;stroke-width:0}</style></defs><g><path d="M473.87 156.94c.06-9.49-3.51-9.5-11.4-11.79-5.81-1.69-7.25-4.91-9.04-10.91-5.27-17.67-12.82-33.8-22.65-48.38-8.72-12.94-19.95-23.61-33.67-32.02-5.74-3.52-13.24-6.84-22.52-9.96-9.78-3.3-17.61-5.76-23.5-7.39-.01-.01-.02-.01-.02-.01a.488.488 0 0 0-.59.38l-6.8 31.07c-.04.14-.16.25-.31.27a.332.332 0 0 1-.37-.3c-.12-.99-.17-2.06-.17-3.21.04-21.17.08-38 .1-50.5.01-4.53-.22-8.37-3.94-10.33-4.48-2.37-9.42-3.65-14.82-3.84-6.97-.25-21.53 1.52-22.09 10.69-.22 3.42-.26 22.09-.12 55.99 0 .54-.11 1.07-.32 1.59-.03.06-.09.11-.15.13a.255.255 0 0 1-.33-.15c-3.77-11.11-6.32-22.4-7.64-33.86-.01-.03-.01-.06-.02-.09a.672.672 0 0 0-.81-.49c-31.83 7.72-62.16 25.76-80.49 53.41-9.58 14.44-16.99 30.3-22.25 47.58-1 3.29-2 5.53-2.98 6.71-5.18 6.21-17.05 2.49-17.05 13.45-.01 40.46-.03 66.36-.07 77.71-.01 2.93.94 5.33 2.84 7.21 3.96 3.91 7.6 8.02 10.9 12.34.75.98 1.36 2.12 1.84 3.44.02.07 3.4 8.05 10.12 23.94 8.23 19.44 19.03 36.32 33.69 49.77 24.78 22.73 56.57 35.62 89.7 41.68 1.82.34 3.47.37 4.95.11 24.18-4.38 49.26-12.6 69.76-25.6 25.13-15.94 43.68-38.09 55.66-66.47 3.37-8 5.59-13.5 6.66-16.51 1.23-3.47 2.56-5.81 4.77-8.32 4.37-4.96 8.32-9.52 11.85-13.68a4.92 4.92 0 0 0 1.11-2.68c.18-2.14.27-4.63.27-7.48-.11-42.45-.14-66.95-.1-73.5ZM253.55 270.11c-4.13 3.27-8.64 3.49-13.53.66-4.28-2.49-5.11-6.62-5.11-11.87-.01-15.85-.01-27.04 0-33.58 0-3.38.23-5.76.69-7.14 2.41-7.33 7.24-10.49 14.84-6.95 3.03 1.41 4.51 3.9 4.43 7.46-.38 16.06 1.06 31.31 1.4 45.24.06 2.54-.61 4.51-2.72 6.18Zm42.75 21.02c-5.24.64-12.5-.09-13.23-6.74-.6-5.52-.97-13.01-1.11-22.45-.12-8.08-.03-18.96.29-32.62.1-4.74.46-8.39 1.07-10.93 1.7-7.2 10.27-10.19 16.04-5.88 3.98 2.96 4.58 7.92 4.56 13.4-.08 19.12.09 37.22.5 54.28.13 5.63-2.02 10.18-8.12 10.94Zm64.96-8.95c-.03 3.98-1.21 8.08-5.95 8.59-4.87.52-11.77.28-14.37-4.39-.57-1.02-.82-2.86-.74-5.51.55-20.2.71-40.09.49-59.65-.08-7.15 3.94-11.21 11.04-10.64 8.12.64 9.28 8.42 9.41 15.62.24 13.13.28 31.79.12 55.98Zm47.77-21.74c-.01 3.51-1.03 6.99-4.09 9.18-3.7 2.65-7.93 4.11-12.11 2.34-4.23-1.8-6.21-5.22-5.95-10.26 1.28-24.94 2.01-39.37 2.18-43.28.23-5.38 3.77-7.39 8.64-8.45 1.97-.43 3.8-.16 5.48.82 3.86 2.24 5.8 5.79 5.82 10.65.03 12.08.04 25.08.03 39Zm18.94-75.88c-1.18-.13-2.7-.48-4.54-1.04-26.13-8.02-50.97-15.55-74.51-22.6a732.65 732.65 0 0 0-26.58-7.47 6.058 6.058 0 0 0-3.19.01c-8.14 2.19-13.6 3.71-16.38 4.57-31.9 9.75-59.43 18.15-82.59 25.21-7.76 2.37-17.83 3.12-18.38-8.04-.38-7.9 2.38-10.14 9.52-12.59 37.52-12.86 69.84-23.97 105.87-34.61 3.02-.89 4.59-1.15 7.78-.2 33.52 10.01 69.14 21.66 106.88 34.96 6.07 2.14 10.38 4.3 10.14 10.9-.35 9.39-5.02 11.84-14.02 10.9ZM153.21 316.85c.13-.06.28-.01.35.12 0 0 0 .02.01.02 6.65 18.08 10.52 36.47 11.61 55.17.7 12.06-.65 25.83-4.04 41.3-7.09 32.36-27.14 60.46-54.68 79.05-1.29.87-2.59 1.48-3.9 1.81-.4.1-.81.12-1.21.07a452.884 452.884 0 0 1-88.33-20.56c-4.43-1.51-8.51-3.16-12.22-4.93-.56-.27-.88-.87-.78-1.48 2-13.27 3.79-24.35 5.37-33.24 1.97-11.05 5.02-21.09 9.15-30.1 9.44-20.58 27.27-38.05 47.55-48.97 19.62-10.56 42.1-15.17 65.05-19.42 2.85-.53 4.2-1.32 6.24-3.61 5.74-6.45 12.35-11.53 19.83-15.23ZM490.87 316.93c.2-.27.56-.35.85-.18 8.21 4.66 15.14 10.42 20.79 17.28.54.66 1.31 1.1 2.16 1.23 34.23 5.26 65.61 14.25 90.47 37 11.07 10.13 19.31 22.79 24.72 37.99 6.93 19.44 11.09 38.82 15.15 56.93.12.53-.18 1.08-.7 1.26-14.36 5.02-30.54 10.04-48.55 15.06-17.17 4.79-34.89 8.41-53.15 10.88a5.57 5.57 0 0 1-3.63-.76 84.306 84.306 0 0 1-9.93-7.09c-11.81-9.78-22.77-21.57-30.86-34.86-15.04-24.69-22.16-57.57-19.07-86.48 1.56-14.65 5.14-29.99 10.75-46.02.39-1.11.72-1.85 1-2.24Z" class="cls-1"/><path d="M211.11 343.59c12.94 13.31 27.84 24.26 44.93 32.48 20.61 9.91 42.15 16.85 64.63 20.81 1.26.22 2.61.18 4.04-.11 34.79-7.18 72.02-19.36 98.63-43.88 4.75-4.38 8.1-7.45 10.05-9.2.19-.18.49-.19.71-.02l20.71 16.59c.3.24.46.63.4 1.02-1.75 11.2-2.15 19.9-2.85 35.68-.04.93-.81 1.98-2.3 3.15-16.31 12.77-31.03 23.04-44.18 30.81-25.72 15.2-52.77 25.83-81.05 35.68-2.56.89-4.17 1.07-6.71.19-37.25-12.97-67.81-25.22-96.23-45.85-8.15-5.92-17-12.89-26.57-20.92a39.01 39.01 0 0 1-3.4-3.2 3.742 3.742 0 0 1-1.01-2.68c.34-10.85-.31-21.5-1.95-31.95-.14-.9.2-1.8.91-2.38l20.09-16.29a.85.85 0 0 1 1.15.07Z" class="cls-1"/><path d="M458.74 425.31c3.33 12.15 7.66 23.51 13 34.08 5.9 11.69 13.33 21.42 22.31 30.07 2.9 2.81 3.2 4.64 2.77 8.72-1.15 10.95-1.08 21.91.21 32.88.89 7.62 1.91 15.33 3.05 23.14 1.41 9.63-.14 16.74-2.03 28.28-.41 2.48-3.46 20.55-9.15 54.2-.72 4.27-8.27 7.64-12.41 9.84-7.67 4.09-14.9 7.7-21.7 10.82-15.71 7.2-33.37 15.45-52.34 23.01-29.08 11.59-52.55 21.3-78.85 29.54-1.63.51-3.51.44-5.64-.21-8.52-2.61-15.74-5.08-21.65-7.4-1.03-.41-17.62-6.99-49.76-19.76-29.33-11.66-58.27-25.04-86.82-40.14-2.92-1.55-4.6-3.61-5.03-6.2-2.71-16.09-5.93-35.82-9.68-59.18-1.25-7.73-2.56-14.82-1.45-22.37 1.45-9.8 2.51-17.4 3.2-22.81 1.47-11.59 1.6-24.14.41-37.63-.08-.89.47-1.99 1.65-3.32 5.59-6.29 8.65-9.74 9.18-10.35 13.46-15.5 22.47-34.71 27.24-54.82.07-.33.4-.53.74-.46.09.02.17.06.24.12 11.36 9.08 18.96 15.69 27.5 21.21 15.58 10.09 32.1 19.33 49.56 27.74 5.63 2.71 14.26 6.15 25.91 10.32 14.71 5.26 24.8 8.76 30.26 10.51 1.28.41 2.58.41 3.9 0 14.4-4.54 30.41-10.27 48.04-17.19 8.05-3.16 15.04-6.34 20.96-9.55 18.03-9.75 31.75-17.35 46.59-28.68 6.39-4.88 12.76-9.76 19.1-14.64.19-.15.47-.11.62.08.03.04.06.09.07.15ZM522.93 515.5a.45.45 0 0 1 .49-.41c.06 0 .12.02.17.05l11.42 6.16c.44.23.93.33 1.43.28 24.22-2.75 50.89-8.62 72.64-14.25.83-.21 2.17-.46 4-.73.5-.07.97.28 1.04.78 1.61 11.31 3.43 23.36 5.48 36.16 1.7 10.59 3.27 18.95 4.71 25.07 1.28 5.43-.96 7.08-5.63 9.08-5.17 2.21-12.28 4.78-21.33 7.69-10.47 3.37-28.48 8.62-54.01 15.73-10.1 2.81-11.33-4.43-12.34-11.7-.36-2.58-2.79-20.36-7.28-53.35-1.01-7.44-1.23-13.75-.79-20.56ZM121.64 515.33c-.02 4.33-.34 9.03-.96 14.11-2.32 19.08-4.82 38.16-7.5 57.25-.63 4.47-1.45 8.07-2.48 10.78-1.78 4.72-5.86 4.74-10.27 3.65-1.4-.35-11.56-3.17-30.48-8.47-16.43-4.6-31.88-9.87-46.37-15.8-3.3-1.35-4.66-3.58-4.07-6.68 1.55-8.2 3.4-16.26 4.7-24.93 2.26-15.14 4.11-27.73 5.54-37.78.07-.51.55-.87 1.06-.8.04 0 .07.01.11.02a699.68 699.68 0 0 0 75.98 15.55c3 .44 11.96-5.78 14.15-7.23.17-.12.41-.07.53.11.04.07.07.14.06.22Z" class="cls-1"/></g></svg>