<svg xmlns="http://www.w3.org/2000/svg" data-name="Layer 2" viewBox="0 0 160.1 160.1"><path d="M80.05 0C35.84 0 0 35.84 0 80.05c0 22.1 8.96 42.12 23.45 56.6 14.48 14.49 34.49 23.45 56.6 23.45 44.21 0 80.05-35.84 80.05-80.05S124.26 0 80.05 0Zm34.21 129.26s-.02.03-.04.04c-24.06 16.37-55.77 13.87-76.51-6.92-20.74-20.79-23.17-52.51-6.75-76.53a.37.37 0 0 1 .52-.09c.01 0 .03.03.04.04 1.89 1.88 15.69 15.7 41.39 41.46 25.7 25.76 39.49 39.59 41.36 41.48.14.15.14.38 0 .52Zm15.05-15.13c-.12.17-.35.21-.51.1-.02-.02-.04-.03-.06-.05-1.89-1.87-15.72-15.64-41.48-41.31C61.49 47.2 47.67 33.42 45.79 31.53a.374.374 0 0 1 .01-.52c.02-.02.03-.03.05-.04 23.99-16.43 55.69-14.02 76.48 6.69 20.8 20.72 23.31 52.42 6.98 76.47Z" data-name="Layer 1" style="fill:#fff;stroke-width:0"/></svg>