<svg xmlns="http://www.w3.org/2000/svg" data-name="Layer 2" viewBox="0 0 369.04 276.28"><path d="M351.85 99.15c-8.21-23.01-20.08-46.69-35.63-71.06-2.78-4.36-3.62-5.7-8.2-7.42-21.64-8.11-43.15-14.59-64.54-19.44-2.53-.57-4.6-.98-6.23-1.21-.81-.11-1.6.3-1.97 1.03l-9.3 18.61c-.06.12-.19.19-.32.17-13.35-2.19-27.07-3.28-41.15-3.28s-27.79 1.09-41.15 3.28a.296.296 0 0 1-.31-.17l-9.3-18.61a1.915 1.915 0 0 0-1.97-1.03c-1.63.23-3.7.64-6.23 1.21-21.39 4.85-42.9 11.33-64.54 19.44-4.58 1.72-5.42 3.06-8.2 7.42-15.55 24.37-27.42 48.05-35.63 71.06C2.45 140.46-2.81 183.42 1.4 228.02c.15 1.52.74 2.67 1.79 3.44 25.33 18.68 55.36 34.51 86.34 43.67 3.9 1.15 6.09 2.42 8.68-1.51 5.73-8.69 11.37-17.87 16.91-27.56.02-.03.03-.06.05-.1.11-.3-.05-.63-.35-.74a178.47 178.47 0 0 1-30.14-14.43.078.078 0 0 1-.04-.04.168.168 0 0 1 .02-.25l6.92-5.87c.14-.12.34-.14.49-.05 23.83 13.62 52.58 18.88 80.2 20.11 5.57.25 9.65.38 12.24.38s6.68-.13 12.25-.38c27.62-1.23 56.37-6.49 80.2-20.11.15-.09.35-.07.49.05l6.92 5.87.04.04c.05.09.02.2-.06.25a178.47 178.47 0 0 1-30.14 14.43.58.58 0 0 0-.3.84c5.54 9.69 11.18 18.87 16.91 27.56 2.59 3.93 4.78 2.66 8.68 1.51 30.98-9.16 61.01-24.99 86.34-43.67 1.05-.77 1.64-1.92 1.79-3.44 4.21-44.6-1.05-87.56-15.78-128.87ZM123 188.61c-18.12 0-32.81-16.18-32.81-36.14s14.69-36.14 32.81-36.14 32.81 16.18 32.81 36.14-14.69 36.14-32.81 36.14Zm123.09 0c-18.11.03-32.83-16.12-32.86-36.07-.03-19.96 14.62-36.16 32.74-36.19 18.11-.03 32.83 16.12 32.86 36.07.03 19.96-14.62 36.16-32.74 36.19Z" data-name="Layer 1" style="fill:#fff;stroke-width:0"/></svg>