<svg xmlns="http://www.w3.org/2000/svg" viewBox="0 0 140.1 160.02"><defs><style>.cls-1{fill:#d7d7d8;stroke-width:0}</style></defs><g id="Layer_1-2" data-name="Layer 1"><path d="M70.04 0c3.01 0 5.35.84 7.03 2.52 12.36 12.37 24.79 24.78 37.28 37.22 2.92 2.9 4.62 5 5.09 6.29 1 2.72.92 5.48-.24 8.28-2.66 6.43-11.61 7.63-16.42 2.86C96.55 51 89.13 43.49 80.5 34.66a.269.269 0 0 0-.47.19c-.03 5.87-.03 26.43.02 61.69 0 4.3-.32 7.05-.98 8.26-1.79 3.29-5.05 5.21-9.02 5.21s-7.23-1.92-9.02-5.21c-.66-1.21-.99-3.96-.98-8.26.04-35.26.04-55.82 0-61.69 0-.15-.11-.27-.26-.28-.08 0-.16.03-.21.09-8.62 8.84-16.04 16.35-22.27 22.52-4.81 4.77-13.76 3.57-16.42-2.86-1.16-2.8-1.24-5.56-.24-8.28.47-1.29 2.17-3.39 5.08-6.29C38.22 27.31 50.65 14.9 63.01 2.52 64.69.84 67.03 0 70.04 0Z" class="cls-1"/><path d="M70.05 140h38.91c4.53 0 7.8-1.72 9.8-5.15 1.07-1.85 1.52-5.66 1.35-11.43-.1-3.41-.1-8.2.01-14.35.12-6.83 7.28-10.61 13.51-8.49 3.17 1.09 5.25 3.42 6.24 7 .08.29.12.59.12.9 0 8.94.02 14.26.07 15.97.19 6.71-.27 11.69-1.38 14.94-4.21 12.34-15.5 20.73-28.72 20.63-3.49-.03-16.8-.04-39.91-.04s-36.42.01-39.91.04c-13.22.1-24.51-8.29-28.72-20.63-1.11-3.25-1.57-8.23-1.38-14.94.05-1.71.08-7.03.07-15.97 0-.31.04-.61.12-.9.99-3.58 3.07-5.91 6.24-7 6.23-2.12 13.39 1.66 13.51 8.49.11 6.15.11 10.94 0 14.35-.17 5.77.28 9.58 1.35 11.43 2 3.43 5.27 5.14 9.8 5.15h38.91Z" class="cls-1"/></g></svg>