<svg xmlns="http://www.w3.org/2000/svg" viewBox="0 0 576 512"><path fill="#d5d6d7" d="M323.9 64C231.7 64 160.3 125.5 126.4 161.7L65.05 112.5C52.3 101.4 34.61 99.63 20.08 107.1C5.299 116.4-2.482 133.4 .9551 151.4L25.74 256l-25.03 105.6c-3.188 16.91 4.625 33.95 19.41 42.41c14.53 8.375 32.16 6.578 44.06-3.828l62.13-49.88C160.3 386.5 231.7 448 323.9 448C462.6 448 576 303 576 256S462.6 64 323.9 64zM323.9 400c-70.97 0-137.5-50.58-176.1-97.92L132.7 283.6l-79.31 63.67L75.05 256L53.39 164.7L132.8 228.4l15.06-18.5C186.4 162.6 252.8 112 323.9 112c110.3 0 201.5 120.4 204.2 143.5C525.4 279.6 434.2 400 323.9 400zM416 224c-17.67 0-32 14.33-32 32c0 17.67 14.33 32 32 32s32-14.33 32-32C448 238.3 433.7 224 416 224z"/></svg>