<svg xmlns="http://www.w3.org/2000/svg" viewBox="0 0 179.97 139.99"><defs><style>.cls-1{fill:#d7d7d8;stroke-width:0}</style></defs><g id="Layer_1-2" data-name="Layer 1"><path d="M49.97 0c24.9 0 37.88.02 38.93.06.38.01.75.06 1.12.14 5.18 1.19 8.47 4.52 9.86 9.98.04.17.06.34.06.51v20.73c0 .4-.06.79-.19 1.17-3.43 10.22-16.9 10.13-19.72-.66a.555.555 0 0 1-.03-.17V20.59c0-.33-.26-.6-.59-.6H60.57c-.35 0-.63.29-.63.64v98.67c0 .36.28.65.64.67 1.76.07 5.11.08 10.04 0 3.87-.05 7.82 2.97 8.92 6.86 1.38 4.91-.43 9.98-5 12.26-1.11.55-3.27.84-6.47.87-.99.01-7.02.02-18.1.02s-17.12 0-18.11-.02c-3.19-.03-5.35-.32-6.46-.87-4.57-2.28-6.38-7.35-5-12.26 1.1-3.89 5.05-6.91 8.92-6.86 4.93.07 8.28.06 10.04 0a.67.67 0 0 0 .64-.67V20.63c0-.35-.28-.64-.63-.64H20.53c-.33 0-.59.27-.59.6v11.17c0 .05-.01.11-.03.17-2.82 10.79-16.29 10.88-19.72.66-.13-.38-.19-.77-.19-1.17V10.69c0-.17.02-.34.06-.51C1.45 4.72 4.74 1.39 9.92.2c.37-.08.74-.13 1.12-.15C12.09.02 25.07 0 49.97 0Z" class="cls-1"/><path d="M129.96 60h35.06c4.22.04 7.04.49 8.46 1.36 4.93 2.99 6.67 7 6.48 13.31-.02.51-.04 5.94-.05 16.3 0 3.09-1.55 5.62-4.64 7.58-5.16 3.27-11.88 1.25-14.58-4.42-1.39-2.92-.61-9.6-.7-13.52a.634.634 0 0 0-.64-.62h-18.81c-.34 0-.61.27-.61.61v38.7c0 .33.27.6.61.61 5.81.04 9 .07 9.56.1 13.18.55 13.09 19.29.53 19.97-.09 0-6.98.01-20.67.01s-20.57 0-20.66-.01c-12.56-.68-12.65-19.42.53-19.97.56-.03 3.75-.06 9.56-.1.34 0 .61-.28.61-.61V80.6c0-.34-.27-.61-.61-.61h-18.81c-.35 0-.63.27-.64.62-.09 3.92.69 10.6-.7 13.52-2.7 5.67-9.42 7.69-14.58 4.42-3.09-1.96-4.63-4.49-4.64-7.58-.01-10.36-.03-15.79-.05-16.3-.19-6.31 1.55-10.32 6.48-13.31 1.42-.87 4.24-1.32 8.45-1.35.42 0 12.11-.01 35.06-.01Z" class="cls-1"/></g></svg>