<svg xmlns="http://www.w3.org/2000/svg" data-name="Layer 2" viewBox="0 0 512 499.26"><path d="M512 248.59v11.78c-.51 6.68-.68 14.14-1.25 20.02-2.53 26.15-8.83 51.12-18.89 74.9-10.69 25.29-24.85 48.04-42.47 68.26-9.29 10.68-18.45 19.91-30 29.5-23.56 19.54-49.87 34.44-78.93 44.71-2.27.8-4.07 1.27-5.41 1.41-5.93.6-11.65-1.59-14.06-7.31-.75-1.79-1.1-5.52-1.04-11.21.29-26.82.39-48.74.3-65.76-.09-16.73-4.52-33.9-16.73-45.62a.338.338 0 0 1 0-.49c.06-.06.14-.1.22-.11 24.34-2.33 49.96-8.68 70.23-22.1 16.55-10.95 28.56-26.01 36.04-45.17 6.89-17.68 9.11-35.5 9.73-55.24.73-23.31-5.32-44.16-18.16-62.53-2.34-3.35-5.97-7.34-7.67-9.55-.2-.26-.26-.6-.16-.91 1.59-4.88 2.48-7.22 3.11-11.56.74-5.1 1.7-9.38 1.81-14.02.33-14.11-2.19-27.83-7.57-41.15-.12-.3-.38-.52-.69-.6-3.56-.94-7.42-.18-12.7.29-2.85.25-5.98.9-9.39 1.95-6.18 1.91-11.14 3.74-14.88 5.51-8.23 3.87-14.01 6.84-17.35 8.9-5.13 3.16-10.11 6.27-14.94 9.32-.29.18-.64.24-.97.18-4.88-1-12.09-3.07-18.48-4.25-30.29-5.62-60.56-5.57-90.83.14-5.99 1.13-12.07 2.82-17.73 4.09-.33.07-.67.01-.95-.16-8.49-5.24-14.05-8.98-21.91-13.03-2.23-1.16-5.05-2.55-8.45-4.16-6.9-3.29-14.24-5.88-22.03-7.79-1.3-.32-5.56-.78-12.77-1.39-1.23-.11-2.4.18-3.9.26-.38.02-.72.26-.86.61-5.17 12.84-7.72 26.01-7.65 39.52.03 6.06 1.31 12.16 2.21 18.06.46 3.07 1.93 6.39 2.67 9.39.09.36 0 .75-.25 1.02-16.91 19.01-25.46 41.46-25.66 67.37-.12 15.8 1.52 31.73 5.56 47.1 3.37 12.81 8.69 24.32 15.94 34.51 8.11 11.4 18.67 20.67 31.69 27.82 18.82 10.33 41.01 15.47 62.37 17.58a.48.48 0 0 1 .28.83c-9.01 8.58-13.81 20.4-15.45 32.53-.07.58-.44 1.08-.98 1.32-13.63 6.14-30.58 8.66-44.54 3.96-12.71-4.28-21.79-13.24-29.07-24.75-4.15-6.56-9.46-12.49-15.91-17.8-8.31-6.83-17.74-9.7-28.27-8.62-.97.1-1.91.31-2.82.62-1.64.55-2.55.9-2.72 1.04-6.91 5.41 10.99 15.28 14 17.66 2.88 2.28 6.02 5.81 9.43 10.58 5.21 7.29 9.43 14.58 12.66 21.88 2.87 6.49 5 10.64 6.39 12.45 5.79 7.55 12.59 12.9 20.41 16.03 18.09 7.23 39.88 6.29 59.22 2.57.24-.04.47.11.51.35v.08c.07 12.59.18 28.32.31 47.2.04 6.64-4.32 11.66-11 12.34-3.21.33-5.45.27-6.71-.17-52.5-18.34-94.56-49.26-126.17-92.77-26.71-36.76-42.48-78.25-47.33-124.46C.7 274.98.54 267.63 0 260.63v-11.92c.55-9.02.93-14.72 1.16-17.11 3.37-34.8 13.28-67.33 29.75-97.59 31.92-58.67 85.5-103 149.5-122.68 52.1-16.02 108.41-15.02 159.81 2.83 59.97 20.83 110.08 63.51 140.69 119.51 16.57 30.31 26.55 62.95 29.93 97.92.23 2.32.61 7.99 1.16 17Z" data-name="Layer 1" style="fill:#fff;stroke-width:0"/></svg>