<svg xmlns="http://www.w3.org/2000/svg" viewBox="0 0 139.96 139.96"><path d="M120.19 0H19.77C8.85 0 0 8.85 0 19.77v100.42c0 10.92 8.85 19.77 19.77 19.77h100.42c10.92 0 19.77-8.85 19.77-19.77V19.77C139.96 8.85 131.11 0 120.19 0ZM69.98 114.92c-5.48 0-9.93-4.45-9.93-9.93s4.45-9.93 9.93-9.93 9.93 4.45 9.93 9.93-4.45 9.93-9.93 9.93Zm24.83-57.68c-.8 10.1-7.38 16.68-16.78 20.85-.32.14-.55.44-.62.78-.01.05-.07.64-.17 1.75-.16 1.79-1.1 3.33-2.82 4.62-5.55 4.18-11.97-.36-11.99-6.8-.01-6.41 2.8-10.9 8.43-13.49 3.99-1.83 7.9-2.77 8.95-7.77 2.5-11.8-13.15-17.14-19-6.56-.88 1.6-.76 3.92-1.08 5.92-.03.23-.1.46-.19.67-2.84 6.85-11.11 6.83-14.14.03-.15-.33-.23-.69-.26-1.05-1.12-16.82 15.59-29.76 31.48-25.18 11.6 3.34 19.14 14.12 18.19 26.23Z" style="fill:#d5d6d7"/></svg>