<svg xmlns="http://www.w3.org/2000/svg" viewBox="0 0 160.31 160.04"><path d="M154.98 65.75c-29.81-27.63-52.13-48.38-66.96-62.23C85.51 1.17 82.89 0 80.16 0s-5.35 1.17-7.86 3.52C57.47 17.37 35.15 38.11 5.33 65.74 1.29 69.47-1.12 73.01.52 78.23c.87 2.77 2.91 4.85 6.11 6.24 2.26.97 5.13.41 7.96.53.32.01.58.28.58.6.04 25.65.03 42.18-.03 49.61-.05 5.58.25 9.24.88 10.98 3.06 8.4 10.38 13.97 19.45 13.84 1.03-.01 15.92-.02 44.68-.02s43.64 0 44.67.03c9.07.13 16.39-5.44 19.46-13.84.63-1.74.93-5.4.88-10.98-.06-7.43-.07-23.96-.02-49.61 0-.32.26-.59.58-.6 2.83-.12 5.7.44 7.96-.53 3.2-1.38 5.24-3.46 6.11-6.23 1.64-5.22-.77-8.76-4.81-12.5Zm-54.75 78.76c0 .27-.22.49-.49.49H60.6a.49.49 0 0 1-.49-.49v-28.5c0-8.86 6.97-16.05 15.56-16.05h9c8.59 0 15.56 7.19 15.56 16.05v28.5Z" style="fill:#d7d7d8;stroke-width:0"/></svg>