<svg xmlns="http://www.w3.org/2000/svg"  viewBox="0 0 140.03 160"><defs><style>.cls-1{fill:#d7d7d8;stroke-width:0}</style></defs><g id="Layer_1-2" data-name="Layer 1"><path d="M70.01 0c27.14 0 41.69.02 43.65.06 2.19.05 5.1.9 8.71 2.55 7.89 3.6 13.33 9.65 16.34 18.16.92 2.61 1.36 6.64 1.31 12.1-.07 8.65-.08 13.7-.02 15.17.11 2.93-.16 5.03-.8 6.3-3.72 7.33-14.32 7.84-18.18.45-.69-1.31-1.03-3.52-1.02-6.63.01-7.55.03-11.62.05-12.23.21-5.56-.28-9.24-1.45-11.03-2.11-3.26-5.34-4.9-9.68-4.92H31.09c-4.33.02-7.56 1.66-9.67 4.92-1.17 1.79-1.66 5.47-1.45 11.03.02.61.04 4.68.05 12.23 0 3.11-.33 5.32-1.02 6.63-3.86 7.39-14.46 6.88-18.18-.45-.64-1.27-.91-3.37-.8-6.3.06-1.47.05-6.52-.02-15.17-.05-5.46.39-9.49 1.31-12.1C4.32 12.26 9.77 6.21 17.65 2.61 21.27.96 24.17.11 26.36.06 28.32.02 42.87 0 70.01 0Z" class="cls-1"/><path d="M70.01 50c3.69 0 6.73 1.66 8.56 4.48 1.11 1.72 1.6 4.49 1.46 8.31-.07 1.79-.08 22.58-.03 62.37 0 .13.1.24.24.24.07 0 .13-.03.18-.07 11.47-11.57 18.24-18.42 20.29-20.57 2.4-2.51 4.47-4 6.2-4.45 6.01-1.54 12.05 1.5 12.97 7.95.87 6.13-1.99 8.39-6.62 13.01-11.93 11.93-23.98 23.97-36.15 36.13-1.74 1.73-4.11 2.6-7.1 2.6s-5.37-.87-7.11-2.6c-12.17-12.16-24.22-24.2-36.15-36.13-4.63-4.62-7.49-6.88-6.62-13.01.92-6.45 6.96-9.49 12.97-7.95 1.73.45 3.8 1.94 6.2 4.45 2.05 2.15 8.82 9 20.29 20.57.1.09.26.1.35 0 .05-.05.07-.11.07-.17.05-39.79.04-60.58-.03-62.37-.14-3.82.35-6.59 1.47-8.31 1.82-2.82 4.86-4.48 8.56-4.48Z" class="cls-1"/></g></svg>