<svg xmlns="http://www.w3.org/2000/svg" viewBox="0 0 512 512"><path fill="#d5d6d7" d="M480 288h-160C302.3 288 288 302.3 288 320s14.33 32 31.1 32H480c17.67 0 32-14.33 32-32S497.7 288 480 288zM480 416h-160C302.3 416 288 430.3 288 448s14.33 32 31.1 32H480c17.67 0 32-14.33 32-32S497.7 416 480 416zM480 160h-160C302.3 160 288 174.3 288 191.1S302.3 224 319.1 224H480c17.67 0 32-14.33 32-31.1S497.7 160 480 160zM480 32h-160C302.3 32 288 46.33 288 63.1S302.3 96 319.1 96H480c17.67 0 32-14.33 32-31.1S497.7 32 480 32zM192 288H31.1C14.33 288 0 302.3 0 320s14.33 32 31.1 32H192C209.7 352 224 337.7 224 320S209.7 288 192 288zM192 416H31.1C14.33 416 0 430.3 0 448s14.33 32 31.1 32H192C209.7 480 224 465.7 224 448S209.7 416 192 416zM192 32H31.1C14.33 32 0 46.33 0 63.1S14.33 96 31.1 96H192C209.7 96 224 81.67 224 64S209.7 32 192 32zM192 160H31.1C14.33 160 0 174.3 0 191.1S14.33 224 31.1 224H192C209.7 224 224 209.7 224 192S209.7 160 192 160z"/></svg>