<svg xmlns="http://www.w3.org/2000/svg" viewBox="0 0 512 512"><path fill="#d7d7d8" d="M80 48h-64C7.156 48 0 55.16 0 64v64c0 8.844 7.156 16 16 16h64C88.84 144 96 136.8 96 128V64C96 55.16 88.84 48 80 48zM80 208h-64C7.156 208 0 215.2 0 224v64c0 8.844 7.156 16 16 16h64C88.84 304 96 296.8 96 288V224C96 215.2 88.84 208 80 208zM80 368h-64C7.156 368 0 375.2 0 384v64c0 8.844 7.156 16 16 16h64C88.84 464 96 456.8 96 448v-64C96 375.2 88.84 368 80 368zM192 128h288c17.67 0 32-14.33 32-31.1S497.7 64 480 64H192C174.3 64 160 78.33 160 95.1S174.3 128 192 128zM480 384H192c-17.67 0-32 14.33-32 32s14.33 32 32 32h288c17.67 0 32-14.33 32-32S497.7 384 480 384zM480 224H192C174.3 224 160 238.3 160 256s14.33 32 32 32h288c17.67 0 32-14.33 32-32S497.7 224 480 224z"/></svg>