<svg xmlns="http://www.w3.org/2000/svg" id="Layer_2" data-name="Layer 2" viewBox="0 0 187.81 161.55"><defs><style>.cls-1{fill:#fff;stroke-width:0}</style></defs><g id="Layer_1-2" data-name="Layer 1"><path d="M125.81 149.89c-.2-1.18-1.12-3.17-2.75-5.98C93.25 92.74 76.8 64.47 73.72 59.09c-1.59-2.79-2.97-4.69-4.12-5.69-1.83-1.59-4-2.38-6.53-2.39-2.53 0-4.72.79-6.55 2.38-1.15 1-2.52 2.89-4.12 5.68-3.09 5.37-19.59 33.62-49.49 84.74-1.64 2.8-2.56 4.79-2.76 5.97-.9 5.2 2.36 10.17 7.49 11.57.1.03.2.05.3.06.53.05 18.87.09 55.03.12s54.5.03 55.03-.02c.1-.01.2-.03.3-.06 5.13-1.39 8.4-6.36 7.51-11.56Zm-46.02-48.38s-.1.04-.15.04H67.62a.35.35 0 0 0-.24.1l-14.23 14.23c-.13.12-.33.12-.46 0l-9.47-9.47a.32.32 0 0 1-.05-.4l19.52-33.82a.33.33 0 0 1 .58 0l16.65 28.87c.09.16.03.36-.13.45ZM187.59 78.83c0-.41-.06-.95-.18-1.63-.12-.66-.53-.91-1.15-.93-4.82-.22-9.29-.23-13.4-.03-.26.01-.52.06-.78.14l-.69.22c-.1.03-.18.1-.22.19-.13.26-.2.55-.21.85-.06 2.95-.08 6.23-.07 9.83 0 .75-.1 1.27-.3 1.57-.26.38-.49.58-.7.62-1.87.26-3.9.29-6.08.1-1.54-.13-1.4-1.12-1.45-2.51-.07-2.39-.15-5.53-.24-9.45 0-.3-.12-.66-.35-1.08a.473.473 0 0 0-.26-.22c-.55-.18-.99-.28-1.32-.29-1.87-.08-5.13-.1-9.75-.07-.69 0-1.04-.38-1.04-1.16V53.79c0-3.37.03-6.36.12-8.98.06-1.88.2-3.41.42-4.57.42-2.26 1.66-3.91 3.09-5.81.85-1.14 3.87-5.26 9.05-12.36 1.01-1.38 1.65-2.43 1.92-3.17.42-1.12.63-2.34.65-3.64.05-4.77.05-9.61 0-14.53 0-.24-.14-.45-.35-.55-.24-.12-.63-.17-1.15-.17-2.78 0-8.9 0-18.36.01-.87 0-1.88.03-3.02.09-.2.01-.36.17-.36.37-.06 3.61-.07 8.09-.03 13.43 0 .29-.04.65-.13 1.1-.02.12-.11.22-.23.27-.32.11-.59.17-.8.18-4.03.17-7.98.22-11.84.15-.86-.02-1.29-.46-1.28-1.34.01-2.5.02-6.88 0-13.14 0-.74-.37-1.11-1.12-1.11-9.29-.01-16.38 0-21.26.02-.62 0-1.39.04-2.31.1a.41.41 0 0 0-.39.42V14.7c0 .33-.24.62-.57.68-.6.11-1.25.18-1.94.19-3.68.08-6.81.09-9.39.03-.78-.02-1.46-.1-2.05-.26a.688.688 0 0 1-.5-.55c-.07-.45-.1-.88-.1-1.3 0-6.15.01-9.94.02-11.38 0-.62-.05-1.1-.15-1.45a.867.867 0 0 0-.83-.63C81.03 0 75.83 0 70.91.03c-.4 0-.83.07-1.29.19-.09.02-.16.09-.18.19-.04.16-.05.45-.06.88-.04 5.07-.04 10.21 0 15.42 0 1.13.27 2.1.8 2.92 3.24 5.08 8.04 11.41 11.55 16.3 2.11 2.95 3.28 6.12 3.49 9.51.06.92.1 2.2.14 3.84.02 1.09.37 2.22 1.06 3.41 6.48 11.24 12.76 21.59 19.26 32.75 20.03 34.4 31.49 54.06 34.37 58.98 2.33 3.99 3.38 8.32 3.15 12.98-.06 1.18-.12 2.23-.16 3.16-.03.56.25.84.84.84 13.54.04 27.93.04 43.17 0 .32 0 .6-.23.66-.55.07-.34.1-.85.1-1.53 0-2.03-.07-28.86-.22-80.49Zm-62.51-2.68-17.07.09c-.57 0-1.03-.46-1.03-1.02s-.07-13.34-.07-13.34c-.03-5.24 3.97-9.51 8.93-9.54h1.17c4.96-.03 9 4.2 9.03 9.44l.07 13.34c0 .57-.46 1.03-1.02 1.03Z" class="cls-1"/></g></svg>