<svg xmlns="http://www.w3.org/2000/svg"  viewBox="0 0 200.16 160.2"><defs><style>.cls-1{fill:#d7d7d8;stroke-width:0}</style></defs><g><path d="m83.41 140.72-2.4 12.72c-.05.25-.12.5-.23.73-1.39 3.15-3.77 5.13-7.14 5.92-.09.02-.19.03-.28.03H58.35c-.12 0-.24-.01-.36-.04-9.96-2.51-7.88-11.72-7.91-19.33 0-.34-.27-.61-.61-.61-2.85-.03-6.76-.04-11.74 0-6.13.03-14.71-2.87-20.14-6.71C7.22 126.09 1.43 116.32.21 104.11-1 91.97 2.88 81.12 11.85 71.57c.99-1.05 5.34-4.46 13.07-10.22.48-.36 1.01-.62 1.58-.77 7.7-2.11 14.59 3.24 13.41 11.43q-.33 2.235-3.66 6.96c-4.23 5.99-7.18 10.17-8.84 12.54-.2.29-.37.59-.51.92-2.72 6.35-.31 13.23 5.82 16.3 4.81 2.41 9.44 1.63 13.9-2.32 2.49-2.21 3.78-5.66 5.93-8.51 6.95-9.17 16.07-14.87 27.35-17.1 4.41-.87 8.49-.58 12.8-.7 15.43-.42 27.28-12.37 27.31-27.73.04-18.13.07-28.6.08-31.43.01-1.42.18-2.63.5-3.62 3.15-9.84 9.71-15.53 19.67-17.08 9.6-1.49 16.26 4.09 23.65 10.03 3.25 2.61 5.17 4.77 5.75 6.46 1.63 4.77-.64 10.31-5.49 12.63-1.21.57-3.22.84-6.02.8-6.29-.09-10.68-.08-13.17.02-5.16.22-5.34 5.58-4.89 10.18 1.37 13.77 2.51 24.73 3.43 32.88.84 7.48.27 12.55-3.25 18.96-.37.67-1.84 2.56-4.42 5.68-.22.26-.37.57-.44.9-.47 2.23.24 4.04 2.13 5.44 3.13 2.31 5.7-.25 7.9-2.85 6.12-7.26 8.79-15.59 8.02-25-.22-2.64-.63-7.46-1.22-14.46-.05-.52.07-1.04.33-1.49 5.98-10.22 17.51-14.29 28.33-9.53 4.88 2.14 9.3 6.64 13.95 10.12 4.01 2.99 6.22 6.68 4.95 11.53-.99 3.77-3.43 6.25-7.32 7.42-.32.1-.66.15-1 .15l-16.72.02c-.08 0-.16.01-.23.03-2.95.79-4.44 2.5-4.45 5.14-.1 14.25.7 22.44-5.09 32.86-5.39 9.7-13.56 16.39-24.51 20.08-.29.1-.48.36-.48.66q-.06 5.64.03 8.31c.12 3.91-.28 6.61-1.21 8.09-1.43 2.27-3.5 3.82-6.22 4.64-.29.09-.59.13-.89.13-1.05 0-4.5.04-10.34.12-3.85.05-6.55-.4-8.12-1.36-2.59-1.59-4.17-4.25-4.75-7.99-.28-1.79-.91-5.17-1.88-10.14a.71.71 0 0 0-.7-.58H84.14c-.35 0-.66.25-.73.6" class="cls-1"/><path d="M96.48 69.3c-1.25-7.24-2.42-12.4-3.49-15.47-1.04-2.99-3.16-3.75-6.31-3.73q-6.705.045-18.12 0c-.34 0-.69-.05-1.01-.16-7.06-2.19-9.97-9.83-5.59-15.96.49-.69 2.21-2.2 5.16-4.52 2.52-1.99 5.65-4.92 8.68-6.46 12.82-6.51 27.34-1.97 34.01 10.84.12.23.18.49.18.75q.045 12.84 0 19.53c-.05 7.27-5.98 13.55-12.79 15.62-.3.09-.61-.07-.7-.37 0-.02-.01-.05-.02-.07" class="cls-1"/></g></svg>