<svg xmlns="http://www.w3.org/2000/svg" viewBox="0 0 140.09 140.09"><path d="M140.07 115.78c-.07-3.37-.08-26.81-.02-70.31 0-5.87-1.27-10.4-4.91-14.38-.87-.95-5.2-5.32-13.01-13.12-7.8-7.81-12.17-12.14-13.12-13.01C105.03 1.32 100.5.05 94.63.05 51.13.1 27.69.09 24.32.02c-5.23-.12-9.03.3-11.42 1.26C6.07 4.05 1.82 9.24.17 16.83c-.08.37-.12.75-.12 1.14.03 57.13 0 90.33-.05 99.62-.04 6.94 1.13 11.89 5.87 16.63 4.73 4.73 9.68 5.91 16.62 5.87 9.29-.06 42.49-.07 99.62-.04.39 0 .77-.04 1.14-.12 7.59-1.65 12.78-5.9 15.55-12.73.97-2.39 1.39-6.19 1.27-11.42Zm-70.04 4.14c-10.97 0-19.86-8.89-19.86-19.86S59.06 80.2 70.03 80.2s19.86 8.89 19.86 19.86-8.89 19.86-19.86 19.86Zm30.03-70.08c0 5.65-4.58 10.23-10.23 10.23H40.25c-5.65 0-10.23-4.58-10.23-10.23V30.28c0-5.65 4.58-10.23 10.23-10.23h49.58c5.65 0 10.23 4.58 10.23 10.23v19.56Z" style="fill:#d7d7d8;stroke-width:0"/></svg>