<svg xmlns="http://www.w3.org/2000/svg" data-name="Layer 2" viewBox="0 0 160.15 160.16"><path d="M159.48 146.13c-.45-1.24-1.86-3.04-4.23-5.39-23.47-23.28-35.89-35.61-37.27-36.99a.366.366 0 0 1-.05-.47c12.42-17.74 15.77-40.18 8.34-60.33-16.48-44.69-73.5-57.61-107.22-23.89-33.71 33.71-20.8 90.74 23.9 107.22 20.14 7.43 42.58 4.08 60.32-8.34.15-.1.34-.08.47.05 1.38 1.38 13.71 13.8 36.99 37.27 2.35 2.37 4.15 3.78 5.39 4.23 3.64 1.32 8.38.74 11.24-2.12s3.44-7.6 2.12-11.24ZM65.1 110.06c-24.82 0-44.94-20.12-44.94-44.94S40.28 20.18 65.1 20.18s44.94 20.12 44.94 44.94-20.12 44.94-44.94 44.94Z" data-name="Layer 1" style="fill:#fff;stroke-width:0"/></svg>