<svg xmlns="http://www.w3.org/2000/svg" id="Layer_2" data-name="Layer 2" viewBox="0 0 120.38 160.64"><defs><style>.cls-1{fill:#fff;stroke-width:0}</style></defs><g id="Layer_1-2" data-name="Layer 1"><path d="M3 53 53.03 2.97c3.96-3.96 10.38-3.96 14.34 0L117.4 53c3.96 3.96 3.96 10.38 0 14.34-1.9 1.9-4.48 2.97-7.17 2.97H10.17C4.57 70.31.03 65.77.03 60.17.03 57.48 1.1 54.9 3 53ZM117.41 107.63l-50.05 50.04c-3.96 3.96-10.38 3.96-14.34 0L2.97 107.63c-3.96-3.96-3.96-10.38 0-14.34 1.9-1.9 4.48-2.97 7.17-2.97h100.1c5.6 0 10.14 4.54 10.14 10.14 0 2.69-1.07 5.27-2.97 7.17Z" class="cls-1"/></g></svg>