<svg xmlns="http://www.w3.org/2000/svg" viewBox="0 0 170.95 170.99"><path d="M170.9 4.01c-.01-.88-.45-1.76-1.33-2.64S167.82.06 166.94.05C158.68 0 149.6-.02 139.69.01c-3.02.02-5.07 1.17-7.32 3.42-8.19 8.21-36.92 36.94-86.17 86.2-.13.13-.35.13-.48 0l-9.42-9.42s-.08-.08-.13-.11c-7.99-4.91-16.59 2.36-12.8 11.05 5.11 11.73 9.2 21.17 12.25 28.31.14.31.07.68-.17.92l-14.23 14.24c-.24.24-.58.38-.93.39-3.74.04-6.39.04-7.95-.01-3.13-.09-5.33.2-6.62.87-4.43 2.34-6.64 7.2-5.36 11.93 1 3.65 5.95 7.58 10.6 12.23s8.59 9.6 12.23 10.59c4.73 1.29 9.59-.93 11.93-5.36.67-1.29.96-3.49.87-6.62-.05-1.56-.05-4.21-.01-7.95.01-.35.15-.69.39-.93l14.23-14.23c.24-.24.61-.31.92-.17 7.14 3.05 16.58 7.13 28.32 12.24 8.69 3.79 15.96-4.81 11.04-12.8-.03-.05-.07-.09-.11-.13l-9.42-9.42a.344.344 0 0 1 0-.48c49.25-49.27 77.97-78 86.18-86.19 2.25-2.25 3.4-4.3 3.41-7.32.03-9.91.01-18.99-.04-27.25ZM155.97 27.9c0 .45-.18.88-.5 1.19l-84.86 84.87c-.13.12-.33.12-.47 0-.51-.47-2.71-2.65-6.6-6.54-3.89-3.88-6.07-6.08-6.54-6.6-.11-.14-.11-.34.01-.46l84.87-84.86c.31-.32.74-.5 1.19-.5 4.19-.04 8.42-.04 12.7 0 .04 0 .08.02.13.07s.07.09.07.13c.04 4.28.04 8.51 0 12.7Z" data-name="Layer 1" style="fill:#d7d7d8;stroke-width:0"/></svg>