<svg xmlns="http://www.w3.org/2000/svg" viewBox="0 0 640 512"><path fill="#d7d7d8" d="M608 224h-64V153.2C572.2 140.9 592 112.8 592 80C592 35.82 556.2 0 512 0c-44.18 0-80 35.82-80 80c0 32.79 19.77 60.89 48 73.25V224H160V153.2C188.2 140.9 208 112.8 208 80C208 35.82 172.2 0 128 0C83.82 0 48 35.82 48 80c0 32.79 19.77 60.89 48 73.25V224H32C14.33 224 0 238.3 0 256s14.33 32 32 32h256v70.75C259.8 371.1 240 399.2 240 432c0 44.18 35.82 80 80 80c44.18 0 80-35.82 80-80c0-32.79-19.77-60.89-48-73.25V288h256c17.67 0 32-14.33 32-32S625.7 224 608 224zM512 48c17.64 0 32 14.36 32 32s-14.36 32-32 32s-32-14.36-32-32S494.4 48 512 48zM128 48c17.64 0 32 14.36 32 32s-14.36 32-32 32s-32-14.36-32-32S110.4 48 128 48zM320 464c-17.64 0-32-14.36-32-32s14.36-32 32-32s32 14.36 32 32S337.6 464 320 464z"/></svg>