<svg xmlns="http://www.w3.org/2000/svg" viewBox="0 0 140.19 165.1"><defs><style>.cls-1{fill:#d7d7d8;stroke-width:0}</style></defs><g id="Layer_1-2" data-name="Layer 1"><path d="M70.1 0c12.23 0 18.76.03 19.57.08.21.01.42.05.62.1 6.78 1.79 7.51 8.1 9.72 14.29.11.32.41.53.75.53 7.33.01 17.41 0 30.26 0 1.71 0 3.53.72 5.47 2.15 6.01 4.43 4.29 13.98-2.15 17.1-1.13.55-3.22.8-6.27.76H12.13c-3.05.04-5.15-.21-6.28-.76-6.44-3.13-8.15-12.68-2.14-17.11 1.94-1.43 3.76-2.15 5.47-2.15 12.85.02 22.93.02 30.26 0 .34 0 .64-.21.75-.53C42.4 8.27 43.13 1.96 49.91.17c.2-.05.4-.09.61-.1.82-.05 7.35-.08 19.58-.08ZM70.09 49.98c28.57 0 48.44.02 59.59.05.25 0 .46.21.45.47v.02c-4.11 62.82-6.17 94.62-6.2 95.39-.17 5.2-.82 8.84-1.97 10.93-2.71 4.95-7.43 8.04-13.17 8.16-10.69.24-22.93-.02-38.71-.02s-28.02.25-38.71.01c-5.74-.12-10.46-3.21-13.17-8.16-1.15-2.09-1.8-5.73-1.96-10.93-.03-.77-2.09-32.57-6.18-95.39-.02-.25.18-.47.43-.49h.02c11.15-.03 31.01-.05 59.58-.04Z" class="cls-1"/></g></svg>