<?xml version="1.0" encoding="UTF-8"?>
<svg id="Layer_2" data-name="Layer 2" xmlns="http://www.w3.org/2000/svg" viewBox="0 0 1532.02 1482.22">
  <defs>
    <style>
      .cls-1 {
        fill: #fff;
        stroke-width: 0px;
      }
    </style>
  </defs>
  <g id="Layer_1-2" data-name="Layer 1">
    <path class="cls-1" d="m1449.63,665.46c-25.4-26.65-53.66-50.42-84-72-29.83-21.22-61.14-40.52-93.92-57.88-.31-.16-.46-.53-.35-.87,14.6-44.16,25.5-89.07,32.69-134.73,3.74-23.72,6.13-47.92,7.15-72.61,2.09-49.81-2.54-99.82-17.33-147.21-1.65-5.29-5.21-15.14-10.33-18.08-6.28-3.6-7.41,5.3-6.97,8.94,1.9,15.74,2.65,31.78,2.26,48.11-1.23,51.36-10.77,102.98-24.34,152.76-12.26,44.96-27.41,89.12-45.47,132.5-.05.12-.19.17-.31.12-32.2-14.62-65.2-27.9-99.02-39.84-130.2-45.97-268.3-74.08-405.7-85.11-76.73-6.16-153.13-6.32-229.19-.49-.03.01-.06.01-.09,0-.25-.03-.42-.26-.39-.51,2.99-20.68,7.58-40.87,13.77-60.57,11.78-37.45,33.52-78.52,71.71-94.51,11.91-4.98,25.94-7.6,42.1-7.85,42.74-.66,84.19,19.59,118.3,44.54,30.19,22.09,57.26,48.61,81.82,76.96.22.25.52.41.84.45,50.12,6.87,99.86,15.92,149.22,27.16.05,0,.1,0,.14-.02.1-.05.13-.17.08-.27-30.39-58.01-65.21-112.65-104.47-163.93-24.17-31.56-49.47-60.18-75.89-85.86-39.08-37.97-83.16-72.03-133.08-93.9C608.79,7.58,575.73-.69,543.48.05c-40.57.94-76.55,14.57-107.95,40.89-22.36,18.76-40.67,43.41-54.41,69.31-18.6,35.07-30.87,73.29-38.75,112.24-11.76,58.11-15.27,118.05-13.06,177.06.01.31-.19.58-.49.64-76.47,16.2-152.25,41.4-220.14,80.62-37.09,21.42-71.66,47.69-100.24,79.51-3.71,4.13-9.22,11.48-8.35,17.33.22,1.52,1.97,2.92,3.7,2.76,2.68-.24,5.19-1.23,7.55-2.96,22.74-16.62,46.65-30.27,72.69-42.02,42.74-19.3,88.12-33.7,133.68-44.61,38.22-9.15,76.78-16.28,115.68-21.4h.02c.26-.02.48.17.5.41,3.34,34.48,8.37,69.74,15.07,105.79,24.32,130.81,67.04,260.18,123.48,381.73,34.28,73.82,74.26,144.09,119.94,210.83.01.01.01.02.02.03.04.1-.01.22-.11.26-20.59,8.32-41.72,14.74-63.4,19.28-37.46,7.84-81.58,8.63-113.77-15.51-8.02-6.01-15.62-14.21-22.82-24.6-9.94-14.35-17.09-30.4-21.46-48.15-8.16-33.21-7.41-68.61-2.02-102.32,4.85-30.24,12.57-60.45,23.16-90.63.33-.92.31-1.93-.07-2.84-18.9-46.34-35.81-93.61-50.71-141.83-.02-.06-.06-.11-.12-.15-.13-.09-.31-.05-.39.08-31.14,49.46-58.25,100.37-81.32,152.72-22.85,51.87-41.07,105.67-52.07,160.88-7.05,35.4-10.76,72.08-9.19,107.72,2.84,64.48,24.71,128.29,79.66,166.68,40.82,28.52,91.27,36.66,140.19,33.09,46.17-3.38,92.12-15.89,135.29-33,34.71-13.76,69.25-30.63,103.61-50.63,7.41-4.31,16.05-9.46,25.89-15.46.26-.15.6-.1.8.12,39.02,43.39,81.72,83.17,128.82,117.27,37.31,27,77.99,50.13,121.05,65.95,16.32,6,32.57,10.67,48.77,14.03,4.07.85,8.15,1.19,12.25,1.01,3.64-.15,10.18-2.04,7.67-7-1.07-2.13-4.94-4.41-7.53-5.55-35.69-15.74-67.48-36.86-98.09-61.56-18.26-14.74-35.32-29.84-51.19-45.3-37.65-36.69-72.37-75.9-104.16-117.64h-.01c-.11-.17-.07-.39.09-.5,68.7-49.35,131.82-105.34,190.65-166.6,71.85-74.81,135.79-155.12,191.82-240.92,34.96-53.51,65.96-108.7,93.01-165.56.01-.01.02-.03.03-.05.1-.12.29-.15.41-.05,47.38,37.91,110.73,102.25,87.45,170.04-12.66,36.85-40.63,64.66-73.33,84.44-43.56,26.35-92.05,39.98-141.99,50.37-.32.07-.61.26-.81.51-31.01,40-63.73,78.55-98.15,115.65-.03.04-.05.08-.05.13,0,.1.08.19.18.19,70.05,2.51,140.14-.51,208.54-10.59,43.62-6.42,85.1-16.05,124.44-28.87,36.34-11.83,72.78-28.04,105.12-48.87,40.8-26.28,77.14-62.8,93.65-109.32,30.48-85.93-14.68-168.91-72.58-229.67Zm-298.31-38.81c-13.8,25.65-27.85,50.11-42.17,73.38-36.74,59.74-77.67,115.48-122.78,167.22-65.58,75.24-139.59,143.89-220.4,202.61-25.24,18.34-51.13,35.37-77.67,51.08-8.08,4.79-15.92,9.23-23.54,13.31-.21.12-.47.05-.6-.16-26.61-42.69-50.58-86.35-71.91-130.99-28.78-60.22-52.84-123.17-72.17-188.85-20.82-70.74-35.6-140.87-44.34-210.38-6.12-48.68-9.34-96.91-8.11-145,.01-.3.26-.55.56-.56,29.46-1.12,61.3-1.06,95.53.16,70.65,2.53,140.22,10.86,208.69,24.98,79.28,16.36,155.9,39.32,229.86,68.88,51.8,20.7,101.79,44.88,148.78,73.32.34.21.46.65.27,1Z"/>
  </g>
</svg>