<?xml version="1.0" encoding="UTF-8" standalone="no"?>
<!DOCTYPE svg PUBLIC "-//W3C//DTD SVG 1.1//EN" "http://www.w3.org/Graphics/SVG/1.1/DTD/svg11.dtd">
<svg xmlns="http://www.w3.org/2000/svg" version="1.1" viewBox="0.00 0.00 1867.00 1684.00">
<path fill="#ffffff" d="
  M 1379.87 25.12
  Q 1377.91 25.31 1376.06 24.85
  Q 1372.59 24.00 1372.34 23.96
  C 1370.33 23.67 1367.59 23.43 1365.26 22.80
  C 1355.58 20.20 1344.96 19.18 1335.21 17.70
  A 4.26 4.19 -25.2 0 1 1333.75 17.19
  L 1330.23 15.16
  A 0.18 0.18 0.0 0 1 1330.26 14.84
  Q 1330.94 14.59 1331.95 13.13
  A 4.40 4.33 1.4 0 1 1333.35 11.82
  Q 1342.45 6.43 1347.37 4.84
  Q 1349.10 4.28 1357.43 2.97
  C 1361.57 2.31 1365.90 0.62 1370.25 0.56
  Q 1376.59 0.47 1383.98 1.09
  Q 1388.02 1.44 1417.29 4.41
  C 1441.72 6.89 1461.25 10.83 1488.05 16.36
  C 1520.66 23.09 1555.41 31.80 1584.49 39.30
  C 1592.63 41.39 1601.52 44.32 1610.39 46.50
  Q 1663.44 59.59 1681.73 64.29
  Q 1691.55 66.82 1728.76 77.50
  C 1740.23 80.80 1757.78 83.68 1770.42 87.72
  C 1781.41 91.23 1797.98 95.70 1813.05 100.49
  C 1824.39 104.09 1837.20 110.56 1847.76 114.52
  Q 1853.24 116.59 1855.99 119.25
  C 1861.02 124.14 1863.10 128.54 1864.53 135.35
  Q 1865.76 141.15 1866.02 141.92
  A 8.97 8.88 -50.1 0 1 1866.38 146.20
  C 1865.22 153.39 1864.43 165.34 1862.86 173.84
  Q 1862.36 176.55 1857.21 210.53
  Q 1855.12 224.31 1852.04 239.97
  C 1847.10 265.10 1845.48 275.60 1840.34 295.32
  Q 1836.75 309.13 1833.06 329.29
  A 6.61 6.45 62.7 0 1 1832.60 330.79
  C 1830.65 335.13 1829.17 338.90 1826.44 342.90
  Q 1816.51 357.43 1805.58 368.61
  Q 1797.02 377.38 1786.02 383.79
  Q 1776.98 389.06 1765.09 392.23
  Q 1746.55 397.16 1735.32 398.33
  Q 1728.74 399.01 1715.08 398.78
  C 1710.07 398.69 1705.73 397.58 1700.78 397.02
  C 1693.17 396.16 1685.18 393.86 1679.23 392.97
  C 1671.38 391.80 1666.03 389.62 1658.52 387.82
  Q 1655.44 387.09 1650.36 385.22
  Q 1638.08 380.71 1633.24 379.01
  C 1629.24 377.60 1624.02 376.60 1619.72 374.66
  Q 1614.32 372.23 1613.67 371.88
  Q 1594.72 361.66 1583.44 355.70
  Q 1574.47 350.95 1572.22 349.56
  C 1567.17 346.44 1562.62 344.79 1557.18 341.48
  Q 1530.39 325.15 1508.98 307.00
  Q 1494.90 295.07 1478.68 279.02
  C 1470.27 270.70 1463.03 260.92 1457.14 252.30
  C 1453.04 246.29 1448.32 237.20 1445.05 229.47
  Q 1437.56 211.74 1431.77 195.50
  Q 1429.00 187.73 1428.21 183.78
  Q 1425.44 169.82 1421.97 155.51
  A 4.81 4.63 38.7 0 1 1421.84 154.50
  L 1421.64 146.29
  A 5.87 5.38 -55.5 0 0 1421.47 145.08
  Q 1420.47 141.14 1420.43 136.25
  Q 1420.38 130.00 1421.21 118.58
  C 1422.12 106.02 1425.12 94.82 1429.13 83.73
  A 0.67 0.66 -64.5 0 0 1428.86 82.95
  L 1425.43 80.77
  A 3.60 3.58 -31.6 0 0 1423.09 80.22
  C 1411.28 81.48 1400.74 89.33 1391.51 98.02
  Q 1373.88 114.59 1368.01 121.50
  C 1362.54 127.92 1356.06 138.29 1350.76 148.70
  C 1345.23 159.58 1338.53 169.44 1334.22 181.24
  Q 1325.41 205.32 1320.44 220.53
  C 1314.77 237.88 1310.81 255.43 1308.14 273.12
  C 1307.18 279.47 1306.29 287.60 1306.61 294.67
  Q 1306.91 301.10 1306.82 313.49
  C 1306.74 323.73 1308.44 335.95 1308.71 345.50
  Q 1309.10 359.46 1311.06 372.52
  C 1312.16 379.79 1315.11 389.13 1316.51 395.35
  C 1317.88 401.49 1321.05 407.49 1322.70 412.90
  Q 1324.08 417.39 1327.77 424.99
  Q 1334.58 439.01 1337.12 443.12
  Q 1347.27 459.56 1357.80 473.71
  Q 1369.32 489.19 1380.61 499.88
  Q 1387.37 506.28 1405.30 523.45
  Q 1411.45 529.34 1426.56 541.14
  Q 1430.21 543.99 1442.35 551.47
  Q 1446.87 554.26 1457.74 562.01
  Q 1470.04 570.77 1486.82 579.00
  Q 1498.26 584.61 1502.15 586.65
  C 1519.64 595.80 1538.42 603.40 1556.70 607.38
  Q 1562.10 608.56 1568.21 610.60
  Q 1575.38 612.99 1586.36 614.65
  Q 1597.75 616.37 1608.99 618.75
  Q 1639.52 625.19 1671.81 621.31
  Q 1674.33 621.01 1681.81 619.31
  A 4.99 4.39 35.7 0 1 1682.92 619.20
  L 1686.33 619.28
  A 4.76 4.71 37.5 0 0 1687.76 619.10
  C 1696.28 616.66 1707.17 614.28 1717.30 610.63
  Q 1721.82 609.01 1728.39 606.99
  C 1738.84 603.77 1747.00 599.17 1756.95 593.33
  A 0.24 0.24 0.0 0 1 1757.30 593.62
  C 1756.13 596.90 1754.21 599.84 1752.60 603.47
  C 1745.68 619.11 1736.89 639.08 1727.31 656.85
  A 9.23 8.98 -11.2 0 1 1726.13 658.56
  Q 1718.73 667.04 1708.27 670.51
  Q 1699.38 673.46 1688.32 676.09
  A 3.19 3.16 -51.6 0 1 1687.57 676.18
  L 1675.87 676.18
  A 0.71 0.70 -77.5 0 0 1675.23 676.59
  Q 1673.68 679.95 1671.31 680.76
  Q 1658.44 685.15 1640.22 686.90
  Q 1635.95 687.31 1634.47 684.73
  A 3.04 2.89 26.3 0 1 1634.13 683.80
  Q 1633.68 681.27 1634.05 678.98
  Q 1635.70 668.61 1634.48 658.40
  A 0.14 0.13 -33.4 0 0 1634.23 658.35
  Q 1626.83 670.52 1620.53 679.75
  Q 1618.76 682.35 1610.81 690.15
  A 2.98 2.98 0.0 0 1 1609.15 690.95
  Q 1606.86 691.26 1605.01 690.82
  A 2.53 2.46 71.4 0 1 1604.02 690.31
  Q 1601.96 688.54 1600.62 684.63
  Q 1599.18 680.46 1594.71 680.95
  A 2.31 2.26 -62.0 0 0 1593.86 681.22
  C 1588.41 684.28 1583.46 686.79 1578.92 691.00
  A 1.92 1.92 0.0 0 1 1577.67 691.51
  C 1570.96 691.67 1563.85 691.10 1556.25 689.79
  Q 1530.19 685.33 1527.47 684.83
  C 1525.65 684.49 1522.65 683.54 1520.61 682.50
  Q 1512.80 678.54 1508.05 676.47
  Q 1504.28 674.83 1500.89 674.45
  A 2.20 2.14 45.8 0 0 1500.53 674.44
  L 1487.36 675.38
  A 1.40 1.13 -50.9 0 0 1486.98 675.46
  Q 1483.18 676.88 1479.83 675.62
  C 1474.22 673.50 1468.21 670.91 1461.65 666.94
  Q 1452.26 661.25 1444.91 657.80
  Q 1439.97 655.49 1437.18 653.49
  Q 1434.22 651.38 1430.29 649.94
  A 10.53 10.13 70.9 0 1 1428.13 648.84
  C 1408.08 635.48 1391.34 623.77 1375.07 608.19
  C 1357.93 591.78 1339.09 573.02 1323.42 553.16
  C 1316.46 544.32 1300.36 525.92 1290.54 510.86
  Q 1286.97 505.40 1284.97 500.98
  C 1282.90 496.43 1280.19 492.50 1277.67 487.46
  Q 1257.48 447.15 1256.49 445.04
  C 1254.33 440.44 1251.89 435.65 1249.92 430.14
  Q 1245.76 418.45 1242.18 408.81
  Q 1239.80 402.40 1239.85 399.30
  A 2.98 2.89 36.0 0 0 1239.66 398.21
  L 1238.13 394.03
  A 2.87 2.75 -59.8 0 1 1237.98 393.41
  Q 1237.43 389.22 1238.31 378.56
  Q 1238.51 376.11 1237.17 373.14
  A 0.85 0.85 0.0 0 0 1236.22 372.66
  Q 1231.19 373.77 1229.53 368.01
  Q 1227.13 359.64 1226.32 355.42
  C 1225.54 351.33 1223.45 346.89 1222.68 342.79
  Q 1220.91 333.39 1217.33 315.71
  C 1216.17 310.01 1215.97 305.82 1215.05 300.76
  Q 1214.72 298.94 1214.61 294.73
  Q 1214.35 284.69 1214.10 281.99
  Q 1213.47 275.10 1219.82 274.92
  Q 1226.94 274.72 1241.07 273.81
  A 0.25 0.25 0.0 0 0 1241.10 273.31
  C 1237.06 272.51 1231.17 271.73 1225.60 271.50
  Q 1221.70 271.34 1217.14 269.86
  C 1214.02 268.85 1214.11 265.72 1214.14 262.28
  Q 1214.29 243.34 1215.22 234.02
  C 1216.34 222.84 1216.70 210.94 1218.28 200.60
  Q 1218.35 200.12 1222.13 178.89
  Q 1226.11 156.47 1233.04 134.34
  C 1237.11 121.34 1241.62 112.76 1247.89 98.50
  C 1251.19 91.00 1254.65 84.66 1258.72 76.62
  A 1.22 1.21 13.7 0 1 1259.82 75.96
  L 1280.20 76.16
  A 0.12 0.12 0.0 0 0 1280.32 76.04
  L 1280.32 75.77
  A 0.20 0.20 0.0 0 0 1280.13 75.57
  L 1272.73 75.24
  A 3.15 3.01 -29.2 0 1 1271.49 74.92
  Q 1270.43 74.40 1269.06 72.64
  A 1.61 1.60 23.7 0 1 1268.72 71.78
  Q 1268.40 68.64 1269.13 66.12
  Q 1273.17 52.08 1277.42 45.70
  Q 1279.55 42.50 1287.93 33.47
  Q 1291.94 29.16 1296.75 26.99
  Q 1305.01 23.28 1313.48 23.42
  Q 1326.37 23.63 1339.87 22.62
  Q 1343.10 22.38 1346.81 22.79
  Q 1349.86 23.14 1353.72 23.32
  Q 1371.90 24.21 1374.75 24.75
  Q 1377.65 25.30 1379.87 25.12
  Z"
/>
<path fill="#ffffff" d="
  M 1389.80 137.07
  Q 1388.47 142.57 1388.35 147.75
  C 1388.10 159.15 1387.97 168.11 1390.12 179.13
  Q 1392.45 191.10 1396.00 203.50
  A 1.11 1.07 49.8 0 1 1395.95 204.27
  Q 1393.29 210.31 1387.92 221.92
  C 1385.80 226.51 1384.51 232.07 1383.70 237.91
  C 1380.87 258.22 1378.20 273.97 1378.98 292.25
  C 1379.17 296.81 1380.48 301.14 1380.93 305.60
  C 1382.02 316.39 1385.53 328.58 1388.06 336.20
  Q 1390.66 344.05 1393.28 352.49
  Q 1395.34 359.15 1398.71 365.26
  A 0.71 0.71 0.0 0 0 1399.94 365.28
  C 1402.43 361.06 1404.42 356.34 1407.45 352.23
  Q 1413.79 343.63 1420.07 337.55
  Q 1421.33 336.32 1429.93 329.20
  C 1435.06 324.95 1440.67 322.00 1447.54 320.56
  Q 1449.88 320.07 1454.34 318.85
  A 2.21 2.20 60.7 0 1 1456.53 319.47
  Q 1467.49 331.24 1479.17 340.58
  Q 1494.98 353.20 1505.89 360.80
  A 0.87 0.87 0.0 0 1 1506.25 361.67
  Q 1505.32 366.91 1506.92 377.83
  Q 1510.19 400.22 1513.61 414.68
  C 1519.38 439.08 1529.02 462.57 1540.67 486.56
  Q 1545.25 496.00 1553.60 503.41
  Q 1553.98 503.76 1555.85 504.67
  A 0.56 0.55 27.0 0 0 1556.58 504.44
  C 1558.15 501.46 1559.57 497.53 1561.24 494.59
  Q 1567.76 483.05 1572.88 476.36
  Q 1575.99 472.31 1582.25 464.81
  Q 1586.37 459.87 1587.40 458.79
  C 1590.16 455.91 1591.84 453.27 1594.36 450.86
  Q 1600.43 445.06 1608.73 437.56
  Q 1613.89 432.89 1617.63 430.97
  Q 1623.18 428.12 1627.71 426.32
  A 0.80 0.79 -45.5 0 1 1628.27 426.31
  L 1665.39 439.48
  A 1.62 1.62 0.0 0 1 1666.40 440.53
  Q 1669.33 449.76 1669.81 452.74
  Q 1670.73 458.37 1673.01 479.75
  Q 1674.04 489.39 1673.49 495.24
  Q 1671.43 517.38 1668.54 533.86
  Q 1668.20 535.76 1667.74 537.25
  A 0.69 0.68 15.3 0 0 1668.24 538.12
  Q 1673.03 539.24 1678.07 536.53
  Q 1683.98 533.36 1690.31 528.03
  Q 1711.26 510.44 1713.00 508.75
  Q 1713.28 508.47 1719.60 503.37
  C 1728.52 496.16 1737.84 484.94 1743.55 479.05
  C 1744.88 477.68 1747.33 474.72 1748.55 472.73
  C 1754.71 462.69 1758.50 456.81 1761.65 448.12
  A 1.54 1.53 2.2 0 1 1762.69 447.16
  Q 1770.56 444.97 1777.56 441.47
  A 0.51 0.51 0.0 0 1 1778.27 441.75
  Q 1780.47 447.43 1781.04 449.97
  Q 1785.06 468.06 1785.55 490.26
  Q 1785.58 491.77 1786.18 493.72
  A 0.83 0.82 -33.6 0 0 1787.60 494.00
  L 1796.73 483.18
  A 0.12 0.12 0.0 0 1 1796.93 483.29
  L 1793.51 495.99
  A 1.35 0.84 -46.0 0 1 1793.44 496.15
  L 1783.32 511.72
  A 1.49 1.08 -17.5 0 1 1783.15 511.95
  L 1777.16 518.90
  A 0.36 0.36 0.0 0 1 1776.53 518.68
  C 1776.06 509.36 1774.02 499.83 1771.04 490.79
  C 1770.05 487.78 1768.26 482.93 1765.78 481.02
  A 1.59 1.58 28.6 0 0 1763.32 481.74
  Q 1762.26 484.73 1761.01 487.28
  Q 1755.05 499.40 1752.18 504.44
  C 1749.27 509.55 1747.41 514.85 1744.56 519.59
  C 1740.35 526.59 1736.89 532.66 1732.35 539.12
  Q 1729.87 542.67 1724.99 549.59
  C 1722.83 552.64 1720.29 557.71 1717.46 560.73
  Q 1707.38 571.50 1700.31 578.81
  A 3.77 3.71 -74.2 0 1 1698.50 579.84
  Q 1676.79 585.03 1654.10 584.14
  A 0.48 0.47 -3.9 0 1 1653.66 583.76
  C 1651.27 572.48 1649.59 561.56 1647.58 552.51
  Q 1640.97 522.80 1639.39 517.60
  Q 1635.72 505.56 1630.01 493.15
  A 0.87 0.87 0.0 0 0 1628.68 492.82
  L 1622.03 498.06
  A 8.27 8.04 -87.8 0 0 1620.96 499.08
  Q 1617.03 503.63 1613.71 508.26
  Q 1609.27 514.47 1606.92 516.98
  Q 1601.29 523.01 1595.41 529.83
  C 1587.59 538.90 1577.40 547.36 1568.36 556.09
  Q 1566.18 558.19 1561.92 560.76
  A 1.11 1.08 39.7 0 1 1560.95 560.84
  C 1555.77 558.87 1551.56 557.60 1546.90 555.32
  Q 1531.59 547.82 1525.54 544.47
  Q 1503.03 531.99 1493.91 526.09
  Q 1492.03 524.87 1489.12 520.97
  A 4.00 3.98 16.8 0 1 1488.57 519.95
  Q 1481.48 500.90 1478.20 483.53
  Q 1475.40 468.73 1470.86 439.85
  Q 1469.38 430.40 1469.38 421.86
  Q 1469.38 401.20 1470.65 385.00
  A 2.08 2.07 -80.4 0 0 1469.11 382.82
  Q 1451.96 378.34 1436.42 387.48
  Q 1417.37 398.70 1401.39 415.41
  Q 1398.67 418.26 1395.63 422.57
  C 1392.93 426.39 1389.36 429.75 1386.96 433.22
  A 0.33 0.33 0.0 0 1 1386.44 433.24
  Q 1382.62 428.63 1376.19 420.29
  Q 1374.79 418.48 1373.25 415.53
  Q 1363.53 396.88 1361.45 393.31
  Q 1359.54 390.00 1356.46 380.80
  Q 1355.31 377.36 1350.95 363.43
  Q 1347.67 352.97 1346.26 345.86
  Q 1341.75 323.02 1342.39 300.96
  C 1342.68 290.80 1342.47 281.87 1343.65 272.63
  C 1344.30 267.48 1344.22 264.48 1344.20 259.22
  Q 1344.20 257.10 1344.77 253.88
  C 1346.01 246.88 1347.30 239.49 1349.17 232.27
  Q 1349.81 229.82 1353.45 214.90
  C 1357.38 198.82 1364.48 184.38 1373.01 165.83
  Q 1377.63 155.79 1380.48 150.95
  Q 1383.43 145.95 1389.48 136.93
  A 0.18 0.18 0.0 0 1 1389.80 137.07
  Z"
/>
<path fill="#ffffff" d="
  M 1169.99 322.09
  Q 1159.82 329.09 1147.13 327.24
  A 2.78 2.71 66.6 0 1 1145.94 326.75
  L 1139.15 321.75
  A 5.52 5.49 9.6 0 1 1137.15 318.96
  Q 1135.71 314.42 1135.69 314.34
  Q 1131.54 297.76 1138.21 281.88
  C 1141.65 273.69 1150.21 265.99 1158.55 264.11
  C 1167.14 262.17 1175.74 268.54 1180.45 275.11
  A 0.32 0.31 16.3 0 0 1181.00 274.81
  Q 1175.82 262.04 1163.25 258.02
  Q 1160.17 257.04 1158.17 254.42
  A 1.60 1.57 -65.4 0 1 1157.84 253.51
  Q 1157.75 250.04 1158.50 246.99
  C 1161.59 234.49 1163.61 222.05 1167.46 210.42
  A 2.01 2.00 4.4 0 1 1169.03 209.08
  C 1172.90 208.44 1176.42 208.15 1178.68 206.57
  Q 1182.57 203.83 1184.19 198.36
  A 0.38 0.38 0.0 0 0 1183.68 197.90
  L 1181.89 198.62
  A 2.70 2.69 33.8 0 1 1180.87 198.82
  Q 1176.54 198.83 1172.49 200.63
  A 1.05 0.94 -54.4 0 1 1172.08 200.72
  L 1165.26 200.72
  A 2.17 2.16 -26.3 0 1 1163.95 200.28
  C 1160.06 197.33 1157.74 194.23 1157.83 188.93
  Q 1157.99 179.50 1162.05 172.55
  Q 1164.62 168.16 1170.02 162.29
  Q 1175.98 155.81 1184.35 153.23
  A 5.72 5.64 -54.4 0 1 1185.80 152.98
  C 1191.63 152.74 1196.18 151.89 1199.63 155.15
  Q 1203.88 159.15 1207.11 162.89
  A 0.59 0.59 0.0 0 0 1207.94 162.96
  Q 1210.71 160.63 1215.15 160.02
  A 0.61 0.60 -87.0 0 1 1215.82 160.77
  Q 1211.80 177.20 1209.57 195.26
  Q 1209.00 199.87 1204.31 220.08
  Q 1203.33 224.31 1202.94 231.96
  A 10.51 10.10 55.2 0 1 1202.62 233.98
  Q 1200.11 243.32 1201.18 253.77
  Q 1201.39 255.91 1200.29 257.57
  A 1.47 1.42 -54.5 0 0 1200.58 259.53
  Q 1201.25 260.05 1201.28 261.26
  Q 1201.38 265.34 1201.84 267.95
  A 3.02 2.94 -66.6 0 0 1202.21 268.92
  C 1203.86 271.66 1207.10 273.72 1205.21 277.48
  C 1202.99 281.93 1202.20 284.15 1202.00 289.32
  Q 1201.83 293.66 1203.01 309.00
  Q 1203.34 313.29 1204.32 318.00
  C 1205.85 325.30 1206.98 332.42 1208.53 340.63
  C 1208.98 342.98 1208.96 345.15 1209.18 346.98
  A 5.23 5.19 -62.0 0 0 1209.69 348.67
  C 1211.43 352.22 1212.40 356.73 1213.97 360.90
  Q 1220.13 377.32 1221.44 382.03
  Q 1223.51 389.45 1226.85 401.97
  Q 1227.74 405.28 1228.72 407.60
  C 1229.79 410.12 1229.72 412.64 1230.76 415.21
  C 1232.66 419.90 1235.46 425.69 1235.76 431.73
  A 5.05 5.04 33.2 0 0 1236.08 433.26
  C 1243.98 454.01 1251.45 468.97 1262.41 490.56
  Q 1267.21 500.02 1271.50 506.50
  C 1276.50 514.05 1279.55 519.90 1284.92 526.61
  C 1291.93 535.38 1300.68 548.47 1308.21 558.01
  Q 1317.58 569.88 1324.57 578.18
  C 1329.32 583.82 1336.03 591.21 1342.29 596.46
  Q 1345.31 598.99 1348.72 602.53
  C 1353.51 607.52 1361.32 613.81 1364.95 617.07
  C 1374.50 625.66 1385.29 633.78 1394.46 641.69
  C 1402.06 648.24 1409.89 652.54 1417.67 658.12
  C 1428.15 665.62 1439.93 671.30 1451.91 675.87
  C 1457.31 677.93 1464.27 681.12 1467.81 683.43
  Q 1470.65 685.30 1470.16 688.38
  Q 1469.92 689.85 1468.76 690.70
  Q 1456.58 699.65 1439.50 712.76
  C 1437.39 714.38 1432.74 714.63 1428.62 715.04
  A 3.38 3.35 -35.4 0 1 1426.90 714.76
  Q 1422.93 712.99 1417.18 710.87
  Q 1414.70 709.96 1412.77 708.00
  A 1.07 1.06 25.6 0 1 1412.47 707.17
  L 1412.65 704.67
  A 0.86 0.83 66.5 0 1 1412.81 704.24
  L 1416.20 699.64
  A 1.14 1.06 -24.5 0 0 1416.40 699.16
  L 1417.84 690.46
  A 3.82 3.73 -46.5 0 0 1417.82 689.07
  Q 1416.73 683.53 1414.80 678.69
  Q 1413.57 675.60 1411.48 673.24
  A 0.20 0.20 0.0 0 0 1411.14 673.45
  L 1413.07 678.21
  A 2.48 2.42 34.0 0 1 1413.22 678.93
  Q 1413.67 687.90 1413.16 690.95
  Q 1412.79 693.19 1410.62 695.62
  C 1406.43 700.29 1401.26 703.70 1395.05 704.39
  Q 1390.58 704.88 1390.50 704.89
  C 1384.40 705.47 1377.02 703.04 1371.28 701.18
  A 5.23 4.94 66.6 0 1 1370.28 700.75
  Q 1361.25 695.68 1354.09 686.71
  A 3.29 3.23 24.2 0 1 1353.38 684.90
  L 1352.77 676.31
  A 1.87 1.78 55.4 0 1 1352.90 675.49
  C 1355.49 668.95 1359.96 665.60 1365.02 661.15
  A 0.41 0.41 0.0 0 0 1364.60 660.47
  L 1356.05 663.92
  A 6.38 6.30 9.9 0 0 1353.74 665.52
  C 1351.65 667.59 1349.31 673.24 1344.91 671.11
  Q 1340.22 668.83 1334.13 664.12
  Q 1325.03 657.09 1314.72 647.55
  Q 1300.31 634.24 1284.18 618.82
  Q 1281.87 616.61 1283.76 613.79
  C 1288.31 607.04 1292.79 599.24 1290.08 591.59
  A 0.28 0.28 0.0 0 0 1289.53 591.66
  Q 1289.23 596.29 1286.73 599.80
  C 1283.50 604.35 1279.22 609.82 1273.10 610.31
  C 1262.08 611.18 1251.50 605.61 1244.08 597.52
  C 1238.20 591.13 1233.31 585.02 1230.84 576.49
  C 1229.48 571.82 1228.34 568.20 1228.85 565.30
  Q 1229.73 560.31 1229.91 557.75
  A 2.36 2.31 64.6 0 1 1230.28 556.67
  C 1233.65 551.57 1236.48 548.77 1242.54 547.79
  Q 1244.60 547.46 1255.18 547.74
  A 2.88 2.54 48.6 0 1 1255.58 547.79
  L 1259.01 548.63
  A 0.23 0.23 0.0 0 0 1259.17 548.21
  Q 1251.93 544.37 1243.41 542.17
  A 5.90 5.88 -44.3 0 0 1240.60 542.14
  Q 1238.39 542.66 1236.40 543.30
  C 1232.03 544.72 1228.72 548.44 1223.97 548.42
  A 1.39 1.36 65.1 0 1 1223.07 548.08
  Q 1221.91 547.06 1218.93 542.84
  Q 1210.97 531.57 1199.33 511.94
  C 1193.86 502.72 1190.02 492.34 1186.62 484.12
  Q 1184.58 479.19 1188.99 476.74
  Q 1193.03 474.48 1195.31 472.48
  A 4.45 4.34 -7.7 0 0 1196.36 471.14
  Q 1200.41 463.32 1202.22 454.89
  A 0.28 0.28 0.0 0 0 1201.81 454.58
  Q 1201.62 454.68 1201.40 455.75
  Q 1201.33 456.11 1200.92 456.69
  C 1196.51 463.00 1192.07 468.23 1185.81 471.37
  A 3.02 2.94 32.1 0 1 1184.36 471.68
  L 1175.47 471.33
  A 2.74 2.70 66.2 0 1 1173.81 470.67
  Q 1163.73 462.04 1158.48 450.54
  Q 1157.25 447.85 1155.50 439.98
  Q 1153.02 428.80 1155.69 417.91
  C 1157.20 411.74 1162.77 401.98 1169.65 400.57
  C 1175.13 399.45 1183.53 399.38 1188.17 403.15
  A 0.19 0.19 0.0 0 0 1188.47 402.93
  C 1186.39 397.95 1182.15 397.14 1176.40 395.14
  C 1173.82 394.24 1169.31 393.74 1167.51 394.26
  Q 1164.51 395.13 1161.76 394.90
  A 2.20 2.12 63.0 0 1 1160.81 394.57
  Q 1158.56 393.11 1157.99 389.51
  Q 1155.15 371.72 1153.97 355.00
  Q 1153.53 348.89 1153.68 336.98
  Q 1153.71 334.42 1155.29 333.56
  C 1160.74 330.60 1166.91 326.93 1170.11 322.21
  A 0.09 0.09 0.0 0 0 1169.99 322.09
  Z
  M 1260.43 549.12
  Q 1260.35 549.06 1260.21 549.01
  A 0.06 0.06 0.0 0 0 1260.13 549.06
  Q 1260.08 549.55 1260.11 549.57
  A 0.28 0.27 -10.0 0 0 1260.43 549.12
  Z"
/>
<path fill="#ffffff" d="
  M 1144.36 356.35
  Q 1145.73 357.16 1145.88 359.49
  Q 1147.29 381.44 1149.89 404.01
  Q 1149.92 404.29 1149.95 406.97
  A 3.79 3.78 56.6 0 1 1149.63 408.54
  Q 1144.32 420.66 1146.33 434.74
  Q 1146.75 437.72 1148.53 445.98
  C 1149.98 452.70 1152.84 457.42 1157.23 465.52
  Q 1159.70 470.09 1163.01 473.05
  C 1166.02 475.73 1170.30 477.07 1172.22 481.54
  Q 1185.67 512.91 1205.35 540.90
  Q 1212.34 550.85 1218.15 558.66
  A 7.04 6.98 27.2 0 1 1219.53 562.89
  C 1219.50 570.37 1221.71 576.17 1224.61 583.25
  Q 1226.93 588.92 1228.45 591.35
  C 1235.85 603.21 1246.33 613.89 1259.56 617.93
  Q 1262.64 618.87 1268.97 619.83
  C 1272.49 620.37 1274.00 621.52 1275.45 624.48
  A 2.27 2.20 6.7 0 0 1276.06 625.23
  Q 1278.37 627.01 1279.35 628.04
  Q 1293.86 643.31 1310.90 657.10
  C 1316.40 661.55 1321.61 667.64 1326.48 671.16
  Q 1337.38 679.02 1347.48 687.16
  A 4.11 4.00 -87.4 0 1 1348.36 688.15
  L 1355.73 699.89
  A 0.83 0.71 26.2 0 1 1355.83 700.12
  Q 1357.05 704.09 1353.53 705.81
  Q 1332.28 716.16 1326.04 719.54
  C 1323.92 720.70 1321.52 723.03 1319.02 724.45
  Q 1289.61 741.16 1265.18 755.18
  C 1262.27 756.85 1258.66 758.35 1256.31 759.33
  A 6.61 6.55 -57.1 0 1 1253.98 759.84
  C 1244.31 760.18 1232.27 757.77 1225.63 756.95
  Q 1218.06 756.02 1210.97 754.00
  Q 1192.24 748.65 1180.54 744.56
  Q 1175.63 742.84 1171.64 740.96
  Q 1162.51 736.66 1148.93 729.15
  Q 1145.00 726.98 1130.38 716.97
  Q 1121.24 710.71 1112.42 703.39
  Q 1096.92 690.52 1094.22 688.01
  C 1080.55 675.30 1067.91 659.74 1056.26 644.24
  Q 1045.30 629.67 1036.96 612.54
  Q 1027.02 592.13 1018.26 572.46
  Q 1017.90 571.65 1017.23 568.12
  A 2.60 2.53 -68.2 0 0 1016.85 567.20
  Q 1014.93 564.34 1013.66 560.86
  Q 1009.48 549.43 1006.48 536.55
  Q 1000.72 511.81 998.68 487.96
  A 1.73 1.64 -59.4 0 0 998.57 487.48
  L 997.84 485.52
  A 2.40 2.38 33.5 0 1 997.70 484.84
  Q 996.96 473.09 997.24 462.00
  Q 997.90 436.46 998.90 423.51
  Q 1000.51 402.64 1002.06 394.25
  Q 1003.63 385.70 1006.50 373.49
  C 1009.42 361.06 1014.60 350.24 1020.56 338.57
  Q 1023.39 333.01 1025.99 330.31
  A 2.04 2.03 68.7 0 0 1026.57 328.99
  Q 1026.74 326.15 1029.08 322.06
  Q 1036.66 308.78 1048.15 299.32
  A 5.22 5.21 -78.8 0 1 1049.03 298.73
  C 1052.61 296.86 1056.72 295.07 1060.61 293.02
  C 1088.39 278.38 1111.46 267.25 1136.06 250.22
  C 1139.81 247.63 1142.81 245.84 1145.42 241.92
  A 3.05 3.03 -67.6 0 1 1148.55 240.61
  L 1151.65 241.22
  A 2.50 2.50 0.0 0 1 1153.65 243.37
  C 1153.94 245.68 1151.22 250.31 1150.00 252.34
  Q 1149.45 253.24 1148.62 256.04
  Q 1147.91 258.43 1145.62 259.91
  Q 1139.72 263.72 1136.30 269.00
  Q 1125.32 286.01 1126.53 305.72
  Q 1127.02 313.56 1130.34 319.20
  Q 1133.40 324.40 1134.46 326.39
  A 1.21 1.20 -6.8 0 0 1135.23 326.99
  C 1138.97 327.89 1141.02 328.81 1143.23 331.53
  A 2.93 2.93 0.0 0 1 1143.87 333.24
  Q 1144.23 341.51 1145.19 351.50
  Q 1145.44 353.99 1144.21 355.55
  A 0.54 0.54 0.0 0 0 1144.36 356.35
  Z"
/>
<path fill="#ffffff" d="
  M 1048.17 261.13
  Q 1046.54 261.41 1039.75 260.72
  Q 1033.62 260.09 1024.70 262.00
  A 2.57 2.56 -69.6 0 0 1023.70 262.46
  C 1020.48 264.85 1016.00 268.46 1010.62 270.71
  Q 1008.38 271.64 1003.97 273.70
  Q 1001.84 274.69 1000.96 272.00
  Q 1000.18 269.61 999.79 265.76
  C 999.18 259.81 1008.39 252.71 1012.85 250.28
  A 1.86 1.73 -65.6 0 1 1013.16 250.15
  L 1026.29 246.64
  A 5.46 5.34 -48.5 0 1 1028.37 246.49
  C 1037.07 247.54 1045.61 250.96 1048.60 260.43
  A 0.55 0.54 -13.9 0 1 1048.17 261.13
  Z"
/>
<path fill="#ffffff" d="
  M 1146.52 795.77
  A 0.20 0.20 0.0 0 0 1146.31 795.43
  Q 1138.27 798.70 1132.99 804.35
  Q 1131.86 805.56 1129.51 804.78
  Q 1116.63 800.55 1103.83 793.18
  Q 1082.39 780.84 1072.12 774.25
  C 1067.70 771.41 1062.93 768.24 1059.87 764.56
  A 1.26 1.24 -62.9 0 1 1059.58 763.63
  Q 1059.79 761.25 1060.35 760.35
  Q 1065.21 752.56 1065.27 743.73
  Q 1065.29 741.11 1063.46 737.68
  A 0.24 0.24 0.0 0 0 1063.01 737.74
  C 1062.61 739.40 1063.25 742.15 1062.57 744.37
  C 1060.79 750.18 1055.94 757.55 1049.42 758.60
  Q 1038.16 760.41 1027.79 755.71
  C 1021.94 753.06 1016.25 747.85 1011.52 743.23
  C 1006.04 737.90 1000.93 730.13 1000.20 722.26
  Q 999.44 714.03 1005.34 708.86
  Q 1008.73 705.89 1013.72 704.75
  Q 1019.62 703.39 1025.17 703.47
  A 0.17 0.17 0.0 0 0 1025.22 703.14
  Q 1019.45 701.37 1012.25 700.78
  C 1008.43 700.47 1005.73 702.43 1002.62 703.61
  Q 999.85 704.67 997.80 702.46
  C 992.23 696.45 984.37 687.97 979.07 679.71
  Q 969.24 664.40 964.76 656.87
  C 960.53 649.75 956.64 644.46 952.90 638.31
  Q 950.46 634.27 950.79 630.92
  A 1.69 1.62 -23.9 0 1 951.14 630.07
  Q 952.83 627.95 953.63 627.55
  C 960.28 624.22 961.24 619.40 962.83 612.71
  Q 963.77 608.76 964.07 605.84
  A 0.08 0.07 30.0 0 0 964.05 605.77
  Q 963.95 605.64 963.98 605.36
  A 0.11 0.04 -66.0 0 0 963.87 605.48
  Q 963.76 606.62 963.62 606.88
  Q 959.21 614.99 958.81 615.56
  C 956.90 618.29 952.71 622.83 949.55 623.76
  Q 947.92 624.24 939.25 624.18
  A 1.92 1.89 63.0 0 1 938.11 623.80
  C 930.92 618.44 923.33 610.71 920.07 602.25
  Q 916.97 594.25 916.18 589.83
  Q 915.81 587.76 915.93 577.75
  Q 916.01 571.12 919.84 565.11
  C 922.80 560.46 925.92 557.65 931.52 556.85
  Q 938.70 555.82 944.34 557.36
  A 0.19 0.19 0.0 0 0 944.52 557.04
  Q 941.52 554.30 937.44 553.31
  Q 931.70 551.93 926.43 551.38
  A 1.64 1.60 -22.3 0 1 925.61 551.05
  Q 923.82 549.67 923.53 548.72
  C 922.52 545.39 922.86 541.55 922.25 538.15
  Q 922.22 538.00 920.91 528.21
  Q 920.26 523.34 920.31 518.26
  C 920.37 513.18 919.89 510.11 919.83 504.94
  Q 919.62 485.90 919.74 472.23
  A 0.91 0.90 -30.5 0 1 919.86 471.78
  Q 921.18 469.35 923.52 469.30
  C 930.05 469.17 934.90 465.34 939.54 460.80
  A 0.24 0.24 0.0 0 0 939.25 460.42
  Q 930.35 465.67 920.43 464.60
  A 3.99 3.98 -29.6 0 1 919.26 464.28
  Q 910.61 460.41 908.13 452.90
  Q 906.37 447.52 906.56 437.55
  C 906.77 426.03 911.64 415.71 920.90 408.23
  Q 927.10 403.21 934.87 403.86
  C 940.80 404.35 946.08 409.07 949.96 413.67
  A 0.11 0.11 0.0 0 0 950.14 413.56
  Q 949.23 410.82 947.94 408.83
  Q 943.65 402.23 935.21 398.39
  Q 931.87 396.86 932.83 392.80
  Q 939.27 365.63 949.11 340.33
  A 1.17 1.16 -79.1 0 1 950.23 339.57
  C 953.09 339.61 958.63 339.87 961.52 338.63
  Q 966.42 336.53 968.54 334.00
  Q 970.99 331.05 972.67 329.26
  A 0.26 0.26 0.0 0 0 972.40 328.83
  C 970.03 329.58 967.74 330.52 964.90 332.00
  Q 959.45 334.85 952.95 333.51
  C 949.29 332.76 946.21 333.04 943.25 331.32
  A 2.42 2.36 -0.7 0 1 942.44 330.55
  Q 938.75 324.90 939.35 318.39
  Q 940.27 308.42 944.58 299.87
  C 946.57 295.94 957.10 291.87 961.75 290.82
  A 7.12 7.02 -49.6 0 1 963.69 290.65
  C 971.24 291.04 976.70 290.79 980.96 295.82
  A 3.52 3.46 -78.2 0 1 981.50 296.66
  Q 984.36 302.86 985.53 309.59
  A 0.81 0.81 0.0 0 0 987.07 309.79
  C 989.22 305.14 987.98 300.15 986.00 295.47
  A 2.86 2.85 -35.0 0 1 986.54 292.40
  C 987.20 291.70 988.94 290.14 990.04 289.39
  Q 998.96 283.32 1008.43 277.39
  C 1012.28 274.97 1015.96 274.01 1019.57 271.56
  Q 1023.70 268.75 1030.45 266.01
  A 4.90 4.86 -57.3 0 1 1032.07 265.65
  Q 1039.73 265.29 1045.50 267.69
  Q 1049.27 269.25 1053.61 273.91
  A 2.11 2.07 16.9 0 1 1054.10 274.81
  Q 1054.99 278.39 1052.18 281.17
  C 1048.64 284.67 1045.44 287.29 1041.61 291.62
  C 1036.41 297.48 1034.41 300.00 1029.69 304.89
  C 1025.12 309.63 1021.85 315.58 1018.90 321.53
  C 1011.64 336.15 1006.44 351.70 1002.00 368.05
  C 998.59 380.59 996.66 392.94 993.99 405.50
  Q 993.07 409.81 992.85 412.78
  Q 992.34 419.46 991.18 430.27
  Q 990.19 439.49 990.22 447.78
  Q 990.23 452.45 990.27 466.37
  Q 990.29 472.72 991.11 481.61
  Q 991.81 489.21 991.59 496.87
  A 2.49 2.45 -54.0 0 0 991.73 497.80
  C 992.39 499.80 992.09 502.42 992.52 504.65
  Q 997.18 529.16 998.32 534.69
  C 999.91 542.42 1002.81 553.47 1006.20 562.52
  Q 1014.23 583.99 1018.64 593.36
  Q 1023.27 603.20 1032.40 620.11
  Q 1041.71 637.35 1051.90 651.82
  C 1065.56 671.24 1080.32 689.30 1098.04 705.45
  Q 1110.00 716.35 1122.96 724.18
  Q 1130.06 728.48 1132.35 730.05
  C 1146.73 739.88 1161.90 747.93 1178.16 754.24
  C 1187.20 757.75 1196.15 759.30 1205.55 761.99
  Q 1213.78 764.35 1224.89 766.51
  Q 1232.07 767.91 1250.07 769.44
  Q 1257.03 770.03 1259.00 769.84
  Q 1260.15 769.72 1275.67 767.67
  Q 1278.07 767.35 1288.43 763.52
  A 2.96 2.63 -55.5 0 1 1289.08 763.36
  Q 1292.99 762.85 1294.78 766.41
  Q 1297.74 772.28 1299.21 778.76
  Q 1299.89 781.75 1297.33 783.58
  C 1293.28 786.48 1289.59 789.62 1285.37 790.88
  Q 1282.83 791.63 1280.87 794.19
  A 0.98 0.97 -58.3 0 0 1281.21 795.65
  C 1287.07 798.60 1294.98 801.87 1293.75 809.26
  Q 1292.83 814.73 1292.37 817.42
  A 7.03 7.03 0.0 0 1 1290.87 820.72
  C 1288.35 823.80 1284.56 828.58 1281.19 831.29
  Q 1269.85 840.36 1254.53 837.16
  A 2.33 2.30 -14.2 0 1 1253.25 836.41
  L 1248.42 830.87
  A 2.52 2.42 19.6 0 1 1247.85 829.73
  Q 1246.74 824.45 1247.76 819.47
  A 0.29 0.29 0.0 0 0 1247.25 819.23
  Q 1244.58 822.59 1240.68 824.33
  A 6.87 6.80 -76.6 0 0 1239.06 825.34
  C 1235.55 828.21 1233.70 829.62 1229.50 829.12
  Q 1223.22 828.37 1216.93 827.64
  Q 1207.87 826.61 1206.59 826.63
  A 1.32 1.29 -22.6 0 1 1205.64 826.25
  L 1203.18 823.79
  A 0.98 0.95 -68.9 0 1 1202.90 823.13
  L 1202.81 817.33
  A 2.06 1.86 -56.1 0 0 1202.73 816.77
  Q 1200.63 809.89 1197.17 804.40
  Q 1195.97 802.48 1193.15 801.03
  A 0.20 0.20 0.0 0 0 1192.91 801.33
  Q 1194.84 803.70 1195.18 804.33
  Q 1198.48 810.46 1198.17 818.82
  A 4.10 4.02 -33.7 0 1 1197.90 820.10
  Q 1196.40 823.91 1196.10 824.29
  C 1193.87 827.12 1191.15 829.98 1187.59 831.81
  C 1184.17 833.57 1181.02 835.59 1177.17 836.15
  Q 1172.09 836.89 1170.99 836.73
  C 1167.60 836.22 1164.17 836.28 1161.31 835.77
  Q 1148.00 833.38 1138.32 823.47
  C 1137.15 822.27 1136.26 816.93 1136.07 815.51
  Q 1135.30 809.52 1139.09 804.21
  Q 1142.49 799.44 1146.52 795.77
  Z"
/>
<path fill="#ffffff" d="
  M 824.33 457.89
  Q 821.78 458.78 819.05 458.25
  A 0.40 0.39 8.2 0 1 818.73 457.83
  Q 819.32 450.08 825.27 444.48
  A 4.28 4.15 -79.5 0 1 826.27 443.77
  Q 830.77 441.40 833.11 435.85
  A 1.50 1.47 50.6 0 0 833.19 434.96
  C 831.77 428.48 830.17 423.35 833.73 417.51
  C 835.72 414.27 837.90 409.65 841.07 405.68
  C 847.27 397.92 851.29 387.75 858.47 379.73
  Q 860.50 377.46 871.83 364.33
  C 873.95 361.88 876.36 360.00 879.93 358.71
  Q 885.13 356.84 886.76 356.78
  Q 888.98 356.68 892.09 355.77
  Q 894.64 355.02 894.67 355.02
  Q 907.33 352.11 918.54 348.19
  Q 920.97 347.33 924.19 346.97
  C 927.86 346.56 930.49 344.23 934.51 344.43
  A 1.95 1.94 -27.4 0 1 935.40 344.71
  C 938.71 346.72 938.37 349.75 937.00 352.97
  C 931.95 364.87 928.73 377.35 925.98 389.99
  Q 924.30 397.67 917.10 400.77
  Q 916.27 401.13 912.56 404.26
  Q 910.76 405.79 908.91 408.64
  Q 898.86 424.14 899.59 442.76
  Q 900.03 454.16 907.32 462.47
  Q 907.40 462.56 910.71 466.25
  A 3.41 3.40 -70.6 0 1 911.53 467.97
  Q 911.83 469.86 911.74 471.75
  Q 910.36 500.59 911.02 530.34
  Q 911.18 537.36 911.94 541.61
  C 912.83 546.57 914.01 552.73 913.55 558.43
  A 4.10 4.02 62.4 0 1 913.04 560.11
  Q 906.39 571.91 907.94 584.76
  C 909.11 594.49 912.70 605.72 918.71 614.72
  Q 923.82 622.38 926.00 624.69
  Q 927.76 626.56 933.91 629.38
  C 937.64 631.09 938.52 632.31 940.45 636.01
  Q 956.57 666.78 964.14 679.62
  Q 966.79 684.12 973.34 691.92
  Q 987.25 708.49 992.06 714.37
  A 2.94 2.92 28.2 0 1 992.71 716.49
  L 992.24 721.35
  A 3.03 2.24 54.9 0 0 992.23 721.76
  C 992.80 731.07 997.71 737.53 1002.95 745.30
  Q 1005.14 748.54 1008.91 751.90
  C 1019.40 761.24 1030.82 767.49 1045.04 768.17
  A 5.71 5.66 -31.6 0 1 1047.05 768.64
  Q 1048.20 769.14 1052.11 771.74
  Q 1064.93 780.27 1074.56 787.96
  C 1079.02 791.52 1084.25 795.06 1090.63 797.97
  Q 1094.76 799.85 1099.88 802.74
  C 1109.33 808.08 1117.38 810.14 1129.52 813.30
  A 2.21 2.21 0.0 0 1 1131.17 815.57
  C 1130.90 820.22 1131.61 823.48 1134.41 827.45
  Q 1137.88 832.37 1139.00 833.27
  C 1141.89 835.58 1145.62 837.85 1145.88 840.73
  A 1.48 1.48 0.0 0 1 1145.63 841.70
  Q 1143.74 844.47 1142.37 845.39
  Q 1119.26 861.04 1098.45 876.72
  A 1.76 1.75 -65.6 0 1 1097.53 877.07
  C 1091.67 877.51 1085.00 875.52 1075.30 873.46
  C 1066.62 871.62 1057.55 867.59 1051.02 863.29
  Q 1048.50 861.64 1048.15 858.77
  A 0.65 0.65 0.0 0 0 1047.37 858.21
  C 1045.00 858.74 1041.87 863.10 1040.98 864.07
  A 1.57 1.55 -74.3 0 1 1040.12 864.56
  Q 1037.46 865.09 1036.53 864.71
  Q 1028.24 861.30 1018.85 858.01
  C 1015.00 856.66 1012.41 854.51 1008.93 852.91
  Q 993.65 845.90 977.14 837.25
  A 1.91 1.90 -67.0 0 1 976.22 834.96
  Q 976.84 833.08 975.39 831.06
  A 1.26 1.24 -48.8 0 1 975.31 829.74
  L 979.20 822.55
  A 2.96 2.91 82.4 0 1 979.69 821.90
  L 986.20 815.39
  A 0.31 0.30 24.1 0 0 986.00 814.87
  Q 984.79 814.80 983.04 815.11
  Q 971.98 817.09 961.73 823.59
  A 1.33 1.32 36.1 0 1 960.70 823.75
  Q 955.67 822.51 950.55 818.71
  Q 933.02 805.69 919.42 793.57
  Q 917.46 791.82 904.05 779.62
  Q 894.95 771.34 889.48 764.88
  Q 885.17 759.79 875.83 746.95
  Q 855.08 718.45 842.37 691.40
  C 841.23 688.98 840.47 686.01 839.21 683.46
  Q 829.30 663.29 822.84 641.69
  Q 819.71 631.25 819.50 626.98
  Q 819.07 618.28 818.73 615.51
  Q 817.40 604.46 814.17 590.79
  Q 813.58 588.29 812.36 576.45
  Q 811.71 570.17 811.70 562.01
  C 811.67 546.81 811.53 538.30 812.89 526.48
  C 814.54 512.00 815.57 497.70 817.02 484.00
  Q 817.36 480.77 818.69 476.19
  Q 821.97 464.86 823.77 459.74
  Q 824.00 459.07 824.66 458.42
  A 0.32 0.32 0.0 0 0 824.33 457.89
  Z"
/>
<path fill="#ffffff" d="
  M 762.78 599.79
  C 762.56 602.89 763.78 608.16 761.68 610.48
  C 757.46 615.15 753.15 608.81 750.41 606.24
  Q 747.88 603.87 744.12 604.82
  Q 734.45 607.27 721.42 611.65
  Q 718.40 612.67 715.88 612.35
  A 3.68 3.68 0.0 0 1 712.83 609.75
  Q 710.96 603.46 711.55 597.66
  A 1.63 1.62 -56.6 0 0 711.36 596.72
  Q 709.93 594.10 709.39 591.06
  C 703.70 559.24 700.39 529.26 695.32 502.65
  A 5.92 5.86 -65.9 0 0 694.63 500.81
  Q 692.76 497.65 692.12 493.98
  A 2.58 2.56 14.2 0 0 691.17 492.40
  Q 685.78 488.18 685.50 488.01
  C 680.55 485.05 676.92 482.22 672.53 479.68
  C 601.56 438.65 565.81 418.26 531.58 397.90
  Q 513.73 387.29 501.37 380.24
  C 499.94 379.43 496.40 376.89 496.81 374.63
  C 497.42 371.29 501.71 370.59 504.50 370.93
  C 655.18 389.36 742.69 399.74 781.08 404.92
  Q 783.72 405.27 785.24 408.49
  Q 791.61 421.89 804.66 455.86
  Q 806.23 459.97 806.02 461.51
  A 1.28 1.27 32.0 0 0 806.23 462.41
  C 808.39 465.56 807.61 470.09 806.85 474.19
  Q 805.35 482.17 803.67 488.42
  Q 801.28 497.35 800.79 502.15
  C 800.45 505.44 798.65 514.66 798.03 521.96
  Q 797.74 525.34 797.45 527.86
  Q 797.01 531.58 797.08 533.17
  C 797.20 535.76 796.56 537.57 796.56 540.28
  Q 796.52 568.69 796.51 568.97
  C 796.44 571.77 797.27 574.17 797.10 577.08
  Q 796.97 579.21 797.51 581.63
  Q 797.77 582.81 797.69 586.31
  A 1.96 1.95 60.1 0 1 797.45 587.21
  Q 796.29 589.38 793.15 590.38
  Q 778.39 595.06 763.13 599.36
  A 0.48 0.47 -6.0 0 0 762.78 599.79
  Z"
/>
<path fill="#ffffff" d="
  M 780.87 603.15
  Q 786.93 602.56 794.30 600.70
  Q 798.23 599.71 800.31 603.84
  A 2.49 2.47 -63.2 0 1 800.52 604.49
  Q 803.37 621.77 805.77 631.00
  Q 810.39 648.82 813.31 661.18
  C 815.78 671.60 820.37 681.73 826.36 695.99
  C 835.47 717.67 845.39 732.15 858.87 753.24
  Q 869.07 769.20 882.34 782.61
  Q 886.42 786.73 897.54 796.40
  Q 906.51 804.20 911.70 809.81
  Q 913.00 811.21 912.48 814.03
  C 911.99 816.70 905.47 819.84 903.53 821.38
  A 2.50 2.47 -67.7 0 1 902.31 821.90
  Q 897.18 822.63 894.40 821.15
  Q 870.74 808.56 852.33 790.88
  Q 840.86 779.87 831.10 769.07
  C 826.45 763.92 823.18 759.22 817.70 751.48
  C 808.04 737.86 800.77 724.43 794.52 709.04
  Q 790.93 700.17 788.34 693.44
  Q 784.73 684.07 779.93 665.27
  C 777.97 657.61 777.31 649.59 775.75 641.78
  C 773.87 632.36 773.31 621.53 774.08 613.03
  Q 774.54 608.02 779.48 603.74
  A 2.46 2.45 -67.9 0 1 780.87 603.15
  Z"
/>
<path fill="#ffffff" d="
  M 692.46 635.73
  L 693.02 632.64
  A 0.73 0.72 68.9 0 1 693.17 632.30
  Q 695.76 629.07 697.67 628.60
  Q 718.37 623.52 737.08 616.34
  Q 738.75 615.70 742.14 616.32
  A 3.15 3.12 69.1 0 1 743.51 616.94
  C 746.96 619.64 755.40 626.38 759.44 625.81
  A 1.56 1.55 63.0 0 1 760.75 626.24
  L 762.84 628.34
  A 1.53 1.49 -72.3 0 1 763.28 629.22
  Q 765.70 646.56 768.21 656.27
  Q 771.80 670.20 772.07 672.10
  Q 772.42 674.50 773.55 678.42
  C 776.11 687.29 779.51 695.53 784.61 706.17
  C 790.91 719.34 799.28 736.89 808.04 751.71
  Q 812.23 758.80 817.40 765.60
  Q 833.22 786.44 856.95 808.30
  Q 863.79 814.60 871.94 819.64
  C 874.16 821.01 875.30 823.10 875.84 825.94
  Q 877.74 835.94 879.67 843.28
  Q 880.49 846.42 878.54 849.02
  C 864.88 867.22 857.89 877.04 850.99 884.92
  A 3.21 3.20 19.7 0 1 848.67 886.01
  Q 845.76 886.11 844.18 885.55
  A 0.26 0.26 0.0 0 0 843.86 885.89
  Q 843.88 885.93 844.80 886.79
  C 846.37 888.25 846.31 890.64 845.10 892.12
  Q 838.10 900.67 827.77 913.02
  Q 827.69 913.12 825.53 915.11
  A 1.44 1.40 21.4 0 1 824.65 915.48
  C 820.18 915.67 812.75 915.84 806.86 914.74
  Q 799.05 913.28 788.11 911.88
  C 780.32 910.89 773.18 908.82 766.03 907.96
  A 8.98 8.95 -30.0 0 1 763.51 907.29
  Q 752.23 902.51 744.65 899.55
  Q 734.51 895.58 728.38 891.68
  Q 711.94 881.25 704.15 873.51
  Q 688.43 857.90 675.09 838.90
  Q 664.90 824.37 657.98 807.86
  C 650.72 790.56 644.70 772.27 642.95 754.02
  Q 641.53 739.21 641.25 716.43
  Q 641.16 709.15 642.39 701.64
  Q 643.96 692.11 646.52 672.80
  Q 646.92 669.76 649.52 663.23
  Q 653.18 654.06 656.94 644.99
  Q 658.97 640.09 664.45 638.71
  Q 673.27 636.48 683.55 633.06
  Q 687.46 631.76 688.59 632.04
  Q 690.92 632.61 691.96 635.76
  A 0.26 0.26 0.0 0 0 692.46 635.73
  Z"
/>
<path fill="#ffffff" d="
  M 626.95 687.79
  Q 620.93 685.02 617.19 681.33
  Q 612.10 676.28 608.41 670.89
  C 603.66 663.95 597.95 658.36 592.40 652.50
  Q 588.60 648.48 583.46 646.80
  C 581.64 646.21 579.96 645.35 578.72 644.25
  A 0.46 0.46 0.0 0 1 579.10 643.45
  Q 596.14 646.01 611.56 652.94
  C 614.54 654.29 616.64 655.39 618.76 657.88
  Q 625.19 665.50 629.71 671.90
  A 1.06 1.04 -58.5 0 1 629.89 672.68
  L 627.43 687.53
  A 0.35 0.34 16.4 0 1 626.95 687.79
  Z"
/>
<path fill="#ffffff" d="
  M 323.30 887.07
  C 326.35 884.58 329.02 882.25 331.70 880.48
  C 336.63 877.20 340.69 874.70 345.43 870.83
  Q 350.36 866.81 352.46 865.69
  Q 367.43 857.74 383.53 850.02
  C 388.64 847.57 396.28 844.17 403.22 842.48
  Q 413.78 839.91 427.89 835.02
  Q 443.72 829.55 448.01 828.75
  Q 459.66 826.60 468.93 825.87
  A 0.24 0.24 0.0 0 1 469.03 826.33
  Q 446.26 834.28 427.49 842.76
  C 417.32 847.35 404.64 854.87 395.99 859.25
  Q 386.21 864.19 369.51 873.40
  C 358.73 879.34 350.07 886.90 341.05 895.41
  A 4.60 4.56 11.0 0 1 339.76 896.27
  Q 334.39 898.64 328.31 904.82
  Q 320.40 912.86 315.18 919.42
  Q 303.53 934.07 291.37 949.37
  Q 265.39 982.08 245.96 1015.42
  Q 238.45 1028.31 231.95 1046.69
  Q 226.63 1061.74 220.96 1078.00
  C 216.58 1090.57 213.02 1107.48 210.20 1116.84
  C 207.91 1124.44 206.99 1130.96 205.07 1138.44
  C 202.94 1146.72 201.73 1155.82 200.47 1164.18
  A 0.15 0.15 0.0 0 0 200.76 1164.25
  C 206.31 1148.53 212.01 1132.79 220.89 1119.00
  C 225.95 1111.15 229.26 1104.68 234.51 1097.71
  C 244.90 1083.93 255.73 1072.74 269.20 1058.96
  Q 279.10 1048.82 301.51 1030.37
  C 312.38 1021.42 324.55 1014.58 337.22 1006.22
  Q 340.77 1003.87 344.54 1002.03
  Q 353.25 997.76 385.45 982.95
  Q 395.97 978.11 407.50 974.97
  A 0.10 0.10 0.0 0 1 407.58 975.14
  Q 393.44 985.29 380.22 997.47
  Q 370.37 1006.54 352.94 1025.87
  C 342.44 1037.51 333.64 1051.30 323.75 1064.51
  A 0.10 0.10 0.0 0 0 323.90 1064.65
  Q 338.79 1052.08 354.82 1042.33
  Q 364.54 1036.42 372.16 1033.45
  C 378.22 1031.09 382.94 1028.67 388.63 1026.23
  Q 404.09 1019.58 421.99 1013.41
  Q 433.63 1009.40 442.08 1005.83
  Q 468.70 994.58 496.17 986.19
  Q 511.71 981.44 519.59 978.04
  Q 536.38 970.80 546.42 965.41
  Q 566.64 954.56 584.58 939.47
  C 592.16 933.10 598.93 925.99 605.95 919.24
  A 0.29 0.29 0.0 0 1 606.43 919.55
  Q 599.52 939.12 592.70 955.19
  Q 587.89 966.51 577.88 979.39
  Q 566.21 994.41 552.61 1007.91
  A 0.02 0.02 0.0 0 0 552.63 1007.94
  Q 564.39 1003.06 576.99 995.54
  Q 584.81 990.86 593.07 984.24
  C 603.84 975.59 612.92 969.86 621.50 960.75
  C 632.58 948.98 642.51 938.40 652.19 925.19
  Q 657.10 918.50 659.86 913.37
  C 667.54 899.13 673.16 883.32 679.09 869.26
  A 0.42 0.42 0.0 0 1 679.79 869.15
  Q 701.26 893.55 730.40 908.62
  Q 738.80 912.97 743.37 914.65
  Q 762.28 921.62 783.61 927.82
  C 785.57 928.39 786.58 927.93 787.40 930.38
  Q 791.10 941.52 790.23 952.49
  Q 788.88 969.42 785.44 984.78
  Q 782.85 996.27 779.33 1004.64
  C 773.72 1017.96 765.81 1030.48 757.29 1041.72
  A 0.73 0.73 0.0 0 1 755.98 1041.36
  Q 755.83 1039.84 754.61 1029.58
  C 753.12 1017.06 748.86 1006.55 741.06 996.40
  A 0.50 0.50 0.0 0 0 740.20 996.53
  C 735.25 1009.67 728.51 1020.54 719.82 1034.44
  C 711.78 1047.29 704.71 1055.82 695.18 1068.91
  Q 690.85 1074.85 686.73 1078.56
  Q 681.85 1082.95 677.02 1087.01
  A 0.58 0.58 0.0 0 1 676.12 1086.32
  Q 677.35 1083.63 679.75 1080.84
  A 6.18 5.73 -11.9 0 0 680.43 1079.88
  C 688.95 1065.07 694.74 1051.40 702.61 1035.31
  C 706.28 1027.81 709.79 1020.18 711.50 1012.33
  C 712.35 1008.46 713.50 1005.25 714.25 1001.78
  Q 717.43 987.07 719.75 970.49
  Q 721.30 959.39 721.57 949.45
  A 0.30 0.30 0.0 0 0 720.99 949.34
  C 719.39 953.85 716.88 959.67 714.39 964.73
  Q 707.64 978.42 703.10 989.83
  C 696.62 1006.12 687.74 1020.99 673.48 1044.47
  C 662.72 1062.21 651.36 1079.08 638.29 1094.68
  Q 634.36 1099.37 628.11 1105.73
  Q 618.13 1115.89 616.01 1117.99
  Q 608.00 1125.95 596.33 1134.79
  Q 588.17 1140.96 583.50 1145.13
  Q 569.06 1158.02 564.96 1160.96
  Q 551.33 1170.71 530.10 1183.64
  Q 522.84 1188.06 517.97 1190.26
  Q 513.07 1192.48 505.39 1196.25
  A 0.50 0.49 62.3 0 1 504.74 1196.04
  L 504.73 1196.02
  A 0.52 0.52 0.0 0 1 504.91 1195.33
  Q 512.20 1190.93 519.60 1184.59
  Q 526.90 1178.35 529.97 1175.94
  Q 536.97 1170.43 540.04 1167.00
  Q 546.67 1159.61 548.97 1155.71
  Q 553.17 1148.58 556.17 1144.02
  C 558.93 1139.82 560.28 1135.58 563.11 1131.33
  A 8.18 7.97 71.7 0 0 564.04 1129.42
  Q 570.22 1110.80 572.41 1104.12
  C 576.68 1091.08 579.11 1081.01 582.85 1067.57
  A 0.20 0.20 0.0 0 0 582.50 1067.39
  Q 574.00 1077.79 568.15 1083.91
  Q 554.63 1098.04 544.30 1109.05
  Q 528.17 1126.21 518.40 1134.64
  Q 509.67 1142.17 503.63 1147.39
  C 489.44 1159.66 474.89 1169.77 458.88 1180.89
  Q 450.33 1186.82 436.90 1194.43
  C 425.86 1200.68 413.76 1208.25 401.57 1214.97
  C 381.25 1226.17 367.51 1233.47 353.97 1241.41
  C 344.82 1246.77 338.02 1251.34 329.55 1254.91
  Q 322.45 1257.90 315.24 1261.00
  A 0.22 0.22 0.0 0 1 314.95 1260.72
  Q 315.17 1260.11 315.52 1259.76
  Q 341.96 1233.70 348.12 1227.23
  C 355.57 1219.40 361.72 1211.79 368.44 1205.13
  Q 388.94 1184.80 403.14 1168.39
  Q 424.33 1143.90 442.46 1115.85
  A 0.21 0.20 36.3 0 0 442.41 1115.58
  L 442.41 1115.57
  A 0.26 0.25 38.8 0 0 442.07 1115.60
  Q 434.97 1123.44 431.49 1127.50
  Q 408.92 1153.81 371.48 1191.98
  Q 346.43 1217.52 326.32 1232.88
  Q 317.84 1239.36 310.77 1245.80
  Q 294.54 1260.59 272.88 1277.88
  Q 266.23 1283.19 261.14 1288.89
  Q 247.28 1304.43 236.95 1314.82
  C 232.35 1319.44 227.30 1325.72 224.44 1329.72
  Q 221.82 1333.40 220.17 1334.93
  C 216.24 1338.62 213.68 1342.87 210.68 1347.47
  Q 209.31 1349.58 207.12 1353.28
  Q 200.24 1364.87 195.42 1371.90
  C 189.57 1380.42 184.31 1392.94 178.76 1403.25
  Q 172.89 1414.15 169.41 1425.64
  Q 161.81 1450.72 160.50 1470.01
  Q 159.63 1482.91 158.38 1497.84
  Q 158.08 1501.42 158.18 1504.65
  Q 158.39 1510.97 158.32 1511.49
  A 0.24 0.24 0.0 0 1 157.89 1511.61
  Q 157.11 1510.66 157.01 1510.41
  Q 149.74 1491.18 147.97 1470.11
  A 0.41 0.41 0.0 0 0 147.15 1470.09
  Q 144.49 1490.84 143.90 1510.50
  Q 143.26 1532.32 144.74 1548.00
  Q 144.94 1550.08 148.33 1568.07
  Q 150.47 1579.38 153.54 1587.81
  C 162.13 1611.34 174.45 1633.40 189.40 1653.86
  Q 189.62 1654.17 189.64 1654.53
  A 0.12 0.12 0.0 0 1 189.45 1654.63
  Q 153.64 1624.63 127.33 1586.18
  C 119.89 1575.31 114.85 1564.27 108.96 1552.34
  Q 99.04 1532.27 91.33 1510.43
  Q 76.97 1469.76 66.93 1424.37
  Q 63.98 1411.04 60.41 1393.51
  Q 58.84 1385.82 58.58 1383.70
  C 58.00 1379.10 56.76 1375.35 56.08 1370.64
  C 53.76 1354.62 52.14 1344.13 51.11 1330.12
  Q 49.75 1311.75 48.73 1292.53
  Q 47.49 1269.35 48.65 1236.42
  C 48.73 1234.33 48.33 1232.21 48.24 1230.76
  Q 47.94 1225.85 49.23 1214.55
  Q 49.67 1210.75 49.81 1208.92
  Q 50.13 1204.91 50.37 1203.26
  Q 51.20 1197.47 58.92 1130.52
  Q 59.28 1127.35 59.67 1124.39
  Q 60.09 1121.21 60.75 1118.29
  Q 65.27 1098.20 68.23 1087.70
  Q 75.24 1062.81 77.45 1054.35
  Q 79.93 1044.79 82.95 1037.50
  Q 91.02 1018.03 98.63 1000.73
  C 99.25 999.32 100.39 997.93 101.03 996.54
  Q 105.07 987.88 106.25 985.09
  C 109.59 977.16 113.94 971.43 117.76 963.84
  Q 119.44 960.52 123.36 953.69
  Q 135.12 933.15 147.58 915.59
  A 0.07 0.07 0.0 0 0 147.48 915.50
  Q 134.18 927.38 120.71 940.70
  Q 96.00 965.13 75.57 993.34
  Q 63.19 1010.45 52.61 1028.95
  Q 43.05 1045.65 32.55 1066.30
  Q 26.70 1077.81 21.40 1091.63
  Q 15.19 1107.85 12.24 1117.48
  Q 12.14 1117.81 11.33 1118.83
  A 0.21 0.21 0.0 0 1 10.96 1118.71
  Q 10.84 1115.91 11.89 1111.62
  C 14.47 1101.04 18.90 1082.11 23.81 1068.03
  Q 25.51 1063.16 30.19 1048.44
  Q 31.47 1044.40 36.11 1032.45
  Q 39.29 1024.28 42.68 1016.72
  Q 55.42 988.36 66.07 968.30
  Q 73.27 954.71 82.38 940.85
  Q 88.60 931.39 101.16 915.04
  Q 110.56 902.80 124.01 885.26
  Q 131.02 876.14 143.13 864.63
  Q 162.88 845.86 179.81 831.82
  Q 183.16 829.04 186.18 826.93
  Q 221.73 802.17 240.90 790.16
  Q 244.47 787.93 255.49 782.61
  Q 260.37 780.25 270.58 776.13
  Q 287.69 769.23 307.74 760.50
  C 315.86 756.97 325.21 753.30 334.85 751.13
  Q 354.41 746.73 356.51 746.47
  Q 366.36 745.23 374.58 743.48
  Q 388.17 740.59 392.51 739.85
  Q 413.78 736.23 436.76 734.78
  Q 445.25 734.24 454.21 734.49
  A 0.21 0.20 -31.0 0 0 454.31 734.10
  Q 436.98 725.48 416.36 717.62
  Q 410.55 715.41 405.45 714.73
  Q 401.71 714.23 396.79 713.21
  Q 383.16 710.37 375.50 710.42
  Q 352.34 710.54 329.81 714.66
  Q 307.72 718.69 287.26 724.99
  A 0.39 0.39 0.0 0 1 286.86 724.35
  Q 292.97 717.69 300.49 713.27
  C 309.42 708.02 318.46 702.08 326.57 697.97
  Q 332.14 695.15 348.71 686.67
  Q 357.54 682.15 371.32 676.35
  Q 377.01 673.96 385.82 671.62
  Q 393.20 669.66 408.06 666.39
  Q 408.98 666.19 419.89 663.27
  Q 426.06 661.61 431.87 660.88
  A 0.01 0.00 52.0 0 0 431.87 660.87
  Q 429.13 659.99 427.03 659.97
  C 424.40 659.94 422.32 658.86 419.76 658.80
  Q 408.85 658.52 398.51 657.30
  Q 394.91 656.87 387.17 657.15
  Q 377.06 657.51 375.82 657.54
  Q 366.05 657.80 359.36 658.57
  A 0.44 0.44 0.0 0 1 359.09 657.75
  C 364.53 654.67 371.50 653.06 378.23 652.02
  Q 386.97 650.67 395.92 649.32
  Q 398.08 649.00 402.62 648.56
  C 420.23 646.85 437.12 645.30 454.25 647.30
  Q 497.48 652.37 533.73 667.56
  Q 543.06 671.48 555.34 678.35
  A 0.26 0.25 31.4 0 0 555.68 678.27
  L 555.68 678.26
  A 0.21 0.20 -56.3 0 0 555.63 677.98
  Q 548.87 673.07 547.71 672.37
  Q 544.60 670.51 539.84 666.70
  C 534.67 662.56 527.83 658.74 521.15 654.69
  C 516.50 651.87 512.30 650.10 508.40 647.20
  A 0.40 0.40 0.0 0 1 508.72 646.48
  C 531.98 651.18 555.86 656.72 577.41 666.04
  Q 603.76 677.44 626.58 691.97
  A 1.22 1.21 -72.5 0 1 627.15 693.07
  Q 626.02 716.08 626.15 741.77
  C 626.20 752.82 628.79 763.79 631.27 775.20
  A 0.38 0.38 0.0 0 1 630.84 775.66
  C 627.05 775.15 623.33 774.75 619.36 774.88
  C 607.05 775.28 600.21 775.70 589.55 775.70
  Q 587.25 775.70 562.47 776.05
  Q 549.89 776.23 542.07 777.27
  Q 537.51 777.88 528.49 778.79
  Q 523.16 779.32 515.09 781.23
  Q 487.99 787.63 469.30 791.51
  C 460.89 793.25 456.30 794.10 449.12 796.75
  C 434.17 802.27 427.03 804.45 417.03 809.77
  Q 403.02 817.24 388.13 825.79
  C 380.11 830.38 374.32 834.82 367.12 839.60
  Q 363.65 841.90 359.25 845.85
  Q 353.64 850.88 344.85 860.59
  Q 331.96 874.82 323.16 886.94
  A 0.10 0.10 0.0 0 0 323.30 887.07
  Z"
/>
<path fill="#ffffff" d="
  M 1464.74 705.10
  Q 1464.77 703.21 1464.32 701.85
  A 3.02 3.02 0.0 0 1 1465.52 698.37
  C 1472.94 693.49 1480.59 686.50 1483.65 684.16
  Q 1484.45 683.56 1489.01 682.08
  C 1496.85 679.54 1504.10 682.40 1506.71 690.46
  C 1507.25 692.13 1506.04 693.30 1505.00 694.46
  Q 1500.01 700.07 1496.49 702.63
  Q 1487.18 709.40 1476.26 708.52
  Q 1470.12 708.02 1466.57 707.36
  A 2.26 2.25 6.1 0 1 1464.74 705.10
  Z"
/>
<path fill="#ffffff" d="
  M 996.34 864.67
  Q 998.81 863.76 1000.64 864.46
  Q 1009.46 867.85 1013.14 869.18
  A 3.51 3.46 -13.4 0 1 1014.33 869.90
  Q 1017.46 872.80 1018.16 873.93
  Q 1045.17 917.92 1049.71 925.55
  Q 1051.22 928.09 1050.42 931.30
  Q 1049.58 934.70 1049.64 939.21
  A 3.28 3.24 -33.0 0 1 1049.32 940.66
  C 1046.42 946.77 1043.99 951.38 1042.59 956.82
  A 4.20 4.04 -22.6 0 1 1042.09 957.97
  L 874.14 1221.35
  A 2.67 2.65 20.3 0 1 871.51 1222.55
  Q 865.78 1221.68 866.97 1215.74
  Q 891.69 1091.72 918.08 961.30
  A 3.87 3.59 52.3 0 0 918.14 960.63
  Q 918.07 953.33 913.33 946.79
  Q 893.73 919.77 873.75 899.33
  Q 872.81 898.37 867.87 892.22
  C 865.81 889.66 865.77 887.16 867.83 884.83
  C 873.19 878.78 884.69 865.43 893.82 854.29
  A 2.66 2.64 59.2 0 0 894.37 852.08
  Q 893.23 846.37 892.05 840.49
  Q 891.14 835.96 895.19 834.21
  A 0.94 0.92 -55.9 0 1 895.63 834.12
  L 899.93 834.26
  A 1.54 1.49 61.2 0 1 900.71 834.50
  Q 904.40 836.89 907.96 837.00
  Q 909.89 837.06 911.54 835.03
  Q 912.28 834.12 919.63 824.12
  Q 921.65 821.37 924.47 821.51
  Q 926.65 821.62 929.43 824.06
  Q 937.19 830.89 943.08 834.17
  Q 956.02 841.40 960.50 844.09
  Q 974.09 852.25 990.32 859.86
  Q 991.73 860.52 995.43 864.46
  A 0.85 0.83 57.5 0 0 996.34 864.67
  Z"
/>
<path fill="#ffffff" d="
  M 808.23 1030.53
  L 810.78 1018.45
  A 5.75 5.67 49.2 0 0 810.89 1016.77
  Q 809.43 997.68 808.85 992.89
  Q 808.12 986.77 805.80 979.74
  A 1.37 0.92 59.5 0 1 805.75 979.56
  L 802.85 964.71
  A 0.19 0.15 38.0 0 0 802.83 964.63
  L 800.13 958.13
  A 0.94 0.94 0.0 0 1 801.18 956.84
  Q 803.15 957.23 805.00 958.77
  C 815.46 967.51 822.56 978.74 825.00 992.10
  A 8.30 8.27 44.9 0 1 825.01 995.04
  Q 823.65 1002.72 822.54 1005.53
  Q 817.53 1018.17 812.75 1026.07
  Q 811.26 1028.53 809.03 1030.94
  A 0.47 0.47 0.0 0 1 808.23 1030.53
  Z"
/>
<path fill="#ffffff" d="
  M 629.12 1162.96
  Q 630.43 1161.37 633.04 1160.56
  C 640.93 1158.10 645.02 1156.76 651.34 1152.77
  Q 681.86 1133.50 695.45 1101.40
  Q 698.26 1094.75 700.61 1091.46
  C 705.69 1084.34 711.13 1079.48 718.11 1073.80
  C 722.98 1069.84 729.34 1066.86 734.24 1062.31
  C 735.89 1060.78 737.41 1059.95 739.61 1058.50
  A 0.72 0.72 0.0 0 1 740.71 1059.21
  C 739.88 1064.57 738.96 1069.71 737.38 1074.85
  Q 732.01 1092.30 722.61 1111.65
  C 721.41 1114.12 719.65 1116.61 718.33 1119.26
  Q 715.24 1125.46 712.89 1128.14
  C 701.50 1141.09 686.03 1150.46 669.88 1158.08
  A 13.66 13.65 28.3 0 1 665.94 1159.26
  Q 641.53 1162.71 640.84 1162.83
  C 636.99 1163.52 633.16 1163.22 629.42 1163.54
  A 0.36 0.35 -72.6 0 1 629.12 1162.96
  Z"
/>
</svg>
