<?xml version="1.0" encoding="UTF-8"?>
<svg id="Layer_2" data-name="Layer 2" xmlns="http://www.w3.org/2000/svg" viewBox="0 0 209.44 250.23">
  <defs>
    <style>
      .cls-1 {
        fill: #07050a;
      }

      .cls-1, .cls-2 {
        stroke-width: 0px;
      }

      .cls-2 {
        fill: #fff;
      }
    </style>
  </defs>
  <g id="Layer_1-2" data-name="Layer 1">
    <path class="cls-2" d="m174.82,105.65l-18.98,80.4c0,.05-.04.09-.09.09s-.09-.04-.09-.09l-22.5-88.59-6.43-23.99s-.03-.06-.05-.08c0,0-.01,0-.01-.01-.02-.02-.04-.03-.07-.03-.03-.01-.05-.01-.08,0-.02,0-.04,0-.06.03l-.03.03s-.02.04-.03.06l-21.1,71.15c-.07.21-.26.34-.47.34-.38-.01-.64-.24-.77-.69-1.01-3.33-8-26.87-20.97-70.61-.02-.05-.04-.09-.07-.11-.03-.03-.07-.06-.12-.06-.07-.02-.14,0-.19.05-.02.02-.03.03-.04.06-.02.02-.03.04-.03.07l-6.34,23.76-22.53,88.62s-.02.05-.04.06c0,.02-.03.03-.05.03-.03,0-.05-.01-.06-.03-.02,0-.03-.04-.03-.06l-18.82-79.83.55-1.26c.04-.09.07-.18.09-.27L54.96.46c.05-.26.28-.45.55-.45h35.45c.57,0,1.08.39,1.23.95l12.4,47.22c0,.07.05.12.12.12.06,0,.11-.05.12-.12L117.26.84c.12-.49.58-.84,1.1-.84h35.58c.24,0,.46.18.51.42,2.51,13.21,9.01,47.91,19.49,104.11.1.58.4.95.88,1.12Z"/>
    <path class="cls-1" d="m209.44,105.32s-.01.11-.02.17l-37.87,144.21c-.09.31-.37.53-.69.53h-24.3c-.47,0-.88-.31-1-.77l-13.9-52.95c-.02-.09-.12-.15-.21-.12-.07.01-.12.07-.13.13l-13.27,53.06c-.1.38-.44.65-.83.65h-25.09c-.35,0-.66-.24-.74-.57l-13.31-53.23c-.02-.08-.1-.13-.18-.11-.06.01-.1.05-.11.1l-13.94,53.05c-.12.45-.52.76-.98.76h-24.32c-.32,0-.6-.21-.67-.52L.03,105.56c-.11-.39.12-.79.51-.89.06-.02.13-.03.2-.03h32.72c.32,0,.63.16.83.42.2.28.36.67.48,1.16l18.82,79.83s0,.05.03.06c.01.02.03.03.06.03.02,0,.04-.01.05-.03.02,0,.03-.03.04-.06l22.53-88.62,28.33,93.67s.03.08.08.08c.04,0,.08-.04.08-.08l28.37-93.64,22.5,88.59c0,.05.04.09.09.09s.09-.04.09-.09l18.98-80.4c.06-.21.15-.4.27-.56.2-.28.52-.45.86-.45h32.82c.37,0,.67.3.67.68Z"/>
  </g>
</svg>