<?xml version="1.0" encoding="UTF-8"?>
<svg id="Layer_2" data-name="Layer 2" xmlns="http://www.w3.org/2000/svg" viewBox="0 0 620.7 557.97">
  <defs>
    <style>
      .cls-1 {
        fill: #fff;
        stroke-width: 0px;
      }
    </style>
  </defs>
  <g id="Layer_1-2" data-name="Layer 1">
    <path class="cls-1" d="m307.03,182.71c.04.17-.06.34-.23.39-.09.02-.18,0-.25-.05-22.14-14.99-46.17-26.66-72.08-35.01-29.4-9.47-59.6-15.15-90.6-17.05-.48-.03-.84-.45-.81-.92,0-.09.03-.18.06-.26,23.26-57.93,69.51-102.39,129.43-120.79,46.55-14.3,96.7-11.55,141.3,7.85,39.84,17.34,73.73,47.77,95.4,85.34,23.27,40.35,30.62,86.67,22.57,132.54-.78,4.45-1.77,10.5-2.96,18.15-.03.21-.1.41-.2.6l-5.83,11.48c-.14.29-.39.51-.7.61-8.95,3.07-18.34,3.69-26.66-.73-.13-.07-.25-.16-.34-.27l-3.44-3.96c-.29-.33-.79-.36-1.12-.07-.11.09-.19.21-.23.34-3.43,10.03-2.08,19.19,4.07,27.47.21.28.18.68-.06.94-5.95,6.29-19.66,5.17-27.6,3.54-.3-.06-.59.13-.65.43-.02.12,0,.24.04.34l8.35,18.21c.07.14.02.31-.11.4-10.34,7.78-21.94,10.51-34.8,8.18-.28-.05-.55.14-.6.41-.01.08,0,.16.01.24l4.7,16.18c.05.16-.03.33-.18.39-9.9,3.86-19.92,4.52-30.05,1.97-.28-.07-.57.11-.64.4,0,.01,0,.02,0,.03-.54,3.06-1.54,6.12-3.01,9.19-2.34,4.92-6.46,7.04-12.36,6.35-6.98-.82-11.28-2.31-19.35-5.15-.28-.1-.58.03-.71.29-7.15,14.07-18.28,23.65-33.4,28.76-.31.1-.64.07-.92-.1-10.88-6.33-22.55-11.47-35.02-15.42-10.65-3.37-17.39-5.56-20.22-6.55-4.84-1.69-8.87-3.73-12.1-6.12-6.24-4.6-4.74-13.08-3.12-19.85,2.23-9.3,5.67-19.18,10.33-29.64,16.09-36.16,36.69-69.33,61.8-99.5.21-.25.22-.61.03-.88-6.39-9.04-10.8-15.36-13.23-18.96-11.99-17.76-7.44-43.19,2.33-60.76.09-.16.03-.36-.12-.45-.09-.05-.21-.06-.31-.01-8.11,3.72-15.17,10.6-20.16,18.7-8.03,13.04-10.11,27.3-6.24,42.78Z"/>
    <path class="cls-1" d="m84.62,65.2c-.14,0-.24-.13-.23-.27,0-.11.08-.19.18-.22,11.22-3,24.21-4.4,35.25-5.09,16.69-1.05,33.21.49,49.58,4.61.29.08.46.37.39.65-.02.08-.06.15-.12.22-13.01,14.47-23.68,30.7-32.01,48.71-.08.19-.3.27-.49.18-.11-.05-.19-.15-.21-.26-3.85-19.72-15.74-35.63-33.9-43.78-6.15-2.75-12.29-4.34-18.44-4.75Z"/>
    <path class="cls-1" d="m314.59,208.93c-15.49-13.74-32.84-24.81-52.07-33.23-21.12-9.25-42.91-16.01-65.38-20.29-29.94-5.7-59.68-8.05-89.21-7.05-36.14,1.23-68.47,4.5-99.41,15.07-3.13,1.07-5.91,1.96-8.32,2.67-.12.04-.2.16-.2.28,0,.16.13.27.28.26,37.01-1.21,60.81,23.94,70.27,57.49,8.49,30.1,8.59,62,2.6,92.63-.02.1,0,.2.06.29.12.17.36.21.53.09,9.9-6.76,20.22-12.07,30.97-15.93,8.53-3.06,17.6-5.47,27.21-7.23,18.58-3.41,40.73-3.17,58.45,3.45,16.99,6.35,28.68,17.67,35.08,33.95,4.37,11.12,5.81,23.96,6.25,36.35,0,.18.12.33.28.37.2.04.4-.08.45-.28,1.22-4.31,2.75-8.87,4.59-13.67,18.95-49.55,43.31-95.45,73.08-137.7,1.34-1.9,2.88-3.94,4.61-6.14.33-.42.28-1.02-.12-1.38Zm-14.78-3.96c-.07.13-.2.22-.35.22-34.03,1.03-68.3,10.04-99.28,23.64-18.72,8.23-37.5,18.52-56.34,30.88-13.3,8.73-22.76,15.28-28.38,19.64-14.17,11-21.89,17-23.17,18.02-.16.14-.4.13-.54-.03-.12-.14-.12-.34-.01-.49,7.63-10.84,16.68-20.51,26.48-30.27,30.86-30.75,70.77-54.32,113.41-64.79,10-2.46,20.18-3.97,30.53-4.55,13.24-.73,25.73,1.66,37.46,7.18.2.1.29.35.19.55Z"/>
    <path class="cls-1" d="m619.6,335.88l-19.85-7.75c-.12-.04-.21-.14-.26-.26-.09-.23.03-.5.27-.59l16.43-6.2s.09-.05.12-.1c.07-.11.03-.26-.08-.32-9.84-6.03-21.78-5.34-32.67-2.79-.92.22-1.88.03-2.66-.51-7.21-4.99-14.8-9.39-22.78-13.2-.04-.02-.08-.05-.11-.08-.13-.15-.12-.37.02-.5,2.59-2.32,5.66-4.99,8.7-7.19,16.01-11.54,31.62-22.25,46.84-32.11.23-.14.34-.41.29-.67-2.45-11.94-9.28-22.23-21.69-25.32-5.55-1.38-11.28-2.04-17.19-1.97-.03,0-.05,0-.08.01-.25.04-.42.28-.38.53.02.13.36.98,1.01,2.54,2.14,5.12,1.63,9.86-1.53,14.21-2.18,2.99-5.38,6.25-9.09,6.9-2.96.52-7.21,1.1-12.75,1.75-9.57,1.12-19.16,5.21-23.79,14.02-.2.4-.61.65-1.05.66-4.34.11-9.73.09-13.26,2.53-2.15,1.49-4.12,3.59-5.89,6.31-11.12,17.08-17.78,27.61-26.43,43.59-8.62,15.92-20.81,30.75-37.74,38.13-7.52,3.29-14.55,4.12-23.64,5.18-13.29,1.56-23.94,9.56-33.16,19.14-.83.86-3.55,4.3-8.16,10.32-2.74,3.58-6.52,6.43-11.34,8.54-6.91,3.02-15.48-.48-20.83-4.75-14.86-11.86-30.7-20.68-47.53-26.45-3.07-1.05-9.71-3.17-19.91-6.37-12.1-3.79-22.16-9.62-26.68-22.23-.03-.08-.09-.13-.17-.15-.13-.03-.26.05-.29.18-2.34,9.8-3.1,17.17,3.71,25.43,3.47,4.23,11.74,12.62,17.66,20.3,0,.02.03.04.04.06.16.25.07.59-.18.74-5.47,3.4-16.09,10.32-31.84,20.74-13.91,9.21-29.05,13.46-45.43,12.75-28.18-1.22-58.16-13.08-76.17-35.47-7.88-9.81-14.03-24.87-7.8-36.77,2.89-5.54,7.65-8.67,13.91-8.95,6.61-.28,15.14,3.73,18.4,9.8.05.08.12.15.21.18.21.09.45-.02.53-.23,2.23-5.98-1.45-14.22-5.51-18.3-9.97-10.04-24.35-11.88-37.59-9.97-8.54,1.23-16.05,4.47-22.54,9.72-10.27,8.32-14.86,19-13.77,32.02.86,10.19,6.07,18.54,13.6,25.24.06.05.15.07.23.06.14-.04.22-.18.19-.32-3.16-12.33-1.76-24.3,4.19-35.91.06-.12.18-.19.32-.19.19,0,.34.17.34.36-.13,11.36,1.93,22.63,6.18,33.8,20.95,55.17,80.06,86,137.74,76.61,1.85-.3,3.71-.81,5.6-1.51.34-.12.56-.45.56-.81.03-9.48,3.01-18.94,8.94-28.4.1-.16.28-.26.47-.27.32-.01.59.24.6.56.33,9.8.23,19.23-.3,28.29-.74,12.45-4.33,25.48-12.71,35.04-4.04,4.61-11.44,8.59-14.18,12.37-.25.34-.37.75-.35,1.16l.42,9.29c.01.17.04.34.11.5,1.52,3.69,2.68,6.16,3.47,7.4,6.28,9.92,10.64,16.98,13.08,21.16.2.35.58.56.98.56h20.11c.36-.03.63-.34.6-.7-.35-4.74-1.46-9.13-3.32-13.17-.09-.2-.06-.43.08-.6.21-.25.57-.28.82-.08,4.33,3.67,7.73,8.31,10.2,13.93.16.37.53.61.94.61h13.18c.07,0,.13-.01.2-.03.27-.11.4-.41.3-.69l-4.61-12.23c-.05-.15-.03-.32.07-.44.16-.21.45-.25.66-.09,4.17,3.33,7.29,7.65,9.38,12.95.13.34.46.56.82.56h14.67s.09-.01.13-.02c.19-.07.28-.28.21-.47-3.82-9.36-9.63-17.23-17.42-23.62-2.83-2.32-5.33-3.73-7.52-4.23-4.67-1.07-7.21.24-11.1,1.45-2.79.88-5.96,1-9.51.36-3.49-.62-6.12-3.46-8.07-6.12-.01-.02-.03-.04-.04-.06-.12-.23-.03-.52.2-.65,13.96-7.4,28-15,40.96-24.13,8.42-5.93,15.25-12.5,20.5-19.71,6.63-9.09,9.81-19.41,9.56-30.96-.08-3.72-.15-6-.2-6.82,0-.13.07-.25.19-.32.17-.09.38-.02.47.15,5.97,12.23,8.37,27.51,1.83,40.2-.29.56-.13,1.24.38,1.6,5.02,3.66,10.65,6.46,16.9,8.38,11.05,3.42,21.9,4.62,32.57,3.61.03,0,.07-.01.1-.02.14-.07.2-.24.13-.38-5.2-11.3-1.26-22.2,6.26-32.23.06-.07.14-.11.23-.11.16,0,.29.13.29.29-.02.95-.89,2.49-1.23,3.96-2.09,8.88-.59,16.81,4.5,23.81,1.49,2.06,4.06,4.65,7.71,7.77,10.59,9.07,19.63,19.2,25.49,31.5,3.95,8.28,6.81,16.92,8.59,25.92.09.48.51.82.99.82h27.58s.07,0,.1-.01c.28-.05.46-.32.4-.6-1-4.83-2.57-9.52-4.72-14.08-.07-.14-.07-.3,0-.44.12-.25.43-.36.68-.24.31.14.68.44,1.11.89,3.88,4.1,6.69,8.76,8.44,13.98.11.31.4.52.72.52h12.24c.25-.04.43-.28.39-.54-.75-5.06-2.11-9.84-4.08-14.33-.03-.06-.04-.14-.02-.21.04-.17.22-.27.39-.23,3.87.88,9.07,10.91,10.37,14.47.18.51.67.85,1.21.85h12.49s.1,0,.15-.02c.33-.08.53-.42.45-.75-1.82-7.37-5.04-13.97-9.66-19.81-4.59-5.8-12.21-11.2-19.99-9.69-3.03.59-7.44,2.76-10.73,2.49-2.88-.23-5.41-.96-7.6-2.19-.4-.23-.77-.52-1.08-.87-8.89-9.95-17.73-23.29-24.17-32.08-.11-.16-.08-.38.08-.5,21.75-15.49,34.8-39.16,29.5-66.37-.02-.08.02-.17.11-.2.09-.02.18.03.2.11,6.27,15.26,10.12,34.22,2.26,49.39-.06.12-.07.25-.03.37.08.26.35.4.6.32,36.43-11.22,65.61-37.29,83.79-70.43,4.97-9.05,8.91-16.71,11.83-22.98.06-.12.22-.34.49-.68.11-.14.19-.3.24-.47.13-.46.27-.87.43-1.21,3.77-7.84,7.8-15.54,12.08-23.08.06-.1.08-.21.05-.32-.05-.24-.29-.4-.53-.35-12.78,2.34-20.68-6.83-24.27-17.83-.03-.09,0-.18.06-.25.1-.1.27-.11.37-.01,6.63,6.83,14.87,9.59,24.72,8.27,1.49-.2,5.28-.89,11.35-2.07,10.09-1.97,21.36,2.5,29.26,9.36.42.37.99.5,1.54.37,8.71-2.15,15.83-10.33,19.17-18.34.01-.01.01-.02.02-.04.34-.88-.1-1.88-.99-2.23Zm-35.44-84.01c0-1.32.71-2.55,1.85-3.21l3.38-1.95c.31-.18.67-.23,1.01-.15,2.22.54,3.77,1.7,4.65,3.47.26.52.05,1.14-.47,1.4-.11.05-.23.09-.36.1-2.97.28-5.77,1.97-8.39,5.07-.34.4-.94.44-1.34.1-.21-.18-.33-.43-.33-.71v-4.12Zm-32.62,35.5c-.74.96-1.83,1.58-3.03,1.74l-6.56.89c-.6.08-1.15-.35-1.23-.95-.01-.03-.01-.06-.01-.09-.41-11.18,10.66-15.58,20.05-18.34,1.2-.35,2.22-.5,3.06-.45.34.03.59.32.56.65,0,.12-.05.24-.12.33l-12.72,16.22Z"/>
    <path class="cls-1" d="m217.45,356.62c.03.12-.04.25-.16.28-.05.01-.11,0-.16-.02-10.79-6.16-21.52-13.29-30.75-21.54-9.08-8.12-18.03-17.07-26.86-26.84-.1-.11-.09-.27.02-.37.06-.05.13-.07.21-.06,16.28,2.77,35.37,9.6,45.49,23.66,5.55,7.71,9.62,16.01,12.21,24.89Z"/>
    <path class="cls-1" d="m309.61,497.5c6.16,3.11,12.71,5.49,19.64,7.16,5.54,1.33,9.56,2.19,12.05,2.58.56.09,1.04.45,1.28.96,2.28,4.81,5.16,9.23,8.64,13.28,4.55,5.28,12.45,10.42,19.59,8.92,2.82-.59,5.99-1.81,9.37-2.06,4.77-.34,9.12,1.65,13.05,5.96,6.1,6.68,10.6,14.42,13.5,23.22.06.18-.05.37-.22.42-.03,0-.06.01-.1.02h-15.18c-.3,0-.56-.19-.66-.47-1.93-5.37-5-10.15-9.21-14.35-.26-.26-.57-.46-.94-.61-.34-.14-.72.01-.87.35-.08.18-.07.38.02.55,2.05,4.2,3.27,8.9,3.67,14.1.02.22-.15.41-.37.43-.01,0-.02,0-.03,0h-39.32c-.31,0-.61-.13-.82-.36-3.57-3.94-5.83-6.54-6.78-7.81-11.78-15.55-19.97-33.36-26.93-51.73-.09-.23.03-.49.27-.58.12-.04.24-.04.35.02Z"/>
  </g>
</svg>