<?xml version="1.0" encoding="UTF-8"?>
<svg id="Layer_2" data-name="Layer 2" xmlns="http://www.w3.org/2000/svg" viewBox="0 0 420 420.1">
  <defs>
    <style>
      .cls-1 {
        fill: #fff;
        stroke-width: 0px;
      }
    </style>
  </defs>
  <g id="Layer_1-2" data-name="Layer 1">
    <g>
      <path class="cls-1" d="m329.1,111.97c-9.7,9-16.7,20.11-20.8,33.31-6.2,25-28.5,151.3-28.5,159,.7,8.3,3.5,16,8.3,22.9h-68c1.4-6.21,2.1-12.5,2.1-18.71,0-11.79-10.4-66.6-10.4-66.6,0,0-13.9,56.9-13.9,67.3,0,6.2,1.4,12.5,4.2,18h-68.7s13.2-9.7,13.2-18.7c-1.4-25.7-37.5-159.7-40.3-170.1-2.2-10.4-8.4-20.09-17.4-26.4h68.7c-1.4,7.61-2.1,15.31-2.1,23.61,2.8,30.5,22.9,115.2,22.9,115.2l32.6-131.81,33.4,129.11s20.1-113.9,20.1-121.5c-.7-5.61-3.5-11.11-8.3-14.61h72.9Z"/>
      <path class="cls-1" d="m383.2,91.18v-51.4c0-1.4-1.4-2.81-2.8-2.81h-51.4c-71.5-49.29-165.9-49.29-237.4,0h-51.3c-.7,0-1.4,0-2.1.7s-.7,1.4-.7,2.1v50.7c-50,72.2-50,167.31,0,239.5v50.71c0,1.4,1.4,2.79,2.8,2.79h51.4c72.2,49.3,166.6,48.61,238.8-.7h50.7c1.4,0,2.8-1.4,2.8-3.5v-50.7c23.5-33.99,36-75.6,36-117.99s-13.2-84-36.8-119.4Zm-173.5,301.29c-50.35,0-95.82-20.3-128.71-53.18-32.89-32.89-53.19-78.36-53.19-128.71C27.8,109.88,109,28.68,209.7,28.68s181.9,81.2,181.9,181.9-81.2,181.89-181.9,181.89Z"/>
      <path class="cls-1" d="m329.1,111.97c-9.7,9-16.7,20.11-20.8,33.31-6.2,25-28.5,151.3-28.5,159,.7,8.3,3.5,16,8.3,22.9h-68c1.4-6.21,2.1-12.5,2.1-18.71,0-11.79-10.4-66.6-10.4-66.6,0,0-13.9,56.9-13.9,67.3,0,6.2,1.4,12.5,4.2,18h-68.7s13.2-9.7,13.2-18.7c-1.4-25.7-37.5-159.7-40.3-170.1-2.2-10.4-8.4-20.09-17.4-26.4h68.7c-1.4,7.61-2.1,15.31-2.1,23.61,2.8,30.5,22.9,115.2,22.9,115.2l32.6-131.81,33.4,129.11s20.1-113.9,20.1-121.5c-.7-5.61-3.5-11.11-8.3-14.61h72.9Z"/>
    </g>
  </g>
</svg>