<svg xmlns="http://www.w3.org/2000/svg" viewBox="0 0 795 786"><path fill="#cfcfcf" d="m739.02 332.27 54.74 14.99a1 .99 7.6 0 1 .74.96v89.08a1 1 0 0 1-.68.95L737.78 457a1.01 1.01 0 0 0-.64.64l-26.24 81.31a.98.98 0 0 0 .14.89l34.76 48.3a1.01 1-45.3 0 1 0 1.17l-52.64 72.81a.99.99 0 0 1-1.13.36l-55.26-18.57a.99.98-53.5 0 0-.91.14l-72.07 52.58a1.03 1.02-18.7 0 0-.41.82l.8 58.34a1 .99-9.6 0 1-.69.96l-84.46 27.64a1 .99 62.1 0 1-1.1-.34l-36.63-47.41a1 .99 71.1 0 0-.79-.39h-83.55a1.02 1 18.4 0 0-.8.39l-36.55 47.76a1.02 1.01 27.3 0 1-1.11.35l-84.53-27.26a1.01 1-80.6 0 1-.69-.97l.65-58.24a.99.98-71.8 0 0-.41-.82l-72.62-52.51a.99.98 53.5 0 0-.91-.14l-55.03 18.9a1 1 0 0 1-1.13-.35L50.9 590.84a1 1 0 0 1 0-1.18l34.62-48.21a1 .99 53.6 0 0 .13-.89l-26.69-81.63a1 .97.9 0 0-.64-.64L2.19 439.98a1.01 1.01 0 0 1-.69-.96v-92.49a1 .99-8.8 0 1 .7-.95l55.85-17.59a1.02 1.02 0 0 0 .65-.65l27.21-83.06a1.01 1 36.1 0 0-.15-.91L50.9 195.9a1.01.99-45.3 0 1 0-1.19l52.94-72.53a1 .99 27.9 0 1 1.15-.35l53.72 19.8a1.04 1.02-52.4 0 0 .94-.13l75.16-54.37a1.02 1.01-19.6 0 0 .41-.85l-1.98-57.22a1 .99 80.1 0 1 .69-.99L318.46.81a.99.98 63.7 0 1 1.13.39l32.12 47.53a1.01 1 72.8 0 0 .83.44l92.19.34a1.01 1-72.8 0 0 .83-.44l32.42-47.55a1.01 1 25.8 0 1 1.14-.39l84.39 27.63a1.02 1.02 0 0 1 .69.99l-2.01 57.41a1.02 1.01 19.6 0 0 .41.85l74.5 54.38a1.01 1.01 0 0 0 .93.13l54.02-19.42a1.01 1-27.7 0 1 1.15.35q24.11 33.3 48.4 66.72 2.2 3.03 4.15 6.24a1 .99 49.2 0 1-.08 1.14l-35.78 44.34a1.02 1.01 56.1 0 0-.18.94l28.62 88.78a.99.98-1 0 0 .69.66Zm-52.42 60.49a288.62 288.62 0 0 0-288.62-288.62 288.62 288.62 0 0 0-288.62 288.62 288.62 288.62 0 0 0 288.62 288.62A288.62 288.62 0 0 0 686.6 392.76Z"/><path fill="#cfcfcf" d="M443.1 404.16q8.54-57.12 17.64-114.54c1.21-7.62 1.05-13.05-5.11-17.55a1 1 0 0 1-.39-1.01l1.77-8.64a1 .99-84.3 0 1 .97-.8l93.7-.59a1.01 1.01 0 0 1 .96.69l2.71 8.22a1.01.99-30.5 0 1-.28 1.05q-9.81 9.02-17.42 19.88c-5.7 8.14-7.93 19.35-10.21 29.37-13.09 57.57-23.72 115.62-32.4 174.02-2.17 14.62-6.46 29.62 8.3 39.73a1 1 0 0 1 .4 1.08l-2.29 8.56a1.01.99-82.4 0 1-.96.75l-90.52.04a1.01 1 81.4 0 1-.96-.71l-2.54-8.35a1 .98-31.5 0 1 .25-1c7.18-7.13 5.67-13.54 3.88-24.06q-3.53-20.75-8.03-41.32-.78-3.55-1.56 0-5.37 24.25-9.22 48.78c-.89 5.7-1.02 12.44 3.61 16.37a1.01 1.01 0 0 1 .32 1.02l-2.32 8.6a1 .99 7.6 0 1-.96.73h-91.27a1.01 1 81.4 0 1-.96-.71l-2.55-8.64a1.02 1 65.9 0 1 .42-1.13c7.08-4.51 16.32-12.71 14.55-21.88q-3.68-19.05-8.31-37.89-21.36-86.86-44.16-173.36c-3.39-12.88-6.84-21.04-15.96-29.3a.98.98 0 0 1-.26-1.08l3.03-8.21a1 1 0 0 1 .94-.66c28.65.06 57.57.89 85.76-.91a1.01 1 79.2 0 1 1.02.7l2.59 8.36a.99.99 0 0 1-.4 1.12q-8.22 5.49-6.59 14.6 5.86 32.75 12.97 65.26 6.6 30.19 13.13 60.41.72 3.32 1.56.03l35.88-140.44a1 .99 7 0 1 .97-.75h8.79a1.01.99-7.5 0 1 .97.73l36.98 133.52q1.01 3.63 1.56-.09Z"/></svg>