<?xml version="1.0" encoding="UTF-8"?>
<svg id="Layer_2" data-name="Layer 2" xmlns="http://www.w3.org/2000/svg" viewBox="0 0 617.5 749.87">
  <defs>
    <style>
      .cls-1 {
        fill: #fff;
        stroke-width: 0px;
      }
    </style>
  </defs>
  <g id="Layer_1-2" data-name="Layer 1">
    <path class="cls-1" d="m281.8,176.9c-.62,1.8-3.52,1.52-5.17,2.05-1.48.78-2.68,2.13-4.38,2.13-1.55,0-4.05-.62-4.25-2.13-.3-2.05,2.75-4.15,4.68-4.15,1.25-.6,2.7-.93,4.22-.93,1.4,0,2.73.28,3.92.8l-.08-.02c.55.22.95.75.95,1.38,0,.08,0,.13-.03.2h0v.62h.1l.03.05Zm17.2,0v-.68c-.2-.62.4-1.3.9-1.55,1.15-.5,2.5-.8,3.92-.8,1.52,0,2.98.35,4.25.95l-.05-.02c1.98,0,5,2.1,4.68,4.23-.17,1.52-2.65,2.05-4.22,2.05-1.73,0-2.87-1.35-4.4-2.13-1.62-.57-4.55-.25-5.1-2.03l.02-.02Zm33.8,49.45c-13.3,8.42-29.03,14.35-45.88,16.65l-.6.08c-15.15-.87-28.92-6.2-40.18-14.7l.17.13c-4.8-4.17-8.75-8.38-11.65-10.47-5.12-4.17-4.5-10.4-2.3-10.4,3.4.5,4.03,4.17,6.22,6.25,3,2.05,6.73,6.25,11.25,10.4,9.93,8.2,22.48,13.53,36.25,14.58l.22.03c16.35-1.43,31.23-6.68,44.08-14.8l-.4.25c6.1-4.22,13.9-10.42,20.25-14.6,4.87-4.25,4.65-8.35,8.73-8.35,4,.5,1.07,4.17-4.6,10.37-6.15,4.7-13.18,9.52-20.45,14l-1.1.62-.02-.03ZM109.15,509.82h.3c1.73,0,3.43.17,5.08.47l-.17-.02c13.6,3.5,24.8,11.95,31.82,23.27l.13.23,28.43,51.98.1.1c11.42,19.33,23.7,36.05,37.42,51.48l-.27-.33c12.25,13,20.5,29.9,22.73,48.65l.05.4v.2c-.3,20.42-15.32,37.27-34.9,40.4l-.22.02c-5,.78-10.8,1.2-16.67,1.2-21.43,0-41.48-5.82-58.68-16l.52.3c-26.32-11.02-56.88-17.85-88.88-18.8h-.37c-9.3-.62-17.4-5.38-22.53-12.4l-.05-.08c-1.35-4.35-2.13-9.35-2.13-14.55,0-8.75,2.2-16.98,6.1-24.15l-.13.27v-.12l.07-.1c1.02-4.7,1.63-10.13,1.63-15.68,0-6.85-.9-13.47-2.6-19.78l.13.52c-1.02-3.75-1.63-8.07-1.63-12.55,0-6.05,1.08-11.82,3.08-17.18l-.1.35c5-10.42,12.37-12.5,21.55-16.65,10.95-3.32,20.47-8.35,28.78-14.83l-.2.15h.05v-.08c8-8.37,13.9-18.77,20.88-26.18,4.88-6.23,12.3-10.25,20.67-10.5h.05l-.02-.05Zm337.85-1.52c-.02.43-.02.95-.02,1.48,0,18.58,11.22,34.53,27.27,41.45l.3.12c1.2.08,2.6.12,4,.12,20.77,0,39.38-9.28,51.88-23.93l.08-.1,6.6-.3c1.32-.2,2.85-.3,4.4-.3,8.52,0,16.3,3.3,22.07,8.7l-.02-.02.1.1c6.23,7.53,10.55,16.83,12.17,27.05l.05.33c1.38,12.62,5.95,24,12.93,33.5l-.12-.2c10.4,8.9,17.62,21.25,19.82,35.27l.05.33.1-.23v.55l-.1-.37c-.47,8.17-5.78,12.38-15.55,18.6-29.6,12.42-55.03,28.95-76.92,49.2l.17-.15c-15.2,19.8-37.52,33.48-63.08,37.15l-.52.05c-1.85.25-4,.4-6.17.4-19.2,0-35.7-11.6-42.9-28.15l-.12-.3-.15-.1c-2.33-7.15-3.65-15.37-3.65-23.9,0-10.4,1.98-20.32,5.6-29.45l-.2.55c5.85-16.7,10.87-36.65,14.2-57.2l.27-2.08c.4-20.3,2.6-39.83,6.45-58.75l-.35,2.08c2.12-12.95,9.53-23.85,19.85-30.63l.17-.1,1.4-.68-.05-.1Zm-68.28-279.85c15,53.68,33.48,100.05,56.17,143.92l-1.98-4.17c15.33,27.25,27.25,58.87,34.08,92.37l.35,2.1h.78c5.42,0,10.68.72,15.68,2.1l-.43-.1c2.75-9.88,4.33-21.2,4.33-32.9,0-35.65-14.67-67.9-38.33-90.97l-.02-.03c-6.87-6.25-7.25-10.47-3.85-10.47,24.28,22.75,42.22,51.95,51.13,84.85l.3,1.28c2.23,8.23,3.5,17.68,3.5,27.43,0,8.77-1.03,17.33-2.97,25.5l.15-.75c1.85.95,4,1.67,6.27,2.08l.15.02c32.25,16.67,44.15,29.3,38.43,48.02v-1.35c-1.88-.1-3.75,0-5.63,0h-.5c4.72-14.6-5.67-25.78-33.27-38.25-28.57-12.5-51.42-10.5-55.3,14.52-.27,1.22-.47,2.65-.55,4.13v.08c-1.82.75-4,1.45-6.25,1.95l-.27.05c-12.7,8.4-21.75,21.47-24.73,36.72l-.05.35c-3.7,17.37-6.02,37.5-6.4,58.07v.4c-2.27,15.92-5.75,30.18-10.45,43.83l.5-1.65c-24.57,20.1-56.27,32.25-90.85,32.25-28.25,0-54.6-8.13-76.82-22.17l.6.35c-3.65-6.33-7.82-11.8-12.58-16.67l.03.02c-2.43-4-5.28-7.43-8.55-10.38l-.05-.02c5.17,0,10.17-.78,14.9-2.2l-.38.1c4.5-2.12,7.95-5.8,9.77-10.3l.05-.12c.45-2.33.73-4.97.73-7.7,0-11.12-4.38-21.2-11.53-28.65l.03.02c-15.48-19.02-33.98-34.88-54.9-47l-.95-.5c-16.78-9.7-29.47-24.88-35.75-43.05l-.17-.55c-2.33-7.95-3.68-17.1-3.68-26.55,0-8.83,1.17-17.37,3.35-25.52l-.15.68c9.42-32.85,23.02-61.53,40.5-87.4l-.7,1.08c3.35-2.03,1.15,4.22-12.75,30.43-11.85,17.82-18.92,39.75-18.92,63.32,0,21,5.6,40.68,15.4,57.65l-.3-.55c1.3-32.73,8.63-63.43,20.85-91.48l-.62,1.63c26.38-47.55,46.35-102.78,56.88-161.3l.5-3.27c1.5,1.13,6.77,4.22,9.03,6.3,6.8,4.15,11.88,10.4,18.42,14.53,6.68,6.5,15.83,10.5,25.87,10.5.52,0,1.05,0,1.57-.03h-.08c1.22.1,2.35.2,3.43.2,11.47-.22,22.18-3.3,31.47-8.55l-.33.17c9.05-4.17,16.25-10.42,23.12-12.5h.15c13.37-3.63,24.57-11.35,32.5-21.73l.1-.15h-.02Zm-87.47-66.93h.22c14.23,0,27.35,4.67,37.93,12.58l-.17-.13c9.45,5.85,20.35,10.82,31.87,14.35l1,.25h.1c6.15,2.75,11.22,7.03,14.85,12.35l.08.13v-4.1c1.15,2.3,1.85,5.03,1.85,7.9,0,2.45-.5,4.77-1.38,6.9l.05-.13c-7.2,12.67-18.87,22.1-32.82,26.2l-.4.1v.05c-8.37,4.22-15.65,10.4-24.2,14.53-8.75,5.25-19.27,8.35-30.55,8.35h-1.13.05c-.55.03-1.2.05-1.85.05-4.35,0-8.55-.78-12.4-2.22l.25.08c-3.98-2.17-7.25-4.22-10.42-6.42l.35.25c-5.68-4.98-11.93-9.75-18.48-14.12l-.65-.4v-.15h-.15c-9.38-4.98-16.75-12.6-21.3-21.9l-.13-.3c-.68-1.68-1.05-3.63-1.05-5.65,0-5.45,2.8-10.25,7.03-13.05l.05-.03c7-4.22,11.88-8.47,15.1-10.5,3.25-2.3,4.47-3.17,5.5-4.1h.05v-.1c6.7-8.47,15.58-14.97,25.8-18.65l.4-.13c4.35-1.25,9.35-1.97,14.53-2.02h.03v.05Zm-42.8-53.3h1.13c4.7.1,9.03,1.67,12.53,4.25l-.05-.05c4.47,3.97,8.12,8.8,10.63,14.25l.1.28c2.82,6.12,4.57,13.25,4.77,20.75v.2c.1,1.15.15,2.47.15,3.8,0,1.58-.08,3.15-.22,4.7l.03-.2v2.5c-.92.22-1.75.55-2.6.75-4.77,1.97-8.8,4.08-12.63,6.45l.35-.2c.2-1.37.3-2.95.3-4.55,0-1.32-.08-2.65-.22-3.95l.03.15v-.48c-.45-3.85-1.35-7.38-2.68-10.7l.1.28c-1.03-3.3-2.82-6.1-5.17-8.33h0c-1.38-1.25-3.2-2.02-5.22-2.02-.17,0-.35,0-.52.02h.03-.65c-2.57.28-4.73,1.87-5.8,4.08l-.03.05c-1.92,2.32-3.25,5.2-3.75,8.35v.1c-.57,2.15-.87,4.62-.87,7.18,0,1.1.05,2.2.17,3.28v-.13.48c.4,3.85,1.3,7.4,2.6,10.7l-.1-.28c1.05,3.3,2.82,6.13,5.17,8.37h0c.3.3.65.55,1.05.75h.03c-2.08,1.33-3.87,2.73-5.52,4.27l.03-.03c-1.13,1-2.5,1.75-4.03,2.1l-.08.03c-3.08-3.68-5.93-7.8-8.38-12.15l-.2-.4c-2.82-6.12-4.57-13.22-4.85-20.75v-.1c-.1-1.2-.15-2.6-.15-4.02,0-6.03.97-11.83,2.75-17.25l-.1.4c1.85-6.45,4.87-12.02,8.9-16.78l-.05.07c3.17-3.75,7.82-6.12,13.05-6.25h.03l-.03.03Zm92.55-1.85h.5c6.87,0,13.18,2.32,18.23,6.23l-.08-.05c5.73,4.43,10.33,10,13.55,16.38l.12.28c3.03,6.65,4.9,14.37,5.18,22.53v.1c0-.63.17-1.25.17-1.87v3.28l-.12-.65-.12-.75c-.08,8-1.77,15.55-4.83,22.42l.15-.35c-1.55,4.07-3.8,7.57-6.65,10.48h0c-.75-.45-1.67-.87-2.6-1.25l-.15-.05c-3.38-1.05-6.33-2.47-9-4.22l.12.08c-1.92-.8-4.23-1.5-6.6-2.03l-.27-.05c2.02-1.9,3.9-3.93,5.63-6.08l.1-.13c1.57-3.7,2.55-7.98,2.75-12.48v-1.32c0-4.25-.7-8.33-2-12.13l.08.28c-1.57-3.97-3.5-7.4-5.8-10.53l.1.13c-2.17-2.2-5.05-3.7-8.27-4.12h-.68c-3.3,0-6.25,1.63-8.05,4.1l-.02.02c-2.9,2.82-5.1,6.32-6.35,10.25l-.05.17c-1.57,3.67-2.6,7.95-2.8,12.4v.67c.05,3,.27,5.9.68,8.72l-.05-.37c-6.02-2.1-13.68-4.23-18.97-6.3-.3-1.82-.5-3.97-.55-6.18v-.7c-.03-.5-.03-1.08-.03-1.65,0-8.1,1.73-15.78,4.85-22.7l-.15.35c2.65-6.97,7.32-12.7,13.3-16.58l.12-.07c5.1-3.9,11.55-6.25,18.55-6.25h.03ZM324.48,0c-4.85,0-9.85.25-15,.65-132.03,10.4-97,150.17-99.03,196.75-1.25,35.65-13.35,68.23-33.12,94.8l.32-.45c-35.17,40.05-63.88,86.85-83.77,138.07l-1.08,3.18c-6.45,17.12-10.2,36.9-10.2,57.55,0,7.12.45,14.15,1.3,21.02l-.07-.83c-1.4,1.15-2.58,2.55-3.4,4.15l-.02.08c-8.12,8.37-14.05,18.75-20.72,26.2-7.07,5.42-15.37,9.7-24.37,12.35l-.52.12c-11.6,3.47-21.05,11.05-26.88,21.02l-.13.23c-2.6,5.3-4.12,11.53-4.12,18.13v.72-.02c.05,5.95.65,11.72,1.82,17.33l-.1-.58c1.4,5.47,2.2,11.78,2.2,18.25,0,4.25-.35,8.42-1.02,12.5l.05-.45c-4.18,7.82-6.6,17.12-6.6,27,0,6.95,1.2,13.6,3.43,19.78l-.13-.4c6.83,9.7,17.15,16.55,29.1,18.73l.28.05c31.85,2.68,61.27,9.32,89.03,19.5l-2.35-.75c17.45,10.38,38.47,16.5,60.9,16.5,7.35,0,14.55-.65,21.55-1.92l-.73.1c16.67-3.77,30.27-14.65,37.6-29.23l.15-.33c18.35-.1,38.42-8.4,70.6-10.42,21.82-1.8,49.18,8.35,80.5,6.25.93,3.98,2.15,7.45,3.7,10.73l-.15-.33.1.1c9.6,20.1,29.75,33.75,53.1,33.75,2.02,0,4.02-.1,6-.3l-.25.02c28.78-4.25,53.47-19.2,70.32-40.57l.17-.23c21.08-19.2,45.67-35.03,72.63-46.33l1.67-.62c10.8-4.77,18.55-14.62,20.25-26.48l.02-.17c-1.48-17.35-9.8-32.47-22.2-42.9l-.1-.08v-3.03l-.1-.1c-5.35-8.25-9.1-18.05-10.52-28.55l-.05-.37c-1.32-12.83-6.95-24.15-15.37-32.67h-.1c-1.85-1.67-3.85-2.1-5.88-4.23-1.65-1.18-3.7-1.9-5.92-2h-.02c4.87-15.05,7.7-32.35,7.7-50.33,0-23.5-4.83-45.87-13.53-66.17l.43,1.1c-17.6-41.8-40.47-77.78-68.3-109.22l.35.43c-27.62-27.05-45.7-63.78-48.7-104.68l-.02-.52C435.97,124.65,442.52.28,324.42.1l.05-.1Z"/>
  </g>
</svg>