<?xml version="1.0" encoding="UTF-8"?>
<svg id="Layer_2" data-name="Layer 2" xmlns="http://www.w3.org/2000/svg" viewBox="0 0 610.76 750.39">
  <defs>
    <style>
      .cls-1 {
        fill: #fff;
        stroke-width: 0px;
      }
    </style>
  </defs>
  <g id="Layer_1-2" data-name="Layer 1">
    <path class="cls-1" d="m415.66,120.23c24.5-28.5,39.4-65.85,39.4-106.68,0-4.57-.17-9.1-.55-13.55l.05.57c-44.22,4.5-82.85,25.48-110.17,56.6l-.17.2c-24.92,27.67-40.18,64.47-40.18,104.85,0,3.93.15,7.85.43,11.7l-.03-.52h1.45c44.35,0,83.9-20.65,109.53-52.88l.23-.28.02-.02Zm-105.52,95.8c-29.62,0-75.45-33.68-123.72-32.5-66.53,1.82-123.98,38.95-154.5,93.25l-.48.92c-66.15,114.8-17.05,284.38,47.45,377.7,31.65,45.42,68.97,96.53,118.47,94.95,47.48-2.02,65.3-30.82,122.92-30.82s73.43,30.82,123.72,29.62c51.15-.8,83.6-46.22,114.85-92.1,21.2-30.67,38.85-66.03,51.1-103.8l.8-2.87c-59.5-25.83-100.4-83.97-100.6-151.7v-.02c.58-60.15,32.6-112.67,80.4-142l.72-.43c-31-43.53-80.53-72.1-136.82-74.22h-.33c-62.48-4.87-114.8,34.05-144.02,34.05l.03-.02Z"/>
  </g>
</svg>